SplineFontDB: 3.0
FontName: LoyalLightv1
FullName: Loyal Light
FamilyName: Loyal
Weight: Light
Copyright: Copyright (c) 2023, Emmet Blanchette
UComments: "2023-12-11: Created with FontForge (http://fontforge.org)"
Version: 001.000
ItalicAngle: 0
UnderlinePosition: -100
UnderlineWidth: 50
Ascent: 800
Descent: 200
InvalidEm: 0
LayerCount: 2
Layer: 0 0 "Back" 1
Layer: 1 0 "Fore" 0
XUID: [1021 65 -877688889 9584006]
FSType: 0
OS2Version: 0
OS2_WeightWidthSlopeOnly: 0
OS2_UseTypoMetrics: 1
CreationTime: 1702354516
ModificationTime: 1703541811
PfmFamily: 17
TTFWeight: 300
TTFWidth: 5
LineGap: 90
VLineGap: 0
OS2TypoAscent: 0
OS2TypoAOffset: 1
OS2TypoDescent: 0
OS2TypoDOffset: 1
OS2TypoLinegap: 90
OS2WinAscent: 0
OS2WinAOffset: 1
OS2WinDescent: 0
OS2WinDOffset: 1
HheadAscent: 0
HheadAOffset: 1
HheadDescent: 0
HheadDOffset: 1
OS2Vendor: 'PfEd'
Lookup: 4 0 1 "'liga' Standard Ligatures in Latin lookup 0" { "'liga' Standard Ligatures in Latin lookup 0-1"  } ['liga' ('DFLT' <'dflt' > 'latn' <'dflt' > ) ]
Lookup: 258 0 0 "'kern' Horizontal Kerning in Latin lookup 0" { "'kern' Horizontal Kerning in Latin lookup 0-1" [60,15,3] } ['kern' ('DFLT' <'dflt' > 'latn' <'dflt' > ) ]
MarkAttachClasses: 1
DEI: 91125
LangName: 1033
Encoding: Custom
Compacted: 1
UnicodeInterp: none
NameList: AGL For New Fonts
DisplaySize: -96
AntiAlias: 1
FitToEm: 0
WidthSeparation: 150
WinInfo: 16 8 2
BeginPrivate: 0
EndPrivate
TeXData: 1 0 0 346030 173015 115343 441450 1048576 115343 783286 444596 497025 792723 393216 433062 380633 303038 157286 324010 404750 52429 2506097 1059062 262144
BeginChars: 105 83

StartChar: A
Encoding: 19 65 0
Width: 600
VWidth: 0
Flags: W
HStem: 0.00976562 13.7705<1.40007 51.5897 140.102 203.744 358.264 397.767 517.996 560.599> 200.37 19.8496<166.32 353.23>
LayerCount: 2
Fore
SplineSet
286.849609375 616.75 m 2
 475.610351562 74.2802734375 l 2
 482.9296875 53.8896484375 511.5 13.7802734375 537.75 13.7802734375 c 4
 549.629882812 13.7802734375 553.0703125 13.7802734375 553.0703125 13.7802734375 c 2
 557.110351562 13.7802734375 560.639648438 10.419921875 560.639648438 6.1201171875 c 0
 560.639648438 2.9404296875 560.639648438 0.009765625 560.639648438 0.009765625 c 1
 358.209960938 0.009765625 l 1
 358.209960938 0.009765625 358.209960938 3.8798828125 358.209960938 6.1201171875 c 0
 358.209960938 10.25 361.219726562 13.7802734375 365.700195312 13.7802734375 c 2
 373.450195312 13.7802734375 l 2
 413.809570312 13.7802734375 414.669921875 48.3798828125 403.5703125 79.7900390625 c 2
 360.360351562 200.370117188 l 1
 159.8203125 200.370117188 l 1
 117.219726562 79.7900390625 l 2
 106.200195312 48.3798828125 125.91015625 13.7802734375 169.889648438 13.7802734375 c 0
 185.809570312 13.7802734375 196.309570312 13.7802734375 196.309570312 13.7802734375 c 2
 200.700195312 13.7802734375 203.799804688 10.25 203.799804688 6.1201171875 c 0
 203.799804688 3.8798828125 203.799804688 0.009765625 203.799804688 0.009765625 c 1
 1.3603515625 0.009765625 l 1
 1.3603515625 0.009765625 1.3603515625 2.9404296875 1.3603515625 6.1201171875 c 0
 1.3603515625 10.419921875 4.8095703125 13.7802734375 8.849609375 13.7802734375 c 2
 8.849609375 13.7802734375 12.3798828125 13.7802734375 24.259765625 13.7802734375 c 0
 64.8896484375 13.7802734375 88.73046875 53.8798828125 96.1298828125 74.2802734375 c 2
 278.5 616.66015625 l 2
 279.790039062 620.620117188 285.469726562 620.709960938 286.849609375 616.75 c 2
166.3203125 220.219726562 m 1
 353.23046875 220.219726562 l 1
 260.950195312 481.889648438 l 2
 259.5703125 485.9296875 253.889648438 485.83984375 252.599609375 481.799804688 c 2
 166.3203125 220.219726562 l 1
EndSplineSet
EndChar

StartChar: B
Encoding: 20 66 1
Width: 540
VWidth: 0
Flags: W
HStem: 0 19.8799<1.78466 57.5995 134.27 278.529> 378.78 19.8799<134.27 268.854> 599.8 19.8799<1.78466 57.5995 134.27 273.118>
VStem: 69.8096 64.46<20.7846 378.78 398.66 598.895> 363.21 64.6299<452.322 554.532> 419.72 63.5<104.824 283.572>
LayerCount: 2
Fore
SplineSet
252.440429688 389.540039062 m 1xf8
 427.129882812 389.540039062 483.219726562 299.4296875 483.219726562 199.330078125 c 0xf4
 483.219726562 0 285.799804688 0 165.599609375 0 c 2
 0.7802734375 0 l 1
 0.7802734375 0 0.7802734375 3.8701171875 0.7802734375 6.1103515625 c 0
 0.7802734375 10.240234375 3.7900390625 13.76953125 8.26953125 13.76953125 c 2
 23.58984375 13.76953125 l 2
 43.990234375 13.76953125 69.8095703125 25.990234375 69.8095703125 74.26953125 c 2
 69.8095703125 545.400390625 l 2
 69.8095703125 593.690429688 43.990234375 605.91015625 23.58984375 605.91015625 c 2
 8.26953125 605.91015625 l 2
 3.7900390625 605.91015625 0.7802734375 609.440429688 0.7802734375 613.5703125 c 0
 0.7802734375 615.809570312 0.7802734375 619.6796875 0.7802734375 619.6796875 c 1
 237.200195312 619.6796875 l 2
 333.76953125 619.6796875 427.83984375 593.259765625 427.83984375 507.110351562 c 0
 427.83984375 414.5 316.469726562 389.540039062 252.440429688 389.540039062 c 1xf8
134.26953125 599.799804688 m 1
 134.26953125 398.66015625 l 1
 165.599609375 398.66015625 l 2
 267.58984375 398.66015625 363.209960938 432.139648438 363.209960938 503.150390625 c 0xf8
 363.209960938 581.469726562 252.440429688 599.799804688 200.889648438 599.799804688 c 2
 134.26953125 599.799804688 l 1
419.719726562 191.719726562 m 0xf4
 419.719726562 309.83984375 345.58984375 378.780273438 165.599609375 378.780273438 c 0
 153.200195312 378.780273438 134.26953125 378.780273438 134.26953125 378.780273438 c 1
 134.26953125 19.8798828125 l 1
 134.26953125 19.8798828125 157.76953125 19.8798828125 165.599609375 19.8798828125 c 0
 299.6796875 19.8798828125 419.719726562 44.4296875 419.719726562 191.719726562 c 0xf4
EndSplineSet
Validated: 1
EndChar

StartChar: C
Encoding: 21 67 2
Width: 547
VWidth: 0
Flags: W
HStem: 613.67 20G<280.135 353.33>
VStem: 1.49023 64.6201<196.953 431.441> 490.05 15.0205<457.59 463.34>
LayerCount: 2
Fore
SplineSet
512.509765625 163.620117188 m 1
 507.209960938 113.080078125 484.740234375 69.5400390625 442.799804688 35.509765625 c 0
 327.440429688 -58.080078125 166.360351562 -9.4599609375 95.3203125 64.3095703125 c 0
 37.7197265625 124.120117188 1.490234375 212.0703125 1.490234375 312 c 0
 1.490234375 412.540039062 35.76953125 497.1796875 94.4296875 555.219726562 c 0
 173.6796875 633.669921875 249.389648438 633.669921875 310.879882812 633.669921875 c 0
 395.780273438 633.669921875 489.51953125 576.76953125 505.0703125 457.58984375 c 1
 505.0703125 457.58984375 500.389648438 456.969726562 498.799804688 456.709960938 c 0
 494.91015625 456.26953125 490.669921875 458.650390625 490.049804688 463.33984375 c 2
 490.049804688 463.33984375 487.66015625 474.299804688 483.599609375 483.040039062 c 0
 470.440429688 511.66015625 448.610351562 567.5 388.26953125 590.209960938 c 0
 172.099609375 671.669921875 66.1103515625 455.389648438 66.1103515625 315.629882812 c 0
 66.1103515625 183.990234375 143.030273438 81.6396484375 211.059570312 41.7900390625 c 0
 278.8203125 1.9501953125 417.26953125 17.3203125 467.629882812 106.200195312 c 0
 475.490234375 120.16015625 483.530273438 144.809570312 485.830078125 154.879882812 c 0
 486.98046875 159.919921875 491.040039062 163.629882812 496.169921875 163.629882812 c 2
 512.509765625 163.629882812 l 1
 512.509765625 163.620117188 l 1
EndSplineSet
Validated: 33
EndChar

StartChar: D
Encoding: 22 68 3
Width: 544
VWidth: 0
Flags: W
HStem: 0 19.8799<1.45462 57.27 133.94 254.146> 599.8 19.8799<1.45462 57.27 133.94 259.29>
VStem: 69.4805 64.46<20.7846 598.895> 437.07 70.4795<200.326 443.368>
LayerCount: 2
Fore
SplineSet
198.919921875 619.6796875 m 0
 427.25 619.6796875 507.549804688 479.650390625 507.549804688 339.540039062 c 0
 507.549804688 215.33984375 469.849609375 130.48046875 412.360351562 76.6904296875 c 0
 354.870117188 22.8095703125 277.759765625 0 198.919921875 0 c 2
 0.4501953125 0 l 1
 0.4501953125 0 0.4501953125 3.8701171875 0.4501953125 6.1103515625 c 0
 0.4501953125 10.240234375 3.4599609375 13.76953125 7.9404296875 13.76953125 c 2
 23.259765625 13.76953125 l 2
 43.66015625 13.76953125 69.48046875 25.990234375 69.48046875 74.26953125 c 2
 69.48046875 545.400390625 l 2
 69.48046875 593.690429688 43.66015625 605.91015625 23.259765625 605.91015625 c 2
 7.9404296875 605.91015625 l 2
 3.4599609375 605.91015625 0.4501953125 609.440429688 0.4501953125 613.5703125 c 0
 0.4501953125 615.809570312 0.4501953125 619.6796875 0.4501953125 619.6796875 c 1
 0.4501953125 619.6796875 76.3603515625 619.6796875 198.919921875 619.6796875 c 0
198.919921875 19.8798828125 m 2
 335.080078125 19.8798828125 437.059570312 171.009765625 437.0703125 316.299804688 c 0
 437.0703125 499.26953125 330.950195312 599.799804688 198.919921875 599.799804688 c 2
 133.940429688 599.799804688 l 1
 133.940429688 19.8798828125 l 1
 198.919921875 19.8798828125 l 2
EndSplineSet
Validated: 1
EndChar

StartChar: E
Encoding: 23 69 4
Width: 513
VWidth: 0
Flags: W
HStem: 0 19.8896<2.19481 58.0097 134.68 415.097> 321.9 19.8691<134.68 297.261> 413.01 20G<330.57 338.83> 599.8 19.8799<2.19481 58.0097 134.68 415.408>
VStem: 70.2197 64.46<20.7846 321.9 341.77 598.892> 325.06 13.7705<230.634 284.032 379.258 432.97> 459.76 15.0498<105.01 109.39>
LayerCount: 2
Fore
SplineSet
474.809570312 109.389648438 m 1
 456.389648438 0 l 1
 1.1904296875 0 l 1
 1.1904296875 0 1.1904296875 3.8701171875 1.1904296875 6.1103515625 c 0
 1.1904296875 10.240234375 4.2001953125 13.76953125 8.6796875 13.76953125 c 2
 24 13.76953125 l 2
 44.400390625 13.76953125 70.2197265625 25.990234375 70.2197265625 74.26953125 c 2
 70.2197265625 545.400390625 l 2
 70.2197265625 593.6796875 44.400390625 605.91015625 24 605.91015625 c 2
 8.6796875 605.91015625 l 2
 4.2001953125 605.91015625 1.1904296875 609.440429688 1.1904296875 613.5703125 c 0
 1.1904296875 615.809570312 1.1904296875 619.6796875 1.1904296875 619.6796875 c 1
 456.400390625 619.6796875 l 1
 463.969726562 509.4296875 l 1
 463.969726562 509.4296875 461.129882812 509.08984375 457.950195312 508.740234375 c 0
 453.650390625 508.219726562 449.950195312 511.240234375 449.51953125 515.280273438 c 2
 449.51953125 515.280273438 449.08984375 518.809570312 447.709960938 530.599609375 c 0
 445.299804688 551.4296875 430.41015625 599.799804688 382.129882812 599.799804688 c 2
 134.6796875 599.799804688 l 1
 134.6796875 341.76953125 l 1
 264.549804688 341.76953125 l 2
 312.830078125 341.76953125 325.059570312 389.110351562 325.059570312 410.110351562 c 0
 325.059570312 421.990234375 325.059570312 425.51953125 325.059570312 425.51953125 c 2
 325.059570312 429.5703125 328.419921875 433.009765625 332.719726562 433.009765625 c 0
 335.900390625 433.009765625 338.830078125 433.009765625 338.830078125 433.009765625 c 1
 338.830078125 230.580078125 l 1
 338.830078125 230.580078125 334.959960938 230.580078125 332.719726562 230.580078125 c 0
 328.58984375 230.580078125 325.059570312 233.58984375 325.059570312 238.0703125 c 2
 325.059570312 253.389648438 l 2
 325.059570312 273.790039062 312.83984375 321.900390625 264.549804688 321.900390625 c 2
 134.6796875 321.900390625 l 1
 134.6796875 19.8896484375 l 1
 382.120117188 19.8896484375 l 2
 430.400390625 19.8896484375 451.830078125 69.4599609375 456.400390625 89.9501953125 c 0
 458.98046875 101.5703125 459.759765625 105.009765625 459.759765625 105.009765625 c 2
 460.620117188 108.969726562 464.669921875 111.639648438 468.799804688 110.690429688 c 0
 471.969726562 109.990234375 474.809570312 109.389648438 474.809570312 109.389648438 c 1
EndSplineSet
Validated: 1
EndChar

StartChar: F
Encoding: 24 70 5
Width: 510
VWidth: 0
Flags: W
HStem: 0 13.7695<1.24481 47.5892 156.921 203.58> 321.89 19.8701<134.68 297.251> 413 20G<330.56 338.82> 599.8 19.8799<2.19481 58.0097 134.68 414.682>
VStem: 70.2197 64.46<20.7846 321.89 341.76 598.895> 325.05 13.7705<230.625 284.022 379.248 432.96>
LayerCount: 2
Fore
SplineSet
456.389648438 529.740234375 m 0
 448.450195312 564.959960938 420.33984375 599.799804688 382.120117188 599.799804688 c 2
 134.6796875 599.799804688 l 1
 134.6796875 341.759765625 l 1
 264.540039062 341.759765625 l 2
 312.830078125 341.759765625 325.049804688 389.099609375 325.049804688 410.099609375 c 0
 325.049804688 421.98046875 325.049804688 425.509765625 325.049804688 425.509765625 c 2
 325.049804688 429.559570312 328.41015625 433 332.709960938 433 c 0
 335.889648438 433 338.8203125 433 338.8203125 433 c 1
 338.8203125 230.5703125 l 1
 338.8203125 230.5703125 334.950195312 230.5703125 332.709960938 230.5703125 c 0
 328.580078125 230.5703125 325.049804688 233.580078125 325.049804688 238.059570312 c 2
 325.049804688 253.379882812 l 2
 325.049804688 273.780273438 312.8203125 321.889648438 264.540039062 321.889648438 c 2
 134.669921875 321.889648438 l 1
 134.669921875 74.26953125 l 2
 134.669921875 25.990234375 159.719726562 13.76953125 180.719726562 13.76953125 c 0
 192.599609375 13.76953125 196.129882812 13.76953125 196.129882812 13.76953125 c 2
 200.1796875 13.76953125 203.620117188 10.41015625 203.620117188 6.1103515625 c 0
 203.620117188 2.9296875 203.620117188 0 203.620117188 0 c 1
 1.1904296875 0 l 1
 1.1904296875 0 1.1904296875 3.8701171875 1.1904296875 6.1103515625 c 0
 1.1904296875 10.240234375 4.2001953125 13.76953125 8.6796875 13.76953125 c 2
 24 13.76953125 l 2
 44.400390625 13.76953125 70.2197265625 25.990234375 70.2197265625 74.26953125 c 2
 70.2197265625 545.400390625 l 2
 70.2197265625 593.690429688 44.400390625 605.91015625 24 605.91015625 c 2
 8.6796875 605.91015625 l 2
 4.2001953125 605.91015625 1.1904296875 609.440429688 1.1904296875 613.5703125 c 0
 1.1904296875 615.809570312 1.1904296875 619.6796875 1.1904296875 619.6796875 c 1
 456.389648438 619.6796875 l 1
 474.809570312 510.290039062 l 1
 474.809570312 510.290039062 471.969726562 509.690429688 468.790039062 509 c 0
 467.0703125 508.5703125 465.4296875 508.830078125 463.969726562 509.51953125 c 0
 461.900390625 510.459960938 460.26953125 512.360351562 459.75 514.6796875 c 2
 459.75 514.6796875 459.01953125 518.08984375 456.389648438 529.740234375 c 0
EndSplineSet
Validated: 1
EndChar

StartChar: G
Encoding: 25 71 6
Width: 604
VWidth: 0
Flags: W
HStem: -16.0303 19.9307<232.49 339.312> 294.19 13.8594<368.524 415.192 525.332 572.28> 613.83 19.8496<218.047 340.54>
VStem: 1.69043 65.0898<184.308 442.359> 437.89 65.0107<104.83 287.125>
LayerCount: 2
Fore
SplineSet
1.6904296875 303.370117188 m 0
 1.6904296875 528.629882812 142.620117188 633.6796875 281.75 633.6796875 c 0
 388.610351562 633.6796875 480.450195312 563.120117188 495.700195312 446.200195312 c 1
 495.700195312 446.200195312 452.26953125 439.650390625 450.709960938 439.389648438 c 0
 446.900390625 438.959960938 442.740234375 441.299804688 442.129882812 445.889648438 c 2
 442.129882812 445.889648438 437.139648438 467.709960938 432.209960938 486.01953125 c 0
 410.76953125 565.629882812 373.33984375 613.830078125 274.740234375 613.830078125 c 0
 112.240234375 613.830078125 66.7802734375 423.530273438 66.7802734375 306.9296875 c 0
 66.7802734375 205.23046875 126.290039062 3.900390625 287 3.900390625 c 0
 430.01953125 3.900390625 437.889648438 181.25 437.889648438 207.610351562 c 2
 437.98046875 233.259765625 l 2
 437.98046875 281.879882812 411.98046875 294.190429688 391.440429688 294.190429688 c 2
 376.009765625 294.190429688 l 2
 371.5 294.190429688 368.469726562 297.740234375 368.469726562 301.900390625 c 0
 368.469726562 304.150390625 368.469726562 308.049804688 368.469726562 308.049804688 c 1
 572.3203125 308.049804688 l 1
 572.3203125 308.049804688 572.3203125 305.110351562 572.3203125 301.900390625 c 0
 572.3203125 297.5703125 568.849609375 294.190429688 564.780273438 294.190429688 c 2
 564.780273438 294.190429688 561.23046875 294.190429688 549.26953125 294.190429688 c 0
 528.120117188 294.190429688 502.990234375 281.879882812 502.990234375 233.259765625 c 2
 502.900390625 207.610351562 l 2
 502.900390625 134.450195312 463.889648438 -16.0302734375 285.200195312 -16.0302734375 c 0
 92.080078125 -16.0302734375 1.6904296875 153.540039062 1.6904296875 303.370117188 c 0
EndSplineSet
Validated: 1
EndChar

StartChar: H
Encoding: 26 72 7
Width: 613
VWidth: 0
Flags: W
HStem: 0 13.7695<1.12469 47.4431 156.813 203.46 376.535 422.873 532.244 578.89> 318.46 19.8604<134.6 445.49> 605.91 13.7695<1.10521 47.4431 156.819 203.47 376.554 422.873 532.253 578.901>
VStem: 70.0596 64.5303<20.7927 318.46 338.32 598.877> 445.49 64.5293<20.8035 318.46 338.32 598.884>
LayerCount: 2
Fore
SplineSet
556.040039062 605.91015625 m 0
 535.040039062 605.91015625 510.030273438 593.650390625 510.01953125 545.400390625 c 2
 510.01953125 74.2802734375 l 2
 510.01953125 26.0302734375 535.030273438 13.7802734375 556.030273438 13.7802734375 c 0
 567.91015625 13.7802734375 571.440429688 13.7802734375 571.440429688 13.7802734375 c 2
 575.490234375 13.7802734375 578.9296875 10.419921875 578.9296875 6.1201171875 c 0
 578.9296875 2.9404296875 578.9296875 0.009765625 578.9296875 0.009765625 c 1
 376.5 0.009765625 l 1
 376.5 0.009765625 376.5 3.8798828125 376.5 6.1201171875 c 0
 376.5 10.25 379.509765625 13.7802734375 383.990234375 13.7802734375 c 2
 399.309570312 13.7802734375 l 2
 419.6796875 13.7802734375 445.490234375 26.0302734375 445.490234375 74.2802734375 c 2
 445.490234375 318.459960938 l 1
 134.58984375 318.459960938 l 1
 134.58984375 74.26953125 l 2
 134.58984375 26.01953125 159.599609375 13.76953125 180.599609375 13.76953125 c 0
 192.48046875 13.76953125 196.009765625 13.76953125 196.009765625 13.76953125 c 2
 200.059570312 13.76953125 203.5 10.41015625 203.5 6.1103515625 c 0
 203.5 2.9296875 203.5 0 203.5 0 c 1
 1.0703125 0 l 1
 1.0703125 0 1.0703125 3.8701171875 1.0703125 6.1103515625 c 0
 1.0703125 10.240234375 4.080078125 13.76953125 8.5595703125 13.76953125 c 2
 23.8798828125 13.76953125 l 2
 44.25 13.76953125 70.0595703125 26.01953125 70.0595703125 74.26953125 c 2
 70.0595703125 545.400390625 l 2
 70.0595703125 593.650390625 44.25 605.900390625 23.8798828125 605.900390625 c 2
 8.5595703125 605.900390625 l 2
 4.080078125 605.900390625 1.0703125 609.4296875 1.0703125 613.559570312 c 0
 1.0703125 615.799804688 1.0703125 619.669921875 1.0703125 619.669921875 c 1
 203.509765625 619.669921875 l 1
 203.509765625 619.669921875 203.509765625 616.740234375 203.509765625 613.559570312 c 0
 203.509765625 609.259765625 200.059570312 605.900390625 196.01953125 605.900390625 c 2
 196.01953125 605.900390625 192.490234375 605.900390625 180.610351562 605.900390625 c 0
 159.599609375 605.900390625 134.599609375 593.650390625 134.599609375 545.400390625 c 2
 134.599609375 338.3203125 l 1
 445.490234375 338.3203125 l 1
 445.490234375 545.41015625 l 2
 445.490234375 593.66015625 419.6796875 605.91015625 399.309570312 605.91015625 c 2
 383.990234375 605.91015625 l 2
 379.509765625 605.91015625 376.5 609.440429688 376.5 613.5703125 c 0
 376.5 615.809570312 376.5 619.6796875 376.5 619.6796875 c 1
 578.940429688 619.6796875 l 1
 578.940429688 619.6796875 578.940429688 616.75 578.940429688 613.5703125 c 0
 578.940429688 609.26953125 575.490234375 605.91015625 571.450195312 605.91015625 c 2
 571.450195312 605.91015625 567.919921875 605.91015625 556.040039062 605.91015625 c 0
EndSplineSet
Validated: 1
EndChar

StartChar: I
Encoding: 27 73 8
Width: 239
VWidth: 0
Flags: W
HStem: 0.00976562 13.7705<0.844416 47.1632 156.534 203.18> 605.91 13.7695<0.844416 47.1632 156.534 203.18>
VStem: 69.7803 64.5293<20.8035 598.884>
LayerCount: 2
Fore
SplineSet
180.3203125 605.91015625 m 0
 159.3203125 605.91015625 134.309570312 593.650390625 134.309570312 545.400390625 c 2
 134.309570312 74.2802734375 l 2
 134.309570312 26.0302734375 159.3203125 13.7802734375 180.3203125 13.7802734375 c 0
 192.200195312 13.7802734375 195.73046875 13.7802734375 195.73046875 13.7802734375 c 2
 199.780273438 13.7802734375 203.219726562 10.419921875 203.219726562 6.1201171875 c 0
 203.219726562 2.9404296875 203.219726562 0.009765625 203.219726562 0.009765625 c 1
 0.7900390625 0.009765625 l 1
 0.7900390625 0.009765625 0.7900390625 3.8798828125 0.7900390625 6.1201171875 c 0
 0.7900390625 10.25 3.7998046875 13.7802734375 8.2802734375 13.7802734375 c 2
 23.599609375 13.7802734375 l 2
 43.9697265625 13.7802734375 69.7802734375 26.0302734375 69.7802734375 74.2802734375 c 2
 69.7802734375 545.41015625 l 2
 69.7802734375 593.66015625 43.9697265625 605.91015625 23.599609375 605.91015625 c 2
 8.2802734375 605.91015625 l 2
 3.7998046875 605.91015625 0.7900390625 609.440429688 0.7900390625 613.5703125 c 0
 0.7900390625 615.809570312 0.7900390625 619.6796875 0.7900390625 619.6796875 c 1
 203.219726562 619.6796875 l 1
 203.219726562 619.6796875 203.219726562 616.75 203.219726562 613.5703125 c 0
 203.219726562 609.26953125 199.76953125 605.91015625 195.73046875 605.91015625 c 2
 195.73046875 605.91015625 192.200195312 605.91015625 180.3203125 605.91015625 c 0
EndSplineSet
Validated: 1
EndChar

StartChar: J
Encoding: 28 74 9
Width: 255
VWidth: 0
Flags: W
HStem: 605.91 13.7695<17.3044 63.5812 172.991 219.651>
VStem: 86.1904 64.5498<-43.2836 598.892>
LayerCount: 2
Fore
SplineSet
-13.48046875 -117.120117188 m 0
 55.3203125 -89.4404296875 86.1904296875 -27.1103515625 86.1904296875 46.580078125 c 2
 86.1904296875 545.400390625 l 2
 86.1904296875 593.690429688 60.3701171875 605.91015625 40.0595703125 605.91015625 c 2
 24.740234375 605.91015625 l 2
 20.259765625 605.91015625 17.25 609.440429688 17.25 613.5703125 c 0
 17.25 615.809570312 17.25 619.6796875 17.25 619.6796875 c 1
 219.690429688 619.6796875 l 1
 219.690429688 619.6796875 219.690429688 616.75 219.690429688 613.5703125 c 0
 219.690429688 609.26953125 216.25 605.91015625 212.200195312 605.91015625 c 2
 212.200195312 605.91015625 208.669921875 605.91015625 196.790039062 605.91015625 c 0
 175.790039062 605.91015625 150.740234375 593.6796875 150.740234375 545.400390625 c 2
 150.740234375 98.2197265625 l 2
 150.740234375 63.1103515625 149.290039062 33.849609375 146.440429688 8.7998046875 c 0
 138.26953125 -63.1298828125 80.580078125 -109.330078125 -21.990234375 -141.040039062 c 1
 -23.2001953125 -134.330078125 l 1
 -24.150390625 -128.8203125 l 1
 -24.240234375 -128.48046875 l 2
 -24.919921875 -124.51953125 -22.6904296875 -120.650390625 -18.900390625 -119.26953125 c 0
 -17.08984375 -118.580078125 -15.3603515625 -117.879882812 -13.48046875 -117.120117188 c 0
EndSplineSet
Validated: 1
EndChar

StartChar: K
Encoding: 29 75 10
Width: 558
VWidth: 0
Flags: W
HStem: 0 13.7695<1.02412 47.3435 156.719 203.37 314.635 352.045 475.701 516.99> 605.9 13.7695<1.02428 47.3435 156.714 203.361 296.676 353.538 450.458 499.01>
VStem: 69.96 64.5303<20.7927 301.89 314.48 598.877>
LayerCount: 2
Fore
SplineSet
189.809570312 344.3203125 m 1
 403.669921875 92.25 l 2
 417.870117188 75.8798828125 467.889648438 13.7802734375 494.139648438 13.7802734375 c 0
 506.01953125 13.7802734375 509.459960938 13.7802734375 509.459960938 13.7802734375 c 2
 513.5 13.7802734375 517.030273438 10.419921875 517.030273438 6.1201171875 c 0
 517.030273438 2.9404296875 517.030273438 0.009765625 517.030273438 0.009765625 c 1
 314.599609375 0.009765625 l 1
 314.599609375 0.009765625 314.599609375 3.8798828125 314.599609375 6.1201171875 c 0
 314.599609375 10.25 317.610351562 13.7802734375 322.08984375 13.7802734375 c 2
 329.83984375 13.7802734375 l 2
 370.209960938 13.7802734375 356.25 46.0498046875 334.51953125 71.3095703125 c 2
 134.5 301.889648438 l 1
 134.5 74.26953125 l 2
 134.5 26.01953125 159.5 13.76953125 180.509765625 13.76953125 c 0
 192.389648438 13.76953125 195.919921875 13.76953125 195.919921875 13.76953125 c 2
 199.959960938 13.76953125 203.41015625 10.41015625 203.41015625 6.1103515625 c 0
 203.41015625 2.9296875 203.41015625 0 203.41015625 0 c 1
 0.9697265625 0 l 1
 0.9697265625 0 0.9697265625 3.8701171875 0.9697265625 6.1103515625 c 0
 0.9697265625 10.240234375 3.98046875 13.76953125 8.4599609375 13.76953125 c 2
 23.7802734375 13.76953125 l 2
 44.150390625 13.76953125 69.9599609375 26.01953125 69.9599609375 74.26953125 c 2
 69.9599609375 545.400390625 l 2
 69.9599609375 593.650390625 44.150390625 605.900390625 23.7802734375 605.900390625 c 2
 8.4599609375 605.900390625 l 2
 3.990234375 605.900390625 0.9697265625 609.4296875 0.9697265625 613.559570312 c 0
 0.9697265625 615.799804688 0.9697265625 619.669921875 0.9697265625 619.669921875 c 1
 203.400390625 619.669921875 l 1
 203.400390625 619.669921875 203.400390625 616.740234375 203.400390625 613.559570312 c 0
 203.400390625 609.259765625 199.959960938 605.900390625 195.91015625 605.900390625 c 2
 195.91015625 605.900390625 192.379882812 605.900390625 180.5 605.900390625 c 0
 159.5 605.900390625 134.490234375 593.650390625 134.490234375 545.400390625 c 2
 134.490234375 314.48046875 l 1
 345.3203125 538.599609375 l 2
 367.709960938 562.610351562 374.509765625 605.91015625 330.530273438 605.91015625 c 0
 314.610351562 605.91015625 304.110351562 605.91015625 304.110351562 605.91015625 c 2
 299.719726562 605.91015625 296.620117188 609.440429688 296.620117188 613.5703125 c 0
 296.620117188 615.809570312 296.620117188 619.6796875 296.620117188 619.6796875 c 1
 499.049804688 619.6796875 l 1
 499.049804688 619.6796875 499.049804688 616.75 499.049804688 613.5703125 c 0
 499.049804688 609.26953125 495.610351562 605.91015625 491.559570312 605.91015625 c 2
 491.559570312 605.91015625 488.030273438 605.91015625 476.150390625 605.91015625 c 0
 435.530273438 605.91015625 384.150390625 550.830078125 368.83984375 534.790039062 c 2
 189.809570312 344.3203125 l 1
EndSplineSet
Validated: 33
EndChar

StartChar: L
Encoding: 30 76 11
Width: 500
VWidth: 0
Flags: W
HStem: -0.00976562 19.8896<2.19481 58.0097 155.384 415.093> 605.9 13.7695<1.24481 47.5892 157.824 203.58>
VStem: 70.2197 64.4502<28.6232 598.885> 459.75 15.0596<105 109.39>
LayerCount: 2
Fore
SplineSet
456.389648438 0 m 1
 456.389648438 -0.009765625 l 1
 1.1904296875 -0.009765625 l 1
 1.1904296875 -0.009765625 1.1904296875 3.8603515625 1.1904296875 6.099609375 c 0
 1.1904296875 10.23046875 4.2001953125 13.759765625 8.6796875 13.759765625 c 2
 24 13.759765625 l 2
 44.400390625 13.759765625 70.2197265625 25.98046875 70.2197265625 74.259765625 c 2
 70.2197265625 545.389648438 l 2
 70.2197265625 593.6796875 44.400390625 605.900390625 24 605.900390625 c 2
 8.6796875 605.900390625 l 2
 4.2001953125 605.900390625 1.1904296875 609.4296875 1.1904296875 613.559570312 c 0
 1.1904296875 615.799804688 1.1904296875 619.669921875 1.1904296875 619.669921875 c 1
 203.620117188 619.669921875 l 1
 203.620117188 619.669921875 203.620117188 616.740234375 203.620117188 613.559570312 c 0
 203.620117188 609.259765625 200.169921875 605.900390625 196.129882812 605.900390625 c 2
 196.129882812 605.900390625 192.599609375 605.900390625 180.719726562 605.900390625 c 0
 173.059570312 605.900390625 164.799804688 604.26953125 157.48046875 599.790039062 c 0
 144.740234375 592.129882812 134.669921875 576.040039062 134.669921875 545.400390625 c 2
 134.669921875 74.26953125 l 2
 134.669921875 36.8896484375 160.799804688 19.8798828125 184.669921875 19.8798828125 c 2
 382.110351562 19.8798828125 l 2
 430.400390625 19.8798828125 451.830078125 69.4599609375 456.389648438 89.9404296875 c 0
 458.969726562 101.559570312 459.75 105 459.75 105 c 2
 460.610351562 108.959960938 464.66015625 111.629882812 468.790039062 110.6796875 c 0
 471.969726562 109.990234375 474.809570312 109.389648438 474.809570312 109.389648438 c 1
 456.389648438 0 l 1
EndSplineSet
Validated: 1
EndChar

StartChar: M
Encoding: 31 77 12
Width: 742
VWidth: 0
Flags: W
HStem: 0 13.7695<1.2243 54.622 149.823 203.56 496.435 542.799 652.159 698.79> 605.91 13.7695<1.2243 54.4929 652.159 698.79>
VStem: 92.4902 19.79<41.5604 535.33> 565.43 64.54<20.795 534.3>
LayerCount: 2
Fore
SplineSet
565.4296875 74.2802734375 m 2
 565.33984375 534.299804688 l 1
 353.349609375 12.650390625 l 1
 112.280273438 535.330078125 l 1
 112.280273438 74.26953125 l 2
 112.280273438 25.990234375 159.700195312 13.76953125 180.700195312 13.76953125 c 0
 192.580078125 13.76953125 196.110351562 13.76953125 196.110351562 13.76953125 c 2
 200.16015625 13.76953125 203.599609375 10.41015625 203.599609375 6.1103515625 c 0
 203.599609375 2.9296875 203.599609375 0 203.599609375 0 c 1
 1.169921875 0 l 1
 1.169921875 0 1.169921875 3.8701171875 1.169921875 6.1103515625 c 0
 1.169921875 10.240234375 4.1796875 13.76953125 8.66015625 13.76953125 c 2
 23.98046875 13.76953125 l 2
 44.3798828125 13.76953125 92.490234375 25.990234375 92.490234375 74.26953125 c 2
 92.490234375 545.919921875 l 2
 92.150390625 593.76953125 44.2900390625 605.91015625 23.98046875 605.91015625 c 2
 8.66015625 605.91015625 l 2
 4.1796875 605.91015625 1.169921875 609.440429688 1.169921875 613.5703125 c 0
 1.169921875 615.809570312 1.169921875 619.6796875 1.169921875 619.6796875 c 1
 145.16015625 619.6796875 l 1
 375.040039062 119.290039062 l 1
 578.6796875 619.690429688 l 1
 698.830078125 619.690429688 l 1
 698.830078125 619.690429688 698.830078125 616.759765625 698.830078125 613.580078125 c 0
 698.830078125 609.280273438 695.379882812 605.919921875 691.33984375 605.919921875 c 2
 691.33984375 605.919921875 687.809570312 605.919921875 675.9296875 605.919921875 c 0
 654.9296875 605.919921875 629.969726562 593.690429688 629.969726562 545.41015625 c 2
 629.879882812 487.400390625 l 1
 629.969726562 74.2802734375 l 2
 629.969726562 26 654.9296875 13.7802734375 675.9296875 13.7802734375 c 0
 687.809570312 13.7802734375 691.33984375 13.7802734375 691.33984375 13.7802734375 c 2
 695.389648438 13.7802734375 698.830078125 10.419921875 698.830078125 6.1201171875 c 0
 698.830078125 2.9404296875 698.830078125 0.009765625 698.830078125 0.009765625 c 1
 496.400390625 0.009765625 l 1
 496.400390625 0.009765625 496.400390625 3.8798828125 496.400390625 6.1201171875 c 0
 496.400390625 10.25 499.419921875 13.7802734375 503.889648438 13.7802734375 c 2
 519.209960938 13.7802734375 l 2
 539.610351562 13.7802734375 565.4296875 26 565.4296875 74.2802734375 c 2
EndSplineSet
Validated: 1
EndChar

StartChar: N
Encoding: 32 78 13
Width: 655
VWidth: 0
Flags: W
HStem: 0 13.7695<1.2243 54.622 149.813 203.55> 605.91 13.7695<1.20966 54.9473 418.465 471.862 567.053 620.79>
VStem: 92.4902 19.7793<41.5604 563.696> 509.73 19.7793<103.81 578.111>
LayerCount: 2
Fore
SplineSet
620.830078125 619.6796875 m 1
 620.830078125 619.6796875 620.830078125 616.75 620.830078125 613.5703125 c 0
 620.830078125 609.26953125 617.389648438 605.91015625 613.33984375 605.91015625 c 2
 613.33984375 605.91015625 609.809570312 605.91015625 597.9296875 605.91015625 c 0
 576.9296875 605.91015625 529.509765625 593.690429688 529.509765625 545.400390625 c 2
 529.509765625 -8.7001953125 l 1
 509.889648438 -8.7001953125 l 1
 112.26953125 563.900390625 l 1
 112.26953125 74.26953125 l 2
 112.26953125 25.990234375 159.690429688 13.76953125 180.690429688 13.76953125 c 0
 192.5703125 13.76953125 196.099609375 13.76953125 196.099609375 13.76953125 c 2
 200.139648438 13.76953125 203.58984375 10.41015625 203.58984375 6.1103515625 c 0
 203.58984375 2.9296875 203.58984375 0 203.58984375 0 c 1
 1.169921875 0 l 1
 1.169921875 0 1.169921875 3.8701171875 1.169921875 6.1103515625 c 0
 1.169921875 10.240234375 4.1796875 13.76953125 8.66015625 13.76953125 c 2
 23.98046875 13.76953125 l 2
 44.3798828125 13.76953125 92.490234375 25.990234375 92.490234375 74.26953125 c 2
 92.490234375 545.400390625 l 2
 92.490234375 593.6796875 45.0703125 605.91015625 24.0703125 605.91015625 c 0
 12.1904296875 605.91015625 8.66015625 605.91015625 8.66015625 605.91015625 c 2
 4.6201171875 605.91015625 1.169921875 609.26953125 1.169921875 613.5703125 c 0
 1.169921875 616.75 1.169921875 619.6796875 1.169921875 619.6796875 c 1
 151.360351562 619.6796875 l 1
 509.73046875 103.809570312 l 1
 509.73046875 545.400390625 l 2
 509.73046875 593.6796875 461.620117188 605.91015625 441.219726562 605.91015625 c 2
 425.900390625 605.91015625 l 2
 421.419921875 605.91015625 418.41015625 609.440429688 418.41015625 613.5703125 c 0
 418.41015625 615.809570312 418.41015625 619.6796875 418.41015625 619.6796875 c 1
 620.830078125 619.6796875 l 1
EndSplineSet
Validated: 1
EndChar

StartChar: O
Encoding: 33 79 14
Width: 538
VWidth: 0
Flags: W
HStem: -16.0303 21.0801<208.937 302.792> 613.22 20.3701<199.312 299.327>
VStem: 1.53027 65.71<161.501 453.985> 434.77 65.6904<170.219 456.784>
LayerCount: 2
Fore
SplineSet
251.009765625 633.58984375 m 0
 424.849609375 633.58984375 500.469726562 491.58984375 500.459960938 309.639648438 c 0
 500.459960938 196.08984375 465.150390625 -16.0302734375 243.450195312 -16.0302734375 c 0
 62.1904296875 -16.0302734375 1.5302734375 161.950195312 1.5302734375 309.639648438 c 0
 1.5302734375 434.48046875 50.6201171875 633.58984375 251.009765625 633.58984375 c 0
67.240234375 306.959960938 m 0
 67.240234375 150.3203125 136.139648438 5.0498046875 261.650390625 5.0498046875 c 0
 356.23046875 5.0498046875 434.76953125 148.530273438 434.76953125 306.959960938 c 0
 434.76953125 470.209960938 369.610351562 613.219726562 248.809570312 613.219726562 c 0
 123.700195312 613.219726562 67.240234375 450.4296875 67.240234375 306.959960938 c 0
EndSplineSet
Validated: 33
EndChar

StartChar: P
Encoding: 34 80 15
Width: 504
VWidth: 0
Flags: W
HStem: 0.00976562 13.7705<0.624689 46.9431 156.313 202.96> 221.36 19.71<134.1 258.134> 599.4 20.2793<1.66497 57.356 134.1 272.117>
VStem: 69.5596 64.54<20.8035 221.36 241.07 598.887>
LayerCount: 2
Fore
SplineSet
203 619.6796875 m 0
 289.450195312 619.6796875 386.599609375 614.419921875 443.809570312 504.809570312 c 0
 478.860351562 437.690429688 463.51953125 348.110351562 424.709960938 301.580078125 c 0
 360.849609375 225.01953125 298.580078125 221.360351562 166.049804688 221.360351562 c 2
 134.08984375 221.360351562 l 1
 134.08984375 74.2802734375 l 2
 134.08984375 26.0302734375 159.099609375 13.7802734375 180.099609375 13.7802734375 c 0
 191.98046875 13.7802734375 195.509765625 13.7802734375 195.509765625 13.7802734375 c 2
 199.559570312 13.7802734375 203 10.419921875 203 6.1201171875 c 0
 203 2.9404296875 203 0.009765625 203 0.009765625 c 1
 0.5703125 0.009765625 l 1
 0.5703125 0.009765625 0.5703125 3.8798828125 0.5703125 6.1201171875 c 0
 0.5703125 10.25 3.580078125 13.7802734375 8.0595703125 13.7802734375 c 2
 23.3798828125 13.7802734375 l 2
 43.75 13.7802734375 69.5595703125 26.0302734375 69.5595703125 74.2802734375 c 2
 69.5595703125 545.41015625 l 2
 69.5595703125 593.66015625 43.75 605.91015625 23.3798828125 605.91015625 c 2
 8.0595703125 605.91015625 l 2
 3.580078125 605.91015625 0.5703125 609.440429688 0.5703125 613.5703125 c 0
 0.5703125 615.809570312 0.5703125 619.6796875 0.5703125 619.6796875 c 1
 0.5703125 619.6796875 125.360351562 619.6796875 203 619.6796875 c 0
134.099609375 599.400390625 m 1
 134.099609375 241.0703125 l 1
 174.91015625 241.0703125 l 2
 352.290039062 241.0703125 397.240234375 342.139648438 397.240234375 420.349609375 c 0
 397.240234375 503.240234375 332.76953125 599.400390625 208.599609375 599.400390625 c 2
 134.099609375 599.400390625 l 1
EndSplineSet
Validated: 33
EndChar

StartChar: Q
Encoding: 35 81 16
Width: 544
VWidth: 0
Flags: W
HStem: -16.0098 20.3096<213.367 233.093> 612.7 20.3701<199.312 299.327>
VStem: 1.53027 65.71<163.203 453.839> 434.77 65.7002<167.581 457.494>
LayerCount: 2
Fore
SplineSet
291.639648438 -12.8095703125 m 1
 322.48046875 -71.490234375 372.200195312 -102.870117188 458.240234375 -122.51953125 c 0
 469.040039062 -124.990234375 473.299804688 -125.879882812 473.299804688 -125.879882812 c 2
 477.259765625 -126.740234375 479.9296875 -130.790039062 478.98046875 -134.919921875 c 0
 478.290039062 -138.099609375 477.690429688 -140.940429688 477.690429688 -140.940429688 c 1
 365.110351562 -140.940429688 271.240234375 -117.700195312 228.98046875 -16.009765625 c 1
 58.9296875 -7.6103515625 1.5302734375 165.9296875 1.5302734375 309.629882812 c 0
 1.5302734375 434.469726562 50.6201171875 633.0703125 251.009765625 633.0703125 c 0
 424.849609375 633.0703125 500.469726562 491.580078125 500.469726562 309.629882812 c 0
 500.469726562 204.919921875 470.200195312 13.76953125 291.639648438 -12.8095703125 c 1
67.240234375 306.959960938 m 0
 67.240234375 150.3203125 136.139648438 4.2998046875 261.650390625 4.2998046875 c 0
 356.23046875 4.2998046875 434.76953125 148.530273438 434.76953125 306.959960938 c 0
 434.76953125 470.200195312 369.610351562 612.700195312 248.809570312 612.700195312 c 0
 123.700195312 612.700195312 67.240234375 450.4296875 67.240234375 306.959960938 c 0
EndSplineSet
Validated: 1
EndChar

StartChar: R
Encoding: 36 82 17
Width: 609
VWidth: 0
Flags: W
HStem: 0 13.7695<1.17449 47.5192 156.851 203.51 523.211 564.839> 312.47 18.0303<134.645 227.08> 599.37 20.3096<2.21482 57.9399 134.61 279.498>
VStem: 70.1504 64.46<20.7846 310.79 330.5 598.895>
LayerCount: 2
Fore
SplineSet
435.940429688 519.719726562 m 0
 481.849609375 396.650390625 361.549804688 333.059570312 303.16015625 322.75 c 1
 463.41015625 82.1904296875 l 2
 475.629882812 64.2900390625 515.740234375 13.76953125 541.990234375 13.76953125 c 0
 553.870117188 13.76953125 557.309570312 13.76953125 557.309570312 13.76953125 c 2
 561.349609375 13.76953125 564.879882812 10.41015625 564.879882812 6.1103515625 c 0
 564.879882812 2.9296875 564.879882812 0 564.879882812 0 c 1
 439.48046875 0 l 1
 227.080078125 312.469726562 l 1
 197.51953125 310.629882812 134.599609375 310.790039062 134.599609375 310.790039062 c 1
 134.599609375 74.26953125 l 2
 134.599609375 25.990234375 159.650390625 13.76953125 180.650390625 13.76953125 c 0
 192.530273438 13.76953125 196.059570312 13.76953125 196.059570312 13.76953125 c 2
 200.110351562 13.76953125 203.549804688 10.41015625 203.549804688 6.1103515625 c 0
 203.549804688 2.9296875 203.549804688 0 203.549804688 0 c 1
 1.1201171875 0 l 1
 1.1201171875 0 1.1201171875 3.8701171875 1.1201171875 6.1103515625 c 0
 1.1201171875 10.240234375 4.1298828125 13.76953125 8.6103515625 13.76953125 c 2
 23.9296875 13.76953125 l 2
 44.330078125 13.76953125 70.150390625 25.990234375 70.150390625 74.26953125 c 2
 70.150390625 545.400390625 l 2
 70.150390625 593.690429688 44.330078125 605.91015625 23.9296875 605.91015625 c 2
 8.6103515625 605.91015625 l 2
 4.1298828125 605.91015625 1.1201171875 609.440429688 1.1201171875 613.5703125 c 0
 1.1201171875 615.809570312 1.1201171875 619.6796875 1.1201171875 619.6796875 c 1
 1.1201171875 619.6796875 125.919921875 619.6796875 203.549804688 619.6796875 c 0
 290.049804688 619.6796875 397.459960938 622.879882812 435.940429688 519.719726562 c 0
134.610351562 330.5 m 1
 175.490234375 330.5 l 2
 325.25 330.5 379.639648438 381.280273438 379.639648438 464.759765625 c 0
 379.639648438 547.639648438 315.5703125 599.370117188 209.139648438 599.370117188 c 2
 134.610351562 599.370117188 l 1
 134.610351562 330.5 l 1
EndSplineSet
Validated: 33
EndChar

StartChar: S
Encoding: 37 83 18
Width: 455
VWidth: 0
Flags: W
HStem: -16.04 24.7998<158.793 266.96> 613.53 19.8701<154.196 260.761>
VStem: 17.3301 61.8896<419.094 552.983> 355.66 57.1602<79.6805 215.755>
LayerCount: 2
Fore
SplineSet
347.26953125 471.099609375 m 2
 347.26953125 471.099609375 347 474.6796875 345.459960938 486.419921875 c 0
 330.709960938 598.709960938 249.450195312 613.530273438 200.08984375 613.530273438 c 0
 140.490234375 613.530273438 79.2197265625 568.759765625 79.2197265625 498.110351562 c 0
 79.2197265625 432.700195312 108.809570312 377.549804688 211.25 350.629882812 c 0
 331.549804688 319.01953125 412.8203125 278.870117188 412.8203125 159.5703125 c 0
 412.8203125 54.919921875 316.919921875 -16.0400390625 213.889648438 -16.0400390625 c 0
 118.879882812 -16.0400390625 55.3798828125 37.16015625 15.0595703125 107.059570312 c 1
 2.490234375 166.450195312 1.2001953125 217.450195312 1.2001953125 217.450195312 c 1
 1.2001953125 217.450195312 26.2900390625 219.580078125 29.5595703125 219.75 c 0
 33.7802734375 220.009765625 37.3896484375 216.740234375 37.5595703125 212.690429688 c 2
 37.5595703125 212.690429688 38.8896484375 199.830078125 40.83984375 188.08984375 c 0
 62.490234375 57.9296875 150.309570312 8.759765625 217.280273438 8.759765625 c 0
 272.400390625 8.759765625 355.66015625 61.5498046875 355.66015625 144.719726562 c 0
 355.66015625 223.73046875 305.919921875 259.049804688 197.379882812 286.849609375 c 0
 67.8203125 320.030273438 17.330078125 398.309570312 17.330078125 485.370117188 c 0
 17.330078125 566.009765625 99.009765625 633.400390625 208.830078125 633.400390625 c 0
 288.530273438 633.400390625 319.33984375 616.099609375 364.349609375 577.540039062 c 1
 379.759765625 540.620117188 378.889648438 467.370117188 378.889648438 467.370117188 c 1
 378.889648438 467.370117188 358.879882812 464.83984375 355.700195312 464.540039062 c 0
 351.139648438 464.129882812 347.690429688 466.969726562 347.26953125 471.099609375 c 2
EndSplineSet
Validated: 33
EndChar

StartChar: T
Encoding: 38 84 19
Width: 558
VWidth: 0
Flags: W
HStem: 0.00976562 13.7705<154.844 201.189 310.527 357.191> 599.88 19.7998<45.5137 223.82 288.28 466.476>
VStem: 3.91016 13.7695<508.614 562.012> 223.82 64.46<20.795 599.88> 494.31 13.7705<508.625 562.022>
LayerCount: 2
Fore
SplineSet
508.080078125 619.6796875 m 1
 508.080078125 508.5703125 l 1
 508.080078125 508.5703125 504.209960938 508.5703125 501.969726562 508.5703125 c 0
 497.83984375 508.5703125 494.309570312 511.580078125 494.309570312 516.059570312 c 2
 494.309570312 531.379882812 l 2
 494.309570312 551.780273438 482 599.889648438 433.799804688 599.889648438 c 2
 288.280273438 599.889648438 l 1
 288.280273438 74.2802734375 l 2
 288.280273438 26 313.3203125 13.7802734375 334.330078125 13.7802734375 c 0
 346.209960938 13.7802734375 349.740234375 13.7802734375 349.740234375 13.7802734375 c 2
 353.790039062 13.7802734375 357.23046875 10.419921875 357.23046875 6.1201171875 c 0
 357.23046875 2.9404296875 357.23046875 0.009765625 357.23046875 0.009765625 c 1
 154.790039062 0.009765625 l 1
 154.790039062 0.009765625 154.790039062 3.8798828125 154.790039062 6.1201171875 c 0
 154.790039062 10.25 157.799804688 13.7802734375 162.280273438 13.7802734375 c 2
 177.599609375 13.7802734375 l 2
 198 13.7802734375 223.8203125 26 223.8203125 74.2802734375 c 2
 223.8203125 599.879882812 l 1
 78.1904296875 599.879882812 l 2
 29.990234375 599.879882812 17.6796875 551.76953125 17.6796875 531.370117188 c 2
 17.6796875 516.049804688 l 2
 17.6796875 511.5703125 14.150390625 508.559570312 10.01953125 508.559570312 c 0
 7.7802734375 508.559570312 3.91015625 508.559570312 3.91015625 508.559570312 c 1
 3.91015625 619.6796875 l 1
 508.080078125 619.6796875 l 1
EndSplineSet
Validated: 1
EndChar

StartChar: U
Encoding: 39 85 20
Width: 584
VWidth: 0
Flags: W
HStem: -16.04 17.3096<230.285 344.002> 605.91 13.7695<1.38445 47.7292 157.056 203.72 358.295 411.692 506.903 560.64>
VStem: 70.2695 64.54<69.724 598.892> 449.56 19.8008<104.302 578.111>
LayerCount: 2
Fore
SplineSet
274.349609375 -16.0400390625 m 0
 154.400390625 -16.0400390625 70.26953125 31.6298828125 70.26953125 170.299804688 c 2
 70.3603515625 545.400390625 l 2
 70.3603515625 593.690429688 44.5400390625 605.91015625 24.1396484375 605.91015625 c 2
 8.8203125 605.91015625 l 2
 4.33984375 605.91015625 1.330078125 609.440429688 1.330078125 613.5703125 c 0
 1.330078125 615.809570312 1.330078125 619.6796875 1.330078125 619.6796875 c 1
 203.759765625 619.6796875 l 1
 203.759765625 619.6796875 203.759765625 616.75 203.759765625 613.5703125 c 0
 203.759765625 609.26953125 200.309570312 605.91015625 196.26953125 605.91015625 c 2
 196.26953125 605.91015625 192.740234375 605.91015625 180.860351562 605.91015625 c 0
 159.849609375 605.91015625 134.809570312 593.6796875 134.809570312 545.400390625 c 2
 134.809570312 167.98046875 l 2
 134.809570312 41.169921875 208.469726562 1.26953125 285.4296875 1.26953125 c 0
 356.110351562 1.26953125 449.559570312 30.419921875 449.559570312 172.540039062 c 2
 449.559570312 545.400390625 l 2
 449.559570312 593.690429688 401.450195312 605.91015625 381.049804688 605.91015625 c 2
 365.73046875 605.91015625 l 2
 361.25 605.91015625 358.240234375 609.440429688 358.240234375 613.5703125 c 0
 358.240234375 615.809570312 358.240234375 619.6796875 358.240234375 619.6796875 c 1
 560.6796875 619.6796875 l 1
 560.6796875 619.6796875 560.6796875 616.75 560.6796875 613.5703125 c 0
 560.6796875 609.26953125 557.240234375 605.91015625 553.190429688 605.91015625 c 2
 553.190429688 605.91015625 549.66015625 605.91015625 537.780273438 605.91015625 c 0
 516.780273438 605.91015625 469.360351562 593.6796875 469.360351562 545.400390625 c 2
 469.360351562 172.540039062 l 2
 469.360351562 48.349609375 412.400390625 -16.0400390625 274.349609375 -16.0400390625 c 0
EndSplineSet
Validated: 1
EndChar

StartChar: V
Encoding: 40 86 21
Width: 630
VWidth: 0
Flags: W
HStem: 605.91 13.7695<0.810057 52.5537 165.032 203.146 392.856 455.324 540.131 595.191>
LayerCount: 2
Fore
SplineSet
336.580078125 -16.0400390625 m 1
 294.200195312 -16.0400390625 l 1
 95.1796875 545.580078125 l 2
 87.8603515625 565.98046875 68.099609375 605.91015625 23.66015625 605.91015625 c 0
 11.7802734375 605.91015625 8.33984375 605.91015625 8.33984375 605.91015625 c 2
 4.2900390625 605.91015625 0.76953125 609.26953125 0.76953125 613.5703125 c 0
 0.76953125 616.75 0.76953125 619.6796875 0.76953125 619.6796875 c 1
 203.200195312 619.6796875 l 1
 203.200195312 619.6796875 203.200195312 615.809570312 203.200195312 613.5703125 c 0
 203.200195312 609.440429688 200.190429688 605.91015625 195.709960938 605.91015625 c 2
 187.959960938 605.91015625 l 2
 147.58984375 605.91015625 154.740234375 572.169921875 165.83984375 540.759765625 c 2
 336.76953125 56 l 1
 473.790039062 541.26953125 l 2
 483.51953125 572.6796875 470.690429688 605.91015625 426.709960938 605.91015625 c 0
 410.790039062 605.91015625 400.290039062 605.91015625 400.290039062 605.91015625 c 2
 395.900390625 605.91015625 392.799804688 609.440429688 392.799804688 613.5703125 c 0
 392.799804688 615.809570312 392.799804688 619.6796875 392.799804688 619.6796875 c 1
 595.23046875 619.6796875 l 1
 595.23046875 619.6796875 595.23046875 616.75 595.23046875 613.5703125 c 0
 595.23046875 609.26953125 591.790039062 605.91015625 587.740234375 605.91015625 c 2
 587.740234375 605.91015625 584.209960938 605.91015625 572.330078125 605.91015625 c 0
 522.099609375 605.91015625 502.530273438 565.799804688 495.990234375 545.400390625 c 2
 336.580078125 -16.0400390625 l 1
EndSplineSet
Validated: 33
EndChar

StartChar: W
Encoding: 41 87 22
Width: 879
VWidth: 0
Flags: W
HStem: 605.91 13.7695<1.24083 54.0691 165.462 203.576 240.38 290.598 404.551 455.847 539.934 595.63 632.426 694.893 780.019 834.77>
LayerCount: 2
Fore
SplineSet
632.370117188 619.6796875 m 2
 834.809570312 619.6796875 l 1
 834.809570312 619.6796875 834.809570312 616.75 834.809570312 613.5703125 c 0
 834.809570312 609.26953125 831.360351562 605.91015625 827.3203125 605.91015625 c 2
 827.3203125 605.91015625 823.790039062 605.91015625 811.91015625 605.91015625 c 0
 762.41015625 605.91015625 742.110351562 565.799804688 735.5703125 545.400390625 c 2
 576.169921875 -16.0400390625 l 1
 533.740234375 -16.0400390625 l 1
 424.530273438 299.41015625 l 1
 337.030273438 -16.0302734375 l 1
 294.599609375 -16.0302734375 l 1
 95.6103515625 545.580078125 l 2
 88.2998046875 565.969726562 71.099609375 605.91015625 24.08984375 605.91015625 c 0
 12.2099609375 605.91015625 8.76953125 605.91015625 8.76953125 605.91015625 c 2
 4.73046875 605.91015625 1.2001953125 609.26953125 1.2001953125 613.5703125 c 0
 1.2001953125 616.75 1.2001953125 619.6796875 1.2001953125 619.6796875 c 1
 203.629882812 619.6796875 l 1
 203.629882812 619.6796875 203.629882812 615.809570312 203.629882812 613.5703125 c 0
 203.629882812 609.440429688 200.620117188 605.91015625 196.139648438 605.91015625 c 2
 188.389648438 605.91015625 l 2
 148.01953125 605.91015625 155.169921875 572.169921875 166.26953125 540.759765625 c 2
 337.200195312 55.919921875 l 1
 412.91015625 331.280273438 l 1
 334.75 545.580078125 l 2
 327.440429688 565.969726562 304.049804688 605.91015625 263.23046875 605.91015625 c 0
 251.349609375 605.91015625 247.91015625 605.91015625 247.91015625 605.91015625 c 2
 243.870117188 605.91015625 240.33984375 609.26953125 240.33984375 613.5703125 c 0
 240.33984375 616.75 240.33984375 619.6796875 240.33984375 619.6796875 c 1
 393.23046875 619.6796875 l 1
 442.76953125 619.6796875 l 1
 595.669921875 619.6796875 l 1
 595.669921875 619.6796875 595.669921875 616.75 595.669921875 613.5703125 c 0
 595.669921875 609.26953125 592.219726562 605.91015625 588.1796875 605.91015625 c 2
 588.1796875 605.91015625 584.650390625 605.91015625 572.76953125 605.91015625 c 0
 521.030273438 605.91015625 502.969726562 565.799804688 496.4296875 545.400390625 c 2
 455.1796875 388.240234375 l 1
 576.33984375 55.919921875 l 1
 713.360351562 541.26953125 l 2
 723.080078125 572.690429688 710.259765625 605.91015625 666.280273438 605.91015625 c 0
 650.360351562 605.91015625 639.860351562 605.91015625 639.860351562 605.91015625 c 2
 635.469726562 605.91015625 632.370117188 609.440429688 632.370117188 613.5703125 c 0
 632.370117188 615.809570312 632.370117188 619.6796875 632.370117188 619.6796875 c 2
405.41015625 540.759765625 m 2
 443.540039062 420.16015625 l 1
 474.219726562 541.26953125 l 2
 483.9296875 572.639648438 471.150390625 605.790039062 427.349609375 605.900390625 c 0
 387.200195312 605.790039062 394.330078125 572.120117188 405.41015625 540.759765625 c 2
EndSplineSet
Validated: 33
EndChar

StartChar: X
Encoding: 42 88 23
Width: 586
VWidth: 0
Flags: W
HStem: 0 13.7695<1.29939 57.5632 153.114 203.646 340.349 382.845 499.237 542.705> 605.9 13.7695<1.31414 44.7632 161.155 203.651 325.904 377.693 471.997 528.238>
LayerCount: 2
Fore
SplineSet
137.400390625 70.8603515625 m 2
 113.4296875 28.98046875 160.51953125 13.76953125 180.889648438 13.76953125 c 2
 196.209960938 13.76953125 l 2
 200.690429688 13.76953125 203.700195312 10.240234375 203.700195312 6.1103515625 c 0
 203.700195312 3.8701171875 203.700195312 0 203.700195312 0 c 1
 1.259765625 0 l 1
 1.259765625 0 1.259765625 2.9296875 1.259765625 6.1103515625 c 0
 1.259765625 10.41015625 4.7001953125 13.76953125 8.75 13.76953125 c 2
 8.75 13.76953125 12.2802734375 13.76953125 24.16015625 13.76953125 c 0
 63.900390625 13.76953125 96.2001953125 38.849609375 120.169921875 80.7197265625 c 2
 244.58984375 292.809570312 l 1
 111.400390625 514.549804688 l 2
 86.5 555.879882812 55.9697265625 605.900390625 24.0703125 605.900390625 c 2
 8.75 605.900390625 l 2
 4.26953125 605.900390625 1.259765625 609.4296875 1.259765625 613.559570312 c 0
 1.259765625 615.799804688 1.259765625 619.669921875 1.259765625 619.669921875 c 1
 203.690429688 619.669921875 l 1
 203.690429688 619.669921875 203.690429688 616.740234375 203.690429688 613.559570312 c 0
 203.690429688 609.259765625 200.25 605.900390625 196.200195312 605.900390625 c 2
 196.200195312 605.900390625 192.669921875 605.900390625 180.790039062 605.900390625 c 0
 159.790039062 605.900390625 141.759765625 589.1796875 166.669921875 547.860351562 c 2
 281.4296875 356.790039062 l 1
 392.150390625 548.990234375 l 2
 416.120117188 590.870117188 369.030273438 606.080078125 348.66015625 606.080078125 c 2
 333.33984375 606.080078125 l 2
 328.860351562 606.080078125 325.849609375 609.610351562 325.849609375 613.740234375 c 0
 325.849609375 615.98046875 325.849609375 619.849609375 325.849609375 619.849609375 c 1
 528.299804688 619.849609375 l 1
 528.299804688 619.849609375 528.299804688 616.919921875 528.299804688 613.740234375 c 0
 528.299804688 609.440429688 524.860351562 606.080078125 520.809570312 606.080078125 c 2
 520.809570312 606.080078125 517.280273438 606.080078125 505.400390625 606.080078125 c 0
 465.66015625 606.080078125 433.360351562 581 409.389648438 539.129882812 c 2
 292.059570312 339.120117188 l 1
 432.599609375 105.129882812 l 2
 457.5 63.7998046875 488.030273438 13.7802734375 519.9296875 13.7802734375 c 2
 535.25 13.7802734375 l 2
 539.73046875 13.7802734375 542.740234375 10.25 542.740234375 6.1201171875 c 0
 542.740234375 3.8798828125 542.740234375 0.009765625 542.740234375 0.009765625 c 1
 340.309570312 0.009765625 l 1
 340.309570312 0.009765625 340.309570312 2.9404296875 340.309570312 6.1201171875 c 0
 340.309570312 10.419921875 343.75 13.7802734375 347.799804688 13.7802734375 c 2
 347.799804688 13.7802734375 351.330078125 13.7802734375 363.209960938 13.7802734375 c 0
 384.209960938 13.7802734375 402.240234375 30.5 377.330078125 71.8203125 c 2
 254.860351562 275.709960938 l 1
 137.400390625 70.8603515625 l 2
EndSplineSet
Validated: 33
EndChar

StartChar: Y
Encoding: 43 89 24
Width: 638
VWidth: 0
Flags: W
HStem: 0.00976562 13.7705<187.524 233.847 343.214 389.861> 605.91 13.7695<0.794611 44.9812 152.237 203.14 390.884 444.302 537.008 593.21>
VStem: 256.47 64.5205<20.8035 248.21>
LayerCount: 2
Fore
SplineSet
390.830078125 619.6796875 m 2
 593.25 619.6796875 l 1
 593.25 619.6796875 593.25 616.75 593.25 613.5703125 c 0
 593.25 609.26953125 589.799804688 605.91015625 585.759765625 605.91015625 c 2
 585.759765625 605.91015625 582.23046875 605.91015625 570.349609375 605.91015625 c 0
 526.01953125 605.91015625 508.110351562 580.8203125 484.309570312 538.849609375 c 2
 320.950195312 250.849609375 l 1
 320.990234375 74.2802734375 l 2
 320.990234375 26.0302734375 346 13.7802734375 367 13.7802734375 c 0
 378.879882812 13.7802734375 382.41015625 13.7802734375 382.41015625 13.7802734375 c 2
 386.459960938 13.7802734375 389.900390625 10.419921875 389.900390625 6.1201171875 c 0
 389.900390625 2.9404296875 389.900390625 0.009765625 389.900390625 0.009765625 c 1
 187.469726562 0.009765625 l 1
 187.469726562 0.009765625 187.469726562 3.8798828125 187.469726562 6.1201171875 c 0
 187.469726562 10.25 190.48046875 13.7802734375 194.959960938 13.7802734375 c 2
 210.280273438 13.7802734375 l 2
 230.650390625 13.7802734375 256.469726562 26.0302734375 256.469726562 74.2802734375 c 2
 256.4296875 248.209960938 l 1
 100.150390625 528 l 2
 76.5400390625 570.080078125 53.849609375 605.91015625 23.5498046875 605.91015625 c 2
 8.23046875 605.91015625 l 2
 3.75 605.91015625 0.740234375 609.440429688 0.740234375 613.5703125 c 0
 0.740234375 615.809570312 0.740234375 619.6796875 0.740234375 619.6796875 c 1
 203.1796875 619.6796875 l 1
 203.1796875 619.6796875 203.1796875 616.75 203.1796875 613.5703125 c 0
 203.1796875 609.26953125 199.73046875 605.91015625 195.690429688 605.91015625 c 2
 195.690429688 605.91015625 192.16015625 605.91015625 180.280273438 605.91015625 c 0
 159.280273438 605.91015625 132.830078125 601.650390625 156.440429688 559.5703125 c 2
 313.629882812 278.150390625 l 1
 467.059570312 548.639648438 l 2
 490.870117188 590.610351562 434.009765625 605.91015625 413.639648438 605.91015625 c 2
 398.3203125 605.91015625 l 2
 393.83984375 605.91015625 390.830078125 609.440429688 390.830078125 613.5703125 c 0
 390.830078125 615.809570312 390.830078125 619.6796875 390.830078125 619.6796875 c 2
EndSplineSet
Validated: 33
EndChar

StartChar: Z
Encoding: 44 90 25
Width: 477
VWidth: 0
Flags: W
HStem: 0 19.79<76.1299 391.75> 599.89 19.79<57.5699 341.9>
VStem: 15.9697 13.7705<508.625 562.022> 419.58 13.7695<57.6583 111.056>
LayerCount: 2
Fore
SplineSet
433.349609375 0 m 1
 0.650390625 0 l 1
 0.650390625 19.6201171875 l 1
 341.900390625 599.889648438 l 1
 90.240234375 599.889648438 l 2
 42.0498046875 599.889648438 29.740234375 551.780273438 29.740234375 531.379882812 c 2
 29.740234375 516.059570312 l 2
 29.740234375 511.580078125 26.2099609375 508.5703125 22.080078125 508.5703125 c 0
 19.83984375 508.5703125 15.9697265625 508.5703125 15.9697265625 508.5703125 c 1
 15.9697265625 619.6796875 l 1
 428.400390625 619.6796875 l 1
 76.1298828125 19.7900390625 l 1
 359.080078125 19.7900390625 l 2
 407.26953125 19.7900390625 419.580078125 67.900390625 419.580078125 88.2998046875 c 2
 419.580078125 103.620117188 l 2
 419.580078125 108.099609375 423.110351562 111.110351562 427.240234375 111.110351562 c 0
 429.48046875 111.110351562 433.349609375 111.110351562 433.349609375 111.110351562 c 1
 433.349609375 0 l 1
EndSplineSet
Validated: 1
EndChar

StartChar: comma
Encoding: 2 44 26
Width: 142
VWidth: 0
Flags: W
HStem: -23.8799 90.3203<7.37803 65.2754>
VStem: 0.839844 90.3203<-16.9179 59.9016>
LayerCount: 2
Fore
SplineSet
46 66.4404296875 m 0
 70.9404296875 66.4404296875 91.16015625 46.2197265625 91.16015625 21.26953125 c 0
 91.16015625 4.580078125 90.7998046875 -4.23046875 85.240234375 -20.6298828125 c 0
 77.2197265625 -44.1796875 53.4501953125 -56.599609375 25.9296875 -72.0595703125 c 1
 23.1103515625 -66.7099609375 24.490234375 -69.099609375 23.330078125 -66.8603515625 c 0
 22.169921875 -64.6904296875 18.7099609375 -56.740234375 27.23046875 -52.48046875 c 0
 28.599609375 -51.759765625 30.83984375 -50.669921875 32.8603515625 -49.58984375 c 0
 42.98046875 -44.3203125 57.91015625 -32.7197265625 65.2802734375 -19.5703125 c 1
 65.2802734375 -19.5703125 58.5703125 -23.76953125 46 -23.8798828125 c 0
 21.0595703125 -24.08984375 0.83984375 -3.66015625 0.83984375 21.2802734375 c 0
 0.83984375 46.2197265625 21.0595703125 66.4404296875 46 66.4404296875 c 0
EndSplineSet
Validated: 33
EndChar

StartChar: hyphen
Encoding: 3 45 27
Width: 276
VWidth: 0
Flags: W
HStem: 183.72 64.6104<0.799805 217.2>
VStem: 0.799805 216.4<183.72 248.33>
LayerCount: 2
Fore
SplineSet
217.200195312 183.719726562 m 1
 1.6904296875 183.719726562 l 2
 1.2001953125 183.719726562 0.7998046875 184.120117188 0.7998046875 184.610351562 c 2
 0.7998046875 248.330078125 l 1
 216.309570312 248.330078125 l 2
 216.799804688 248.330078125 217.200195312 247.9296875 217.200195312 247.440429688 c 2
 217.200195312 183.719726562 l 1
EndSplineSet
Validated: 1
EndChar

StartChar: period
Encoding: 4 46 28
Width: 162
VWidth: 0
Flags: W
HStem: -16.1504 90.3203<7.3778 84.6222>
VStem: 0.839844 90.3203<-9.61244 67.632>
LayerCount: 2
Fore
SplineSet
0.83984375 29.009765625 m 0
 0.83984375 53.951171875 21.05859375 74.169921875 46 74.169921875 c 0
 70.94140625 74.169921875 91.16015625 53.951171875 91.16015625 29.009765625 c 0
 91.16015625 4.068359375 70.94140625 -16.150390625 46 -16.150390625 c 0
 21.05859375 -16.150390625 0.83984375 4.068359375 0.83984375 29.009765625 c 0
EndSplineSet
Validated: 1
EndChar

StartChar: slash
Encoding: 5 47 29
Width: 245
VWidth: 0
Flags: W
VStem: 0.849609 202.301
LayerCount: 2
Fore
SplineSet
177.26953125 612.549804688 m 2
 180.610351562 624.349609375 181.8203125 628.629882812 181.8203125 628.629882812 c 2
 183.110351562 632.469726562 188.33984375 634.559570312 192.33984375 633.16015625 c 0
 195.4296875 632.129882812 203.150390625 629.150390625 203.150390625 629.150390625 c 1
 24.330078125 -0.7197265625 l 1
 21.509765625 -10.66015625 l 2
 20.3603515625 -14.5498046875 16.080078125 -16.9501953125 12.01953125 -15.7001953125 c 0
 8.8896484375 -14.7802734375 0.849609375 -12.4501953125 0.849609375 -12.4501953125 c 1
 177.26953125 612.549804688 l 2
EndSplineSet
Validated: 1
EndChar

StartChar: zero
Encoding: 6 48 30
Width: 494
VWidth: 0
Flags: W
HStem: -16.0498 19.8301<199.476 275.589> 613.8 19.8799<183.216 279.068>
VStem: 1.11035 64.6094<172.294 470.659> 384.28 64.6094<144.687 484.558>
LayerCount: 2
Fore
SplineSet
448.889648438 318.940429688 m 0
 448.889648438 129.4296875 395.16015625 -16.0595703125 241.349609375 -16.0498046875 c 0
 85.7802734375 -16.0498046875 1.1103515625 117.240234375 1.1103515625 314.389648438 c 0
 1.1103515625 550.830078125 108.1796875 633.6796875 239.1796875 633.6796875 c 0
 352.509765625 633.6796875 448.889648438 560.830078125 448.889648438 318.940429688 c 0
65.7197265625 322.059570312 m 0
 65.7197265625 135.650390625 150.280273438 3.7802734375 234.240234375 3.7802734375 c 0
 317.169921875 3.7802734375 384.280273438 93.9404296875 384.280273438 318.9296875 c 0
 384.280273438 468.98046875 349.790039062 613.799804688 232.8203125 613.799804688 c 0
 109.990234375 613.799804688 65.7197265625 474.990234375 65.7197265625 322.059570312 c 0
EndSplineSet
Validated: 33
EndChar

StartChar: one
Encoding: 7 49 31
Width: 274
VWidth: 0
Flags: W
HStem: 0.0195312 13.7705<22.8141 69.0912 178.491 225.151> 519.94 13.7695<0.863963 63.657> 599.69 20G<110.2 156.24>
VStem: 91.7002 64.54<20.8048 519.94 543.504 619.398>
LayerCount: 2
Fore
SplineSet
28.349609375 533.709960938 m 2
 65.91015625 533.709960938 91.7802734375 548.299804688 91.7802734375 594.389648438 c 0
 91.7802734375 608.330078125 103.23046875 619.690429688 117.169921875 619.690429688 c 2
 156.240234375 619.690429688 l 1
 156.240234375 74.2900390625 l 2
 156.240234375 26.009765625 181.290039062 13.7900390625 202.290039062 13.7900390625 c 0
 214.169921875 13.7900390625 217.700195312 13.7900390625 217.700195312 13.7900390625 c 2
 221.75 13.7900390625 225.190429688 10.4296875 225.190429688 6.1298828125 c 0
 225.190429688 2.9501953125 225.190429688 0.01953125 225.190429688 0.01953125 c 1
 22.759765625 0.01953125 l 1
 22.759765625 0.01953125 22.759765625 3.8896484375 22.759765625 6.1298828125 c 0
 22.759765625 10.259765625 25.76953125 13.7900390625 30.25 13.7900390625 c 2
 45.5703125 13.7900390625 l 2
 65.8798828125 13.7900390625 91.7001953125 26.009765625 91.7001953125 74.2900390625 c 2
 91.7001953125 519.940429688 l 1
 0.8095703125 519.940429688 l 1
 0.8095703125 519.940429688 0.8095703125 523.809570312 0.8095703125 526.049804688 c 0
 0.8095703125 530.1796875 3.8203125 533.709960938 8.2998046875 533.709960938 c 2
 28.349609375 533.709960938 l 2
EndSplineSet
Validated: 1
EndChar

StartChar: two
Encoding: 8 50 32
Width: 457
VWidth: 0
Flags: W
HStem: 0 64.6104<47.7695 396.34> 614.18 19.3701<135.31 257.555>
VStem: 9.38965 51.3203<523.682 554.797> 341.96 68.5801<405.272 560.708>
LayerCount: 2
Fore
SplineSet
9.3896484375 492.740234375 m 0
 9.3896484375 518.599609375 18.1904296875 541.9296875 44.169921875 570.25 c 0
 74.2001953125 602.98046875 127.080078125 633.549804688 208.440429688 633.549804688 c 0
 312.129882812 633.549804688 410.540039062 597.900390625 410.540039062 488.599609375 c 0
 410.540039062 402.780273438 345.620117188 343.700195312 307.41015625 308.5 c 2
 47.76953125 64.6103515625 l 1
 338.5 64.6103515625 l 2
 358.73046875 64.5302734375 403.049804688 64.4404296875 403.049804688 64.4404296875 c 2
 407.76953125 64.4404296875 411.58984375 60.9501953125 410.540039062 56.7802734375 c 0
 409.66015625 53.259765625 396.33984375 0 396.33984375 0 c 1
 1.2900390625 0 l 1
 1.2900390625 48.2001953125 l 1
 228.25 261.219726562 l 2
 259.0703125 290.830078125 298.139648438 323.620117188 315.870117188 353.830078125 c 0
 334.030273438 384.8203125 341.959960938 413.459960938 341.959960938 485.25 c 0
 341.959960938 587.799804688 262.809570312 614.1796875 194 614.1796875 c 0
 104.120117188 614.1796875 67.23046875 563.099609375 63.5 548.969726562 c 0
 60.51953125 537.709960938 60.6904296875 525.0703125 60.7099609375 523.799804688 c 0
 60.669921875 523.75 60.6298828125 523.719726562 60.58984375 523.6796875 c 1
 71.76953125 517.8203125 79.490234375 506.240234375 79.490234375 492.740234375 c 0
 79.490234375 473.379882812 63.7998046875 457.690429688 44.4404296875 457.690429688 c 0
 25.080078125 457.690429688 9.3896484375 473.379882812 9.3896484375 492.740234375 c 0
EndSplineSet
Validated: 1
EndChar

StartChar: three
Encoding: 9 51 33
Width: 424
VWidth: 0
Flags: W
HStem: -16.0303 19.8604<103.03 220.025> 325.03 20.0693<156.27 199.95> 613.81 19.79<121.711 228.608>
VStem: 1.32031 50.3193<42.9264 70.8604> 19.25 69.6797<488.734 552.626> 299.29 64.6104<418.064 560.297> 310.07 64.6201<84.8457 255.367>
LayerCount: 2
Fore
SplineSet
226.639648438 333.209960938 m 1xec
 286.440429688 333.209960938 374.6796875 276.299804688 374.690429688 179.860351562 c 0
 374.690429688 7.169921875 220.530273438 -16.0302734375 171.919921875 -16.0302734375 c 0
 82.7998046875 -16.0302734375 19.6298828125 28.759765625 5.169921875 74.0400390625 c 0
 1.76953125 84.7099609375 1.3203125 92.830078125 1.3203125 102.75 c 0
 1.51953125 121.940429688 17.099609375 137.450195312 36.33984375 137.450195312 c 0
 55.7001953125 137.450195312 71.3896484375 121.759765625 71.3896484375 102.400390625 c 0
 71.3896484375 88.509765625 63.240234375 76.6103515625 51.51953125 70.9404296875 c 1
 51.6396484375 70.8603515625 l 1
 52.5703125 17.2099609375 110.16015625 3.830078125 163.469726562 3.830078125 c 0
 279 3.830078125 310.0703125 105.01953125 310.0703125 174.450195312 c 0xf2
 310.0703125 294.6796875 218.240234375 325.030273438 156.26953125 325.030273438 c 1
 156.26953125 345.099609375 l 1
 228.419921875 345.099609375 299.290039062 421.25 299.290039062 474.709960938 c 0
 299.290039062 588.23046875 233.76953125 613.809570312 173.799804688 613.809570312 c 0
 118.5 613.809570312 74.6796875 585.299804688 68.66015625 552.8203125 c 0
 68.5498046875 552.83984375 68.4404296875 552.870117188 68.330078125 552.889648438 c 1
 80.4599609375 547.370117188 88.9296875 535.219726562 88.9296875 521.030273438 c 0
 88.9296875 501.669921875 73.240234375 485.98046875 53.8798828125 485.98046875 c 0
 35.9404296875 485.98046875 21.3095703125 499.51953125 19.25 516.91015625 c 0
 17.3896484375 527.66015625 19 540.469726562 22.0498046875 549.799804688 c 0
 41.8095703125 610.23046875 114 633.599609375 172.900390625 633.599609375 c 0
 299.669921875 633.599609375 363.900390625 573.790039062 363.900390625 479.6796875 c 0
 363.900390625 402.690429688 292.01953125 333.209960938 226.639648438 333.209960938 c 1xec
EndSplineSet
Validated: 33
EndChar

StartChar: four
Encoding: 10 52 34
Width: 476
VWidth: 0
Flags: W
HStem: 0.0302734 13.7695<212.674 258.951 368.351 415.01> 186.01 19.8799<27.0596 281.56 346.1 424.5> 599.7 20G<338.81 346.1>
VStem: 281.56 64.54<20.8146 186 205.9 524.77>
LayerCount: 2
Fore
SplineSet
1.669921875 205.889648438 m 1
 325.759765625 611.91015625 l 2
 329.700195312 616.830078125 335.66015625 619.700195312 341.959960938 619.700195312 c 2
 346.099609375 619.700195312 l 1
 346.099609375 205.900390625 l 1
 395.759765625 205.900390625 417.009765625 205.900390625 417.009765625 205.900390625 c 2
 421.059570312 205.900390625 424.5 202.540039062 424.5 198.240234375 c 0
 424.5 195.059570312 424.5 186 424.5 186 c 1
 346.099609375 186 l 1
 346.099609375 74.2998046875 l 2
 346.099609375 26.01953125 371.150390625 13.7998046875 392.150390625 13.7998046875 c 0
 404.030273438 13.7998046875 407.559570312 13.7998046875 407.559570312 13.7998046875 c 2
 411.610351562 13.7998046875 415.049804688 10.4404296875 415.049804688 6.1396484375 c 0
 415.049804688 2.9599609375 415.049804688 0.0302734375 415.049804688 0.0302734375 c 1
 212.620117188 0.0302734375 l 1
 212.620117188 0.0302734375 212.620117188 3.900390625 212.620117188 6.1396484375 c 0
 212.620117188 10.26953125 215.629882812 13.7998046875 220.110351562 13.7998046875 c 2
 235.4296875 13.7998046875 l 2
 255.740234375 13.7998046875 281.559570312 26.01953125 281.559570312 74.2998046875 c 2
 281.559570312 186.009765625 l 1
 1.5 186.009765625 l 1
 1.5 205.629882812 l 1
 1.669921875 205.889648438 l 1
281.559570312 205.889648438 m 1
 281.559570312 524.76953125 l 1
 27.0595703125 205.889648438 l 1
 281.559570312 205.889648438 l 1
EndSplineSet
Validated: 1
EndChar

StartChar: five
Encoding: 11 53 35
Width: 457
VWidth: 0
Flags: W
HStem: -16.0195 19.8096<103.894 232.399> 388.27 20.1006<66.596 221.677> 555.09 64.6104<42.4902 344.874>
VStem: 1.17969 70.1006<72.9257 135.326> 22.5996 19.8906<391.62 555.09> 334.86 69.96<107.134 301.369>
LayerCount: 2
Fore
SplineSet
1.1796875 103.030273438 m 0xf4
 1.1796875 122.389648438 16.8701171875 138.080078125 36.23046875 138.080078125 c 0
 55.58984375 138.080078125 71.2802734375 122.389648438 71.2802734375 103.030273438 c 0xf4
 71.2802734375 89.9404296875 64.01953125 78.66015625 53.3798828125 72.6396484375 c 1
 58.6904296875 27.1796875 100.900390625 3.7900390625 168.490234375 3.7900390625 c 0
 297.419921875 3.7900390625 334.860351562 86.25 334.860351562 216.780273438 c 0
 334.860351562 378.309570312 198.6796875 388.26953125 145.459960938 388.26953125 c 0
 94.990234375 388.26953125 64.150390625 381.259765625 22.599609375 360.280273438 c 1
 22.599609375 619.700195312 l 1
 355.75 619.700195312 l 1
 340.940429688 560.450195312 l 2
 340.150390625 557.299804688 337.3203125 555.08984375 334.0703125 555.08984375 c 2
 42.490234375 555.08984375 l 1
 42.490234375 391.620117188 l 1xec
 76.4697265625 405.240234375 112.379882812 408.370117188 155.370117188 408.370117188 c 0
 222.110351562 408.370117188 404.8203125 387.099609375 404.8203125 210.9296875 c 0
 404.8203125 40.759765625 270.040039062 -16.01953125 168.490234375 -16.01953125 c 0
 68.51953125 -16.009765625 1.1796875 43.73046875 1.1796875 103.030273438 c 0xf4
EndSplineSet
Validated: 1
EndChar

StartChar: six
Encoding: 12 54 36
Width: 435
VWidth: 0
Flags: W
HStem: -16.0898 20.3994<161.596 254.393> 378.83 19.5098<163.611 251.409> 621.49 11.8994<340.035 355.347>
VStem: 1.5498 72.8506<116.852 333.966> 331.79 64.6699<92.851 300.646>
LayerCount: 2
Fore
SplineSet
356.629882812 621.490234375 m 1
 239.98046875 585.540039062 91.919921875 524.370117188 64.9599609375 313.110351562 c 1
 74.400390625 336 123.879882812 398.33984375 210.709960938 398.33984375 c 0
 342.690429688 398.33984375 396.459960938 294.040039062 396.459960938 202.5 c 0
 396.459960938 36.33984375 287.099609375 -16.08984375 205.66015625 -16.08984375 c 0
 112.280273438 -16.08984375 1.5498046875 41.1201171875 1.5498046875 257.950195312 c 0
 1.5498046875 479.5 197.3203125 599.639648438 331.41015625 630.23046875 c 0
 339.26953125 632.030273438 341.860351562 632.580078125 346.540039062 633.389648438 c 0
 350.690429688 634.110351562 354.51953125 631.6796875 355.389648438 627.4296875 c 0
 356.059570312 624.290039062 356.629882812 621.490234375 356.629882812 621.490234375 c 1
212.8203125 4.3095703125 m 0
 297.58984375 4.3095703125 331.780273438 102.209960938 331.790039062 190.080078125 c 0
 331.790039062 271.3203125 303.990234375 378.830078125 207.860351562 378.830078125 c 0
 115.639648438 378.830078125 74.400390625 277.219726562 74.400390625 191.580078125 c 0
 74.400390625 83.3798828125 119.990234375 4.3095703125 212.8203125 4.3095703125 c 0
EndSplineSet
Validated: 1
EndChar

StartChar: seven
Encoding: 13 55 37
Width: 430
VWidth: 0
Flags: W
HStem: 554.9 64.6396<39.116 332.66>
VStem: 1.21973 19.1904<472.62 476.32 476.323 504.738>
LayerCount: 2
Fore
SplineSet
380.780273438 619.540039062 m 1
 118.969726562 -16.0595703125 l 1
 118.969726562 -16.0595703125 111.25 -12.8701171875 108.200195312 -11.6103515625 c 0
 104.280273438 -9.990234375 101.809570312 -5.6298828125 103.360351562 -1.8701171875 c 2
 103.360351562 -1.8701171875 104.120117188 -0.01953125 106.110351562 4.8095703125 c 1
 332.66015625 554.900390625 l 1
 95.2900390625 554.900390625 l 2
 39.33984375 554.900390625 29.01953125 523.23046875 20.41015625 491.209960938 c 0
 17.3203125 479.6796875 16.3701171875 476.3203125 16.3701171875 476.3203125 c 2
 15.330078125 472.360351562 11.2900390625 469.950195312 7.0703125 471.0703125 c 0
 3.9697265625 471.849609375 1.2197265625 472.620117188 1.2197265625 472.620117188 c 1
 33.240234375 619.540039062 l 1
 380.780273438 619.540039062 l 1
EndSplineSet
Validated: 1
EndChar

StartChar: eight
Encoding: 14 56 38
Width: 407
VWidth: 0
Flags: W
HStem: -17.1504 20.79<136.485 224.558> 613.77 19.7109<130.384 215.173>
VStem: 1.61035 63.6396<57.7759 211.125 452.503 552.605> 277.76 53.8701<436.85 569.958> 282.74 64.6396<63.1145 182.652>
LayerCount: 2
Fore
SplineSet
200.120117188 337.150390625 m 1xf0
 303.059570312 256.6796875 347.379882812 214.080078125 347.379882812 136.700195312 c 0xe8
 347.379882812 58.4697265625 281.240234375 -17.150390625 171.940429688 -17.150390625 c 0
 58.330078125 -17.150390625 1.6103515625 60.740234375 1.6103515625 129.33984375 c 0
 1.6103515625 208.780273438 45.3701171875 251.349609375 126.870117188 315.040039062 c 1
 18.080078125 402.400390625 7.240234375 432.950195312 7.240234375 487 c 0
 7.240234375 558.4296875 59.0498046875 633.48046875 171.370117188 633.48046875 c 0
 270.610351562 633.48046875 331.629882812 571.76953125 331.629882812 506.099609375 c 0
 331.629882812 445.16015625 300.73046875 415.639648438 200.120117188 337.150390625 c 1xf0
71.7998046875 514.360351562 m 0
 71.7998046875 463.83984375 83.16015625 438.969726562 184.809570312 350.41015625 c 1
 256.419921875 414.530273438 277.759765625 447.75 277.759765625 501.370117188 c 0xf0
 277.759765625 561.26953125 235.330078125 613.76953125 172.240234375 613.76953125 c 0
 106.23046875 613.76953125 71.7998046875 558.080078125 71.7998046875 514.360351562 c 0
178 3.6396484375 m 0
 238.940429688 3.6396484375 282.75 50.6396484375 282.740234375 106.0703125 c 0xe8
 282.740234375 175.1796875 254.5 203.549804688 142.190429688 301.870117188 c 1
 94.9404296875 258.75 65.25 230.950195312 65.25 135.240234375 c 0
 65.25 45.3798828125 132.129882812 3.6396484375 178 3.6396484375 c 0
EndSplineSet
Validated: 33
EndChar

StartChar: nine
Encoding: 15 57 39
Width: 447
VWidth: 0
Flags: W
HStem: 218.97 19.5107<146.596 234.394> 613 20.5<143.609 236.407>
VStem: 1.5498 64.6602<316.664 524.467> 323.6 72.8506<279.134 504.043>
LayerCount: 2
Fore
SplineSet
396.450195312 359.360351562 m 0
 396.450195312 150.719726562 229.849609375 45.51953125 138.809570312 10.400390625 c 0
 103.290039062 -3.2998046875 47.1396484375 -23.009765625 47.1396484375 -23.009765625 c 1
 47.1396484375 -23.009765625 44.7001953125 -15.0302734375 43.73046875 -11.8701171875 c 0
 42.490234375 -7.8203125 44.2998046875 -3.1396484375 48.1796875 -1.9501953125 c 2
 48.1796875 -1.9501953125 50.099609375 -1.3603515625 55.08984375 0.169921875 c 2
 55.08984375 0.169921875 168.919921875 32.9404296875 240.940429688 102.879882812 c 0
 278.889648438 139.73046875 313.259765625 197.0703125 333.049804688 304.200195312 c 1
 323.610351562 281.309570312 274.129882812 218.969726562 187.299804688 218.969726562 c 0
 55.3203125 218.969726562 1.5498046875 323.26953125 1.5498046875 414.809570312 c 0
 1.5498046875 580.969726562 110.91015625 633.5 192.349609375 633.5 c 0
 285.719726562 633.5 396.450195312 583.030273438 396.450195312 359.360351562 c 0
190.139648438 238.48046875 m 0
 282.360351562 238.48046875 323.599609375 340.080078125 323.599609375 425.73046875 c 0
 323.599609375 533.9296875 278.009765625 613 185.1796875 613 c 0
 100.400390625 613 66.2099609375 515.099609375 66.2099609375 427.23046875 c 0
 66.2099609375 345.990234375 94.009765625 238.48046875 190.139648438 238.48046875 c 0
EndSplineSet
Validated: 1
EndChar

StartChar: colon
Encoding: 16 58 40
Width: 185
VWidth: 0
Flags: W
HStem: -15.8184 89.1553<7.18695 84.8521> 343.23 90.3193<7.37803 84.622>
VStem: 0.839844 90.3203<-9.49887 67.0176 349.769 427.012>
LayerCount: 2
Fore
SplineSet
1.4423828125 21.5244140625 m 0
 -2.5537109375 46.14453125 14.166015625 69.3408203125 38.78515625 73.3369140625 c 0
 63.404296875 77.33203125 86.6015625 60.61328125 90.5966796875 35.994140625 c 0
 94.5927734375 11.375 77.8740234375 -11.822265625 53.25390625 -15.818359375 c 0
 28.634765625 -19.8134765625 5.4375 -3.0947265625 1.4423828125 21.5244140625 c 0
46 343.23046875 m 0
 21.0595703125 343.23046875 0.83984375 363.450195312 0.83984375 388.389648438 c 0
 0.83984375 413.330078125 21.0595703125 433.549804688 46 433.549804688 c 0
 70.9404296875 433.549804688 91.16015625 413.330078125 91.16015625 388.389648438 c 0
 91.16015625 363.450195312 70.9404296875 343.23046875 46 343.23046875 c 0
EndSplineSet
Validated: 33
EndChar

StartChar: semicolon
Encoding: 17 59 41
Width: 185
VWidth: 0
Flags: W
HStem: -16.6201 90.3203<7.36826 65.2646> 343.23 90.3193<7.3726 84.612>
VStem: 0.830078 90.3203<-9.65789 67.1616 349.769 427.012>
LayerCount: 2
Fore
SplineSet
45.990234375 73.7001953125 m 0
 70.9296875 73.7001953125 91.150390625 53.48046875 91.150390625 28.5302734375 c 0
 91.150390625 11.83984375 90.7900390625 3.0302734375 85.23046875 -13.3701171875 c 0
 77.2099609375 -36.919921875 53.4404296875 -49.33984375 25.919921875 -64.7998046875 c 1
 23.099609375 -59.4501953125 24.48046875 -61.83984375 23.3203125 -59.599609375 c 0
 22.16015625 -57.4296875 18.7001953125 -49.48046875 27.2197265625 -45.2197265625 c 0
 28.58984375 -44.5 30.830078125 -43.41015625 32.849609375 -42.330078125 c 0
 42.9697265625 -37.0595703125 57.900390625 -25.4599609375 65.26953125 -12.3095703125 c 1
 65.26953125 -12.3095703125 58.5595703125 -16.509765625 45.990234375 -16.6201171875 c 0
 21.0498046875 -16.830078125 0.830078125 3.599609375 0.830078125 28.5400390625 c 0
 0.830078125 53.48046875 21.0498046875 73.7001953125 45.990234375 73.7001953125 c 0
45.990234375 343.23046875 m 0
 21.0498046875 343.23046875 0.83984375 363.450195312 0.830078125 388.389648438 c 0
 0.830078125 413.330078125 21.0498046875 433.549804688 45.990234375 433.549804688 c 0
 70.9296875 433.549804688 91.150390625 413.330078125 91.150390625 388.389648438 c 0
 91.150390625 363.450195312 70.9296875 343.23046875 45.990234375 343.23046875 c 0
EndSplineSet
Validated: 33
EndChar

StartChar: question
Encoding: 18 63 42
Width: 407
VWidth: 0
Flags: W
HStem: -16.04 88.6396<120.367 196.173> 604.88 28.7305<107.351 231.273>
VStem: 113.95 88.6396<-9.62366 66.1833> 148.36 19.7998<144.74 198.559>
LayerCount: 2
Fore
SplineSet
148.360351562 144.740234375 m 1xd0
 148.360351562 196.759765625 169.16015625 254.129882812 192.290039062 289.169921875 c 0
 244.33984375 368.059570312 261.209960938 380.379882812 274.389648438 432.25 c 0
 285.5703125 476.26953125 287.099609375 516.259765625 273.200195312 548.66015625 c 0
 257.73046875 584.73046875 220.290039062 604.879882812 167.120117188 604.879882812 c 0
 111.650390625 604.879882812 53.3603515625 575.280273438 12.7802734375 476.639648438 c 1
 12.7802734375 476.639648438 10 477.599609375 6.9501953125 478.580078125 c 0
 2.9296875 479.959960938 0.8701171875 484.33984375 2.1201171875 488.16015625 c 2
 2.1201171875 488.16015625 2.75 491.51953125 7.08984375 502.790039062 c 0
 44.3896484375 599.6796875 105.83984375 633.610351562 166.870117188 633.610351562 c 0
 280.259765625 633.610351562 346.25 570.049804688 346.25 496.599609375 c 0
 346.25 414.33984375 308.540039062 382.009765625 251.299804688 316.469726562 c 0
 197.240234375 254.580078125 168.16015625 198.559570312 168.16015625 144.740234375 c 1
 148.360351562 144.740234375 l 1xd0
113.950195312 28.2802734375 m 0xe0
 113.950195312 52.7568359375 133.79296875 72.599609375 158.26953125 72.599609375 c 0
 182.747070312 72.599609375 202.58984375 52.7568359375 202.58984375 28.2802734375 c 0
 202.58984375 3.802734375 182.747070312 -16.0400390625 158.26953125 -16.0400390625 c 0
 133.79296875 -16.0400390625 113.950195312 3.802734375 113.950195312 28.2802734375 c 0xe0
EndSplineSet
Validated: 33
EndChar

StartChar: a
Encoding: 45 97 43
Width: 449
VWidth: 0
Flags: W
HStem: 0 13.7695<342.109 388.741> 211.29 19.8799<157.39 255.21> 323.89 91.25<43.6124 85.8451>
VStem: 26.0098 70.1006<326.644 382.893> 255.21 64.6201<20.8103 59.5801 77.8856 211.29 231.17 336.39>
LayerCount: 2
Fore
SplineSet
255.209960938 311.950195312 m 0
 255.209960938 344.01953125 242.629882812 381.91015625 213.91015625 398.299804688 c 0
 178.700195312 418.419921875 113.280273438 423.309570312 86.2802734375 383.190429688 c 1
 92.33984375 376.889648438 96.1103515625 368.370117188 96.1103515625 358.940429688 c 0
 96.1103515625 339.580078125 80.419921875 323.889648438 61.0595703125 323.889648438 c 0
 41.7001953125 323.889648438 26.009765625 339.580078125 26.009765625 358.940429688 c 0
 26.009765625 375.33984375 36.2001953125 389.650390625 56.48046875 404.360351562 c 0
 115.110351562 446.889648438 205.959960938 436.66015625 253.469726562 415.139648438 c 0
 321.379882812 384.330078125 319.830078125 336.389648438 319.830078125 336.389648438 c 1
 319.830078125 97.8603515625 l 1
 319.919921875 74.2802734375 l 2
 319.919921875 26.080078125 344.879882812 13.76953125 365.879882812 13.76953125 c 0
 377.759765625 13.76953125 381.290039062 13.76953125 381.290039062 13.76953125 c 2
 385.33984375 13.76953125 388.780273438 10.41015625 388.780273438 6.1103515625 c 0
 388.780273438 2.9296875 388.780273438 0 388.780273438 0 c 1
 255.379882812 0 l 1
 255.379882812 59.580078125 l 1
 204.030273438 -5.0595703125 165.620117188 -15.83984375 114.709960938 -15.83984375 c 0
 22.6201171875 -15.83984375 -21.0595703125 58.1796875 12.419921875 129.870117188 c 0
 45.98046875 201.650390625 143.669921875 231.169921875 255.209960938 231.169921875 c 1
 255.209960938 231.169921875 255.209960938 261.169921875 255.209960938 311.950195312 c 0
136.48046875 10.51953125 m 0
 270.26953125 25.73046875 255.299804688 185.389648438 255.299804688 211.290039062 c 1
 230.16015625 211.290039062 179.790039062 214.16015625 119.309570312 189 c 0
 63.2099609375 165.66015625 60.9697265625 97.1201171875 69.580078125 58.8203125 c 0
 77.240234375 24.5703125 96.650390625 5.990234375 136.48046875 10.51953125 c 0
EndSplineSet
Validated: 33
EndChar

StartChar: b
Encoding: 46 98 44
Width: 469
VWidth: 0
Flags: W
HStem: -16.0098 35.1201<187.744 266.983> -0.00976562 13.7695<0.844416 47.1891> 397.09 36.6904<192.817 271.827> 605.91 13.7695<0.844416 47.1891>
VStem: 69.8203 64.46<20.8005 59.6396 62.0858 360.18 366.89 598.895> 318.77 64.4502<81.08 343.282>
LayerCount: 2
Fore
SplineSet
134.280273438 366.889648438 m 1x7c
 164.51953125 403 208.599609375 434.169921875 256.6796875 433.780273438 c 0
 321.700195312 433.240234375 383.219726562 368.629882812 383.219726562 202.040039062 c 0
 383.219726562 92.48046875 357.900390625 -16.009765625 251.099609375 -16.009765625 c 0xbc
 189.16015625 -16.009765625 152.879882812 25.9404296875 134.280273438 59.6396484375 c 1
 134.280273438 -0.009765625 l 1
 0.7900390625 -0.009765625 l 1
 0.7900390625 -0.009765625 0.7900390625 3.8603515625 0.7900390625 6.099609375 c 0
 0.7900390625 10.23046875 3.7998046875 13.759765625 8.2802734375 13.759765625 c 2
 23.599609375 13.759765625 l 2
 44 13.759765625 69.8203125 26.0703125 69.8203125 74.26953125 c 2
 69.8203125 545.400390625 l 2
 69.8203125 593.690429688 44 605.91015625 23.599609375 605.91015625 c 2
 8.2802734375 605.91015625 l 2
 3.7998046875 605.91015625 0.7900390625 609.440429688 0.7900390625 613.5703125 c 0
 0.7900390625 615.809570312 0.7900390625 619.6796875 0.7900390625 619.6796875 c 1
 134.280273438 619.6796875 l 1
 134.280273438 366.889648438 l 1x7c
229.889648438 397.08984375 m 0
 195.8203125 397.08984375 159.139648438 372.900390625 134.290039062 333.790039062 c 1
 134.290039062 94.0703125 l 1
 156.33984375 53.849609375 187.83984375 19.1103515625 226.530273438 19.1103515625 c 0
 286.51953125 19.1103515625 318.76953125 107.5 318.76953125 202.040039062 c 0
 318.76953125 316.990234375 292.759765625 397.08984375 229.889648438 397.08984375 c 0
EndSplineSet
Validated: 33
EndChar

StartChar: c
Encoding: 47 99 45
Width: 462
VWidth: 0
Flags: W
HStem: -16.0098 19.1602<164.231 268.841> 415.07 18.6992<170.715 270.313>
VStem: 0.94043 67.3398<114.657 320.411> 303.65 70.0996<309.224 366.828> 352.05 25.0098<81.7689 122.24>
LayerCount: 2
Fore
SplineSet
373.75 341.51953125 m 0xf0
 373.75 322.16015625 358.059570312 306.469726562 338.700195312 306.469726562 c 0
 319.33984375 306.469726562 303.650390625 322.16015625 303.650390625 341.51953125 c 0xf0
 303.650390625 351.669921875 308.030273438 360.73046875 314.919921875 367.129882812 c 1
 305.700195312 382.080078125 294.58984375 392.73046875 282.639648438 400.049804688 c 0
 282.620117188 400.0703125 282.5703125 400.099609375 282.549804688 400.099609375 c 0
 262.900390625 412.120117188 238.01953125 415.370117188 219.219726562 415.0703125 c 0
 103.33984375 415.0703125 68.2802734375 292.080078125 68.2802734375 216.940429688 c 0
 68.2802734375 118.700195312 108.73046875 3.150390625 211.849609375 3.150390625 c 0
 280.099609375 3.150390625 312.66015625 33.33984375 332.169921875 64.8095703125 c 0
 340.610351562 78.4296875 349.75 103.419921875 352.049804688 113.490234375 c 0
 353.200195312 118.530273438 357.259765625 122.240234375 362.389648438 122.240234375 c 2
 377.059570312 122.240234375 l 1xe8
 369.389648438 47.6103515625 310.309570312 -16.009765625 212.459960938 -16.009765625 c 0
 94.51953125 -16.009765625 0.9404296875 84.7802734375 0.9404296875 216.950195312 c 0
 0.9404296875 408.01953125 156.75 433.76953125 217.299804688 433.76953125 c 0
 286.790039062 433.76953125 332.389648438 409.059570312 356.370117188 381.490234375 c 0
 369.120117188 366.830078125 373.75 357.26953125 373.75 341.51953125 c 0xf0
EndSplineSet
Validated: 33
EndChar

StartChar: d
Encoding: 48 100 46
Width: 452
VWidth: 0
Flags: W
HStem: -16.0195 35.1299<118.02 197.271> 0 13.7695<337.851 384.196> 397.09 36.6797<113.212 192.203> 605.91 13.7695<181.785 228.089>
VStem: 1.76953 64.4805<81.0771 343.274> 250.74 64.4795<20.8096 59.6299 94.0703 360.18 366.9 598.885>
LayerCount: 2
Fore
SplineSet
315.209960938 619.6796875 m 1xbc
 315.219726562 619.6796875 l 1
 315.219726562 74.26953125 l 2
 315.219726562 26.080078125 341.040039062 13.76953125 361.440429688 13.76953125 c 2
 376.759765625 13.76953125 l 2
 381.240234375 13.76953125 384.25 10.240234375 384.25 6.1103515625 c 0
 384.25 3.8701171875 384.25 0 384.25 0 c 1
 250.759765625 0 l 1x7c
 250.759765625 59.6298828125 l 1
 232.169921875 25.8896484375 195.849609375 -16.01953125 133.879882812 -16.01953125 c 0
 27.16015625 -16.01953125 1.76953125 92.509765625 1.76953125 201.990234375 c 0
 1.76953125 368.620117188 63.2998046875 433.25 128.370117188 433.76953125 c 0
 176.400390625 434.200195312 220.459960938 402.959960938 250.759765625 366.900390625 c 1
 250.759765625 545.379882812 l 2
 250.759765625 593.66015625 224.849609375 605.91015625 204.540039062 605.91015625 c 2
 189.219726562 605.91015625 l 2
 184.740234375 605.91015625 181.73046875 609.440429688 181.73046875 613.5703125 c 0
 181.73046875 615.809570312 181.73046875 619.6796875 181.73046875 619.6796875 c 1
 250.75 619.6796875 l 1
 315.209960938 619.6796875 l 1xbc
250.73046875 94.0703125 m 1
 250.740234375 94.0703125 l 1
 250.740234375 333.790039062 l 1
 225.879882812 372.900390625 189.200195312 397.08984375 155.129882812 397.08984375 c 0
 92.259765625 397.08984375 66.25 316.990234375 66.25 202.040039062 c 0
 66.25 107.490234375 98.490234375 19.1103515625 158.490234375 19.1103515625 c 0xbc
 197.169921875 19.1103515625 228.669921875 53.8603515625 250.73046875 94.0703125 c 1
EndSplineSet
Validated: 33
EndChar

StartChar: e
Encoding: 49 101 47
Width: 433
VWidth: 0
Flags: W
LayerCount: 2
Fore
SplineSet
181.870117188 433.780273438 m 0
 251.239257812 433.780273438 355.559570312 406.509765625 355.569335938 244.669921875 c 1
 66.8994140625 244.669921875 l 1
 67.2392578125 88.8095703125 99.9794921875 12.6201171875 194.709960938 12.6201171875 c 0
 262.729492188 12.6201171875 312.040039062 71.0498046875 328.620117188 139.459960938 c 0
 329.189453125 141.790039062 329.66015625 144.169921875 330.080078125 146.549804688 c 0
 330.959960938 151.5 335.1796875 155.099609375 340.19921875 155.099609375 c 2
 356.189453125 155.099609375 l 1
 355.649414062 149.969726562 354.899414062 144.91015625 354 139.959960938 c 0
 338 51.6796875 282.359375 -16 193.830078125 -16 c 0
 137.759765625 -16 79.0400390625 -2.0595703125 35.849609375 60.98046875 c 0
 -15.05078125 135.26953125 -1.669921875 252.25 23.8193359375 312.559570312 c 0
 63.9892578125 407.58984375 132.94921875 433.780273438 181.870117188 433.780273438 c 0
180.939453125 411.200195312 m 0
 124.879882812 411.200195312 72.859375 348.620117188 67.2294921875 264.509765625 c 1
 291.689453125 264.509765625 l 1
 289.16015625 330.280273438 265.229492188 411.200195312 180.939453125 411.200195312 c 0
EndSplineSet
Validated: 33
EndChar

StartChar: f
Encoding: 50 102 48
Width: 384
VWidth: 0
Flags: W
HStem: 0.00976562 13.7705<0.52412 46.8691 156.197 202.861> 413.9 19.8799<0.469727 69.4102 133.95 216.83> 613.91 20.1396<157.878 224.485>
VStem: 69.5 64.4502<20.795 413.9 433.78 595.518> 239.38 70.1504<530.679 582.832>
LayerCount: 2
Fore
SplineSet
309.530273438 562.959960938 m 0
 309.530273438 543.58984375 293.870117188 527.9296875 274.5 527.9296875 c 0
 255.139648438 527.9296875 239.379882812 543.58984375 239.379882812 562.959960938 c 0
 239.379882812 570.450195312 241.790039062 577.419921875 245.75 583.099609375 c 1
 245.75 583.099609375 232.580078125 613.91015625 186.01953125 613.91015625 c 0
 139.799804688 613.91015625 133.950195312 565.01953125 133.950195312 509.599609375 c 2
 133.950195312 433.780273438 l 1
 216.830078125 433.780273438 l 1
 216.830078125 413.900390625 l 1
 133.950195312 413.900390625 l 1
 133.950195312 74.2802734375 l 2
 133.950195312 26 158.990234375 13.7802734375 180 13.7802734375 c 0
 191.879882812 13.7802734375 195.41015625 13.7802734375 195.41015625 13.7802734375 c 2
 199.450195312 13.7802734375 202.900390625 10.419921875 202.900390625 6.1201171875 c 0
 202.900390625 2.9404296875 202.900390625 0.009765625 202.900390625 0.009765625 c 1
 0.4697265625 0.009765625 l 1
 0.4697265625 0.009765625 0.4697265625 3.8798828125 0.4697265625 6.1201171875 c 0
 0.4697265625 10.25 3.48046875 13.7802734375 7.9599609375 13.7802734375 c 2
 23.2802734375 13.7802734375 l 2
 43.6796875 13.7802734375 69.5 26 69.5 74.2802734375 c 2
 69.41015625 413.900390625 l 1
 0.4697265625 413.900390625 l 1
 0.4697265625 433.780273438 l 1
 69.41015625 433.780273438 l 1
 69.41015625 509.599609375 l 2
 69.41015625 590.58984375 103.059570312 634.049804688 183.360351562 634.049804688 c 0
 262.540039062 634.049804688 300.150390625 598.58984375 307.549804688 574.490234375 c 0
 308.849609375 570.879882812 309.530273438 567.009765625 309.530273438 562.959960938 c 0
EndSplineSet
Validated: 1
EndChar

StartChar: g
Encoding: 51 103 49
Width: 508
VWidth: 0
Flags: W
HStem: -200 19.8496<115.03 262.665> 0.169922 64.2002<70.3535 255.254 255.34 344.108> 124.45 19.9902<147.36 230.726> 417.26 19.7998<142.681 217.092>
VStem: 26.3096 64.6309<188.863 364.206> 280.03 64.5596<187.023 363.486> 368.43 34.3008<-113.025 -24.7879>
LayerCount: 2
Fore
SplineSet
348.469726562 419.959960938 m 0
 348.450195312 420.0703125 348.400390625 420.169921875 348.370117188 420.26953125 c 0
 330.099609375 418.799804688 309 408.860351562 293.629882812 396.259765625 c 1
 293.629882812 396.259765625 344.58984375 361.4296875 344.58984375 283.620117188 c 0
 344.58984375 156.030273438 271.120117188 124.450195312 188.76953125 124.450195312 c 0
 146.099609375 124.450195312 105.259765625 132.9296875 82.5703125 146.530273438 c 1
 35.0703125 96.1298828125 26.3203125 64.3701171875 103.809570312 64.3701171875 c 2
 248.23046875 64.3701171875 l 2
 341.559570312 64.3701171875 402.73046875 21.4599609375 402.73046875 -60.26953125 c 0
 402.73046875 -168.76953125 288.610351562 -200 196.530273438 -200 c 0
 79.8603515625 -200 1.26953125 -173.9296875 1.26953125 -100.759765625 c 0
 1.26953125 -50.98046875 18.6904296875 -23.51953125 64.9296875 1.3095703125 c 1
 -38.7900390625 15.349609375 15.4599609375 105.099609375 64.8896484375 156.3203125 c 1
 64.8896484375 156.3203125 26.3095703125 197.6796875 26.3095703125 277.309570312 c 0
 26.3095703125 381.620117188 96.740234375 437.059570312 176.509765625 437.059570312 c 0
 204.280273438 437.059570312 244.559570312 428 277.440429688 408.240234375 c 1
 300.940429688 438.1796875 326.940429688 456.889648438 350.669921875 464.099609375 c 0
 373.219726562 471.580078125 389.1796875 465.599609375 394.5703125 463.360351562 c 1
 394.509765625 463.360351562 394.459960938 463.33984375 394.400390625 463.33984375 c 1
 407.450195312 458.240234375 416.719726562 445.610351562 416.719726562 430.759765625 c 0
 416.719726562 411.400390625 401.030273438 395.709960938 381.669921875 395.709960938 c 0
 366.099609375 395.709960938 353.059570312 405.9296875 348.490234375 419.969726562 c 1
 348.48046875 419.959960938 348.48046875 419.959960938 348.469726562 419.959960938 c 0
68.2900390625 -134.219726562 m 0
 88.3095703125 -161.759765625 105.190429688 -180.139648438 198.51953125 -180.150390625 c 0
 286.48046875 -180.150390625 368.4296875 -129.379882812 368.4296875 -64.669921875 c 0
 368.4296875 -14.3896484375 319.559570312 -0.330078125 255.33984375 -0.330078125 c 2
 255.33984375 -0.330078125 137.629882812 0.169921875 86.9697265625 0.169921875 c 1
 69.9501953125 -15.8203125 60.33984375 -37.75 57.080078125 -60.2998046875 c 0
 53.8701171875 -82.5 52.7998046875 -112.91015625 68.2900390625 -134.219726562 c 0
188.01953125 144.440429688 m 0
 267.990234375 144.440429688 280.040039062 220.169921875 280.030273438 277.299804688 c 0
 280.030273438 354.0703125 236.91015625 417.259765625 179.950195312 417.259765625 c 0
 122.440429688 417.259765625 90.9404296875 362.049804688 90.9404296875 290.009765625 c 0
 90.9404296875 188.969726562 131.419921875 144.440429688 188.01953125 144.440429688 c 0
EndSplineSet
Validated: 33
EndChar

StartChar: h
Encoding: 52 104 50
Width: 561
VWidth: 0
Flags: W
HStem: 0 13.7695<1.26434 47.5831 156.95 203.6 302.415 348.733 458.109 504.76> 411.71 22.0498<215.15 320.223> 605.9 13.7695<1.25457 47.5993>
VStem: 70.2305 64.4893<20.7927 357.074 375.6 598.863> 371.35 64.54<20.7927 370.187>
LayerCount: 2
Fore
SplineSet
435.860351562 297.780273438 m 2
 435.889648438 74.26953125 l 2
 435.889648438 26.01953125 460.889648438 13.76953125 481.900390625 13.76953125 c 0
 493.780273438 13.76953125 497.309570312 13.76953125 497.309570312 13.76953125 c 2
 501.349609375 13.76953125 504.799804688 10.41015625 504.799804688 6.1103515625 c 0
 504.799804688 2.9296875 504.799804688 0 504.799804688 0 c 1
 302.360351562 0 l 1
 302.360351562 0 302.360351562 3.8701171875 302.360351562 6.1103515625 c 0
 302.360351562 10.240234375 305.370117188 13.76953125 309.849609375 13.76953125 c 2
 325.169921875 13.76953125 l 2
 345.540039062 13.76953125 371.349609375 26.01953125 371.349609375 74.26953125 c 2
 371.299804688 289.799804688 l 2
 371.299804688 358.620117188 347.990234375 411.709960938 267.629882812 411.709960938 c 0
 199.389648438 411.709960938 134.709960938 360.790039062 134.709960938 298.41015625 c 2
 134.73046875 74.26953125 l 2
 134.73046875 26.01953125 159.73046875 13.76953125 180.740234375 13.76953125 c 0
 192.620117188 13.76953125 196.150390625 13.76953125 196.150390625 13.76953125 c 2
 200.190429688 13.76953125 203.639648438 10.41015625 203.639648438 6.1103515625 c 0
 203.639648438 2.9296875 203.639648438 0 203.639648438 0 c 1
 1.2099609375 0 l 1
 1.2099609375 0 1.2099609375 3.8701171875 1.2099609375 6.1103515625 c 0
 1.2099609375 10.240234375 4.2197265625 13.76953125 8.7001953125 13.76953125 c 2
 24.01953125 13.76953125 l 2
 44.3896484375 13.76953125 70.2001953125 26.01953125 70.2001953125 74.26953125 c 2
 70.23046875 545.400390625 l 2
 70.23046875 593.599609375 44.41015625 605.900390625 24.009765625 605.900390625 c 2
 8.6904296875 605.900390625 l 2
 4.2099609375 605.900390625 1.2001953125 609.4296875 1.2001953125 613.559570312 c 0
 1.2001953125 615.799804688 1.2001953125 619.669921875 1.2001953125 619.669921875 c 1
 134.700195312 619.669921875 l 1
 134.719726562 375.599609375 l 1
 167.400390625 423.780273438 244.080078125 433.759765625 272.099609375 433.759765625 c 0
 342.919921875 433.780273438 435.860351562 397.580078125 435.860351562 297.780273438 c 2
EndSplineSet
Validated: 33
EndChar

StartChar: i
Encoding: 53 105 51
Width: 260
VWidth: 0
Flags: W
HStem: 0 13.7695<0.854181 47.1736 156.534 203.187> 407.26 13.7705<0.844416 47.1891> 545.41 88.6396<64.0961 139.904>
VStem: 57.6797 88.6406<551.827 627.633> 69.79 64.5195<20.7927 400.219>
LayerCount: 2
Fore
SplineSet
195.73046875 13.76953125 m 2xe8
 199.76953125 13.76953125 203.209960938 10.41015625 203.23046875 6.1103515625 c 0
 203.23046875 2.9296875 203.23046875 0 203.23046875 0 c 1
 0.7998046875 0 l 1
 0.7998046875 0 0.7998046875 3.8701171875 0.7998046875 6.1103515625 c 0
 0.7998046875 10.240234375 3.8095703125 13.76953125 8.2900390625 13.76953125 c 2
 23.6103515625 13.76953125 l 2
 43.98046875 13.76953125 69.7900390625 26.01953125 69.7900390625 74.26953125 c 2
 69.8203125 346.75 l 2
 69.8203125 394.950195312 44 407.259765625 23.599609375 407.259765625 c 2
 8.2802734375 407.259765625 l 2
 3.7998046875 407.259765625 0.7900390625 410.790039062 0.7900390625 414.919921875 c 0
 0.7900390625 417.16015625 0.7900390625 421.030273438 0.7900390625 421.030273438 c 1
 134.26953125 421.030273438 l 1
 134.309570312 74.26953125 l 2
 134.309570312 26.01953125 159.3203125 13.76953125 180.3203125 13.76953125 c 0
 192.200195312 13.76953125 195.73046875 13.76953125 195.73046875 13.76953125 c 2xe8
57.6796875 589.73046875 m 0xf0
 57.6796875 614.20703125 77.5224609375 634.049804688 102 634.049804688 c 0
 126.477539062 634.049804688 146.3203125 614.20703125 146.3203125 589.73046875 c 0
 146.3203125 565.252929688 126.477539062 545.41015625 102 545.41015625 c 0
 77.5224609375 545.41015625 57.6796875 565.252929688 57.6796875 589.73046875 c 0xf0
EndSplineSet
Validated: 1
EndChar

StartChar: j
Encoding: 54 106 52
Width: 306
VWidth: 0
Flags: W
HStem: -200.01 20.4199<67.0712 133.277> 407.26 13.7705<89.8044 136.149>
VStem: -17.54 70.0996<-149.225 -96.5743> 158.66 64.5801<-163.399 400.219>
LayerCount: 2
Fore
SplineSet
159.875976562 558.385742188 m 0
 142.568359375 575.693359375 142.568359375 603.754882812 159.875976562 621.063476562 c 0
 177.18359375 638.37109375 205.245117188 638.37109375 222.553710938 621.063476562 c 0
 239.861328125 603.754882812 239.861328125 575.693359375 222.553710938 558.385742188 c 0
 205.245117188 541.078125 177.18359375 541.078125 159.875976562 558.385742188 c 0
89.75 414.919921875 m 0
 89.75 417.16015625 89.75 421.030273438 89.75 421.030273438 c 1
 223.240234375 421.030273438 l 1
 223.240234375 -79.33984375 l 2
 223.240234375 -115.450195312 221.190429688 -148.530273438 193.490234375 -171.349609375 c 0
 169.650390625 -191 141.66015625 -200.009765625 102.849609375 -200.009765625 c 0
 66.0400390625 -200.009765625 33.91015625 -189.25 10.26953125 -173.879882812 c 0
 -2.0400390625 -165.870117188 -17.5400390625 -148 -17.5400390625 -128.870117188 c 0
 -17.5400390625 -109.509765625 -1.849609375 -93.8203125 17.509765625 -93.8203125 c 0
 36.8701171875 -93.8203125 52.5595703125 -109.509765625 52.5595703125 -128.870117188 c 0
 52.5595703125 -142.0703125 46.1201171875 -149.23046875 46.1201171875 -149.23046875 c 1
 46.1201171875 -149.23046875 62.8603515625 -179.58984375 103.309570312 -179.58984375 c 0
 150.83984375 -179.58984375 158.66015625 -127.5 158.66015625 -79.330078125 c 2
 158.780273438 346.75 l 2
 158.780273438 394.950195312 132.959960938 407.259765625 112.559570312 407.259765625 c 2
 97.240234375 407.259765625 l 2
 92.759765625 407.259765625 89.75 410.790039062 89.75 414.919921875 c 0
EndSplineSet
Validated: 33
EndChar

StartChar: k
Encoding: 55 107 53
Width: 504
VWidth: 0
Flags: W
HStem: 0.00976562 13.7705<1.06432 47.3836 156.754 203.401 258.604 294.175 418.645 460.942> 407.27 13.7705<209.176 266.761 362.157 411.51> 605.91 13.7695<1.06414 47.3412>
VStem: 70 64.5303<20.8035 201.3 229.89 598.895>
LayerCount: 2
Fore
SplineSet
453.41015625 13.76953125 m 2
 457.459960938 13.76953125 460.990234375 10.41015625 460.98046875 6.1103515625 c 0
 460.98046875 2.9296875 460.98046875 0 460.98046875 0 c 1
 258.549804688 0 l 1
 258.549804688 0 258.549804688 3.8701171875 258.549804688 6.1103515625 c 0
 258.549804688 10.240234375 261.559570312 13.76953125 266.040039062 13.76953125 c 2
 273.790039062 13.76953125 l 2
 314.150390625 13.76953125 290.780273438 46.0498046875 269.0703125 71.330078125 c 2
 146.509765625 212.759765625 l 1
 134.51953125 201.299804688 l 1
 134.530273438 74.2802734375 l 2
 134.530273438 26.0302734375 159.540039062 13.7802734375 180.540039062 13.7802734375 c 0
 192.419921875 13.7802734375 195.950195312 13.7802734375 195.950195312 13.7802734375 c 2
 200 13.7802734375 203.440429688 10.419921875 203.440429688 6.1201171875 c 0
 203.440429688 2.9404296875 203.440429688 0.009765625 203.440429688 0.009765625 c 1
 1.009765625 0.009765625 l 1
 1.009765625 0.009765625 1.009765625 3.8798828125 1.009765625 6.1201171875 c 0
 1.009765625 10.25 4.0302734375 13.7802734375 8.5 13.7802734375 c 2
 23.8203125 13.7802734375 l 2
 44.1904296875 13.7802734375 70 26.0302734375 70 74.2802734375 c 2
 69.9501953125 545.400390625 l 2
 69.9501953125 593.690429688 44.1298828125 605.91015625 23.8203125 605.91015625 c 2
 8.5 605.91015625 l 2
 4.01953125 605.91015625 1.009765625 609.440429688 1.009765625 613.5703125 c 0
 1.009765625 615.809570312 1.009765625 619.6796875 1.009765625 619.6796875 c 1
 134.5 619.6796875 l 1
 134.530273438 229.889648438 l 1
 251.66015625 339.450195312 l 2
 276.860351562 361.190429688 289.98046875 407.26953125 243.030273438 407.26953125 c 0
 227.110351562 407.26953125 216.610351562 407.26953125 216.610351562 407.26953125 c 2
 212.219726562 407.26953125 209.120117188 410.799804688 209.120117188 414.9296875 c 0
 209.120117188 417.169921875 209.120117188 421.040039062 209.120117188 421.040039062 c 1
 411.549804688 421.040039062 l 1
 411.549804688 421.040039062 411.549804688 418.110351562 411.549804688 414.9296875 c 0
 411.549804688 410.629882812 408.099609375 407.26953125 404.059570312 407.26953125 c 2
 404.059570312 407.26953125 400.530273438 407.26953125 388.650390625 407.26953125 c 0
 348.030273438 407.26953125 289.259765625 347.709960938 272.6796875 333.709960938 c 2
 195.8203125 259.900390625 l 1
 338.23046875 92.240234375 l 2
 352.419921875 75.8603515625 411.83984375 13.76953125 438.08984375 13.76953125 c 0
 449.969726562 13.76953125 453.41015625 13.76953125 453.41015625 13.76953125 c 2
EndSplineSet
Validated: 33
EndChar

StartChar: l
Encoding: 56 108 54
Width: 254
VWidth: 0
Flags: W
HStem: 0.00976562 13.7705<0.84458 47.1632 156.534 203.18> 605.91 13.7695<0.844416 47.1891>
VStem: 69.7803 64.5293<20.8035 598.869>
LayerCount: 2
Fore
SplineSet
69.7802734375 74.2802734375 m 2
 69.8203125 545.400390625 l 2
 69.8203125 593.599609375 44 605.91015625 23.599609375 605.91015625 c 2
 8.2802734375 605.91015625 l 2
 3.7998046875 605.91015625 0.7900390625 609.440429688 0.7900390625 613.5703125 c 0
 0.7900390625 615.809570312 0.7900390625 619.6796875 0.7900390625 619.6796875 c 1
 134.26953125 619.6796875 l 1
 134.309570312 74.2802734375 l 2
 134.309570312 26.0302734375 159.3203125 13.7802734375 180.3203125 13.7802734375 c 0
 192.200195312 13.7802734375 195.73046875 13.7802734375 195.73046875 13.7802734375 c 2
 199.780273438 13.7802734375 203.219726562 10.419921875 203.219726562 6.1201171875 c 0
 203.219726562 2.9404296875 203.219726562 0.009765625 203.219726562 0.009765625 c 1
 0.7900390625 0.009765625 l 1
 0.7900390625 0.009765625 0.7900390625 3.8798828125 0.7900390625 6.1201171875 c 0
 0.7900390625 10.25 3.8095703125 13.7802734375 8.2802734375 13.7802734375 c 2
 23.599609375 13.7802734375 l 2
 43.9697265625 13.7802734375 69.7802734375 26.0302734375 69.7802734375 74.2802734375 c 2
EndSplineSet
Validated: 1
EndChar

StartChar: m
Encoding: 57 109 55
Width: 779
VWidth: 0
Flags: W
HStem: 0 13.7695<0.411963 46.7306 156.1 202.747 277.582 323.924 433.291 479.938 523.492 569.818 679.181 725.828> 407.25 13.7695<0.402032 46.7465> 409.39 24.3906<203.912 293.796 469.814 553.45>
VStem: 69.3477 64.5293<20.7927 363.326 371.55 400.21> 346.547 64.5205<20.8035 362.312> 592.438 64.5195<20.7927 364.001>
LayerCount: 2
Fore
SplineSet
346.497070312 291.76953125 m 2xbc
 346.497070312 362.370117188 310.70703125 409.389648438 243.1875 409.379882812 c 0
 190.586914062 409.379882812 133.84765625 362.669921875 133.84765625 304.8203125 c 2
 133.876953125 74.26953125 l 2
 133.876953125 26.01953125 158.88671875 13.76953125 179.88671875 13.76953125 c 0
 191.767578125 13.76953125 195.296875 13.76953125 195.296875 13.76953125 c 2
 199.34765625 13.76953125 202.787109375 10.41015625 202.787109375 6.1103515625 c 0
 202.787109375 2.9296875 202.787109375 0 202.787109375 0 c 1
 0.357421875 0 l 1
 0.357421875 0 0.357421875 3.8701171875 0.357421875 6.1103515625 c 0
 0.357421875 10.240234375 3.376953125 13.76953125 7.84765625 13.76953125 c 2
 23.1669921875 13.76953125 l 2
 43.537109375 13.76953125 69.34765625 26.01953125 69.34765625 74.26953125 c 2
 69.376953125 346.740234375 l 2
 69.376953125 394.940429688 43.5576171875 407.25 23.1572265625 407.25 c 2
 7.8369140625 407.25 l 2
 3.357421875 407.25 0.34765625 410.780273438 0.34765625 414.91015625 c 0
 0.34765625 417.150390625 0.34765625 421.01953125 0.34765625 421.01953125 c 1
 133.807617188 421.01953125 l 1xdc
 133.817382812 371.549804688 l 1
 172.626953125 412.849609375 215.787109375 433.780273438 258.926757812 433.780273438 c 0
 304.296875 433.780273438 355.426757812 406.950195312 397.046875 353.650390625 c 1
 428.327148438 407.540039062 477.4375 433.780273438 522.787109375 433.780273438 c 0
 564.247070312 433.780273438 619.817382812 404.0703125 644.987304688 346.370117188 c 0
 651.166992188 332.209960938 656.907226562 301.459960938 656.907226562 281.48046875 c 2
 656.95703125 74.26953125 l 2
 656.95703125 26.01953125 681.966796875 13.76953125 702.966796875 13.76953125 c 0
 714.84765625 13.76953125 718.376953125 13.76953125 718.376953125 13.76953125 c 2
 722.426757812 13.76953125 725.8671875 10.41015625 725.8671875 6.1103515625 c 0
 725.8671875 2.9296875 725.8671875 0 725.8671875 0 c 1
 523.4375 0 l 1
 523.4375 0 523.4375 3.8701171875 523.4375 6.1103515625 c 0
 523.4375 10.240234375 526.45703125 13.76953125 530.926757812 13.76953125 c 2
 546.247070312 13.76953125 l 2
 566.626953125 13.76953125 592.4375 26.01953125 592.4375 74.26953125 c 2
 592.38671875 281.48046875 l 2
 592.38671875 371.599609375 560.546875 409.389648438 515.237304688 409.389648438 c 0
 463.647460938 409.389648438 411.017578125 370.0703125 411.017578125 298.830078125 c 2
 411.067382812 74.2802734375 l 2
 411.067382812 26.0302734375 436.077148438 13.7802734375 457.077148438 13.7802734375 c 0
 468.95703125 13.7802734375 472.487304688 13.7802734375 472.487304688 13.7802734375 c 2
 476.537109375 13.7802734375 479.977539062 10.419921875 479.977539062 6.1201171875 c 0
 479.977539062 2.9404296875 479.977539062 0.009765625 479.977539062 0.009765625 c 1
 277.546875 0.009765625 l 1
 277.546875 0.009765625 277.546875 3.8798828125 277.546875 6.1201171875 c 0
 277.546875 10.25 280.557617188 13.7802734375 285.037109375 13.7802734375 c 2
 300.357421875 13.7802734375 l 2
 320.727539062 13.7802734375 346.546875 26.0302734375 346.546875 74.2802734375 c 2
 346.497070312 291.76953125 l 2xbc
EndSplineSet
Validated: 33
EndChar

StartChar: n
Encoding: 58 110 56
Width: 534
VWidth: 0
Flags: W
HStem: 0 13.7695<1.41478 47.7792 157.096 203.76 264.255 310.521 419.941 466.58> 407.26 13.7705<1.43426 47.7792> 411.61 22.1592<198.061 282.831>
VStem: 70.4102 64.4395<20.8201 372.303 374.81 400.223> 333.13 64.5605<20.7846 363.8>
LayerCount: 2
Fore
SplineSet
466.620117188 6.1103515625 m 0xb8
 466.620117188 2.9296875 466.620117188 0 466.620117188 0 c 1
 264.200195312 0 l 1
 264.200195312 0 264.200195312 3.8701171875 264.200195312 6.1103515625 c 0
 264.200195312 10.240234375 267.209960938 13.76953125 271.690429688 13.76953125 c 2
 287 13.76953125 l 2
 307.309570312 13.76953125 333.129882812 25.990234375 333.129882812 74.26953125 c 2
 333.129882812 295.040039062 l 2
 333.129882812 365.700195312 301.469726562 411.610351562 233.990234375 411.610351562 c 0xb8
 181.3203125 411.610351562 134.849609375 365.959960938 134.849609375 308.120117188 c 2
 134.849609375 74.2802734375 l 2
 134.849609375 26.080078125 159.889648438 13.7802734375 180.900390625 13.7802734375 c 0
 192.780273438 13.7802734375 196.309570312 13.7802734375 196.309570312 13.7802734375 c 2
 200.349609375 13.7802734375 203.799804688 10.419921875 203.799804688 6.1201171875 c 0
 203.799804688 2.9404296875 203.799804688 0.009765625 203.799804688 0.009765625 c 1
 1.3798828125 0.009765625 l 1
 1.3798828125 0.009765625 1.3798828125 3.8798828125 1.3798828125 6.1201171875 c 0
 1.3798828125 10.25 4.3896484375 13.7802734375 8.8701171875 13.7802734375 c 2
 24.1904296875 13.7802734375 l 2
 44.58984375 13.7802734375 70.41015625 26.08984375 70.41015625 74.2802734375 c 2
 70.41015625 346.759765625 l 2
 70.41015625 394.959960938 44.58984375 407.259765625 24.1904296875 407.259765625 c 2
 8.8701171875 407.259765625 l 2
 4.3896484375 407.259765625 1.3798828125 410.790039062 1.3798828125 414.919921875 c 0
 1.3798828125 417.16015625 1.3798828125 421.030273438 1.3798828125 421.030273438 c 1
 134.870117188 421.030273438 l 1xd8
 134.870117188 374.809570312 l 1
 173.690429688 416.120117188 206.549804688 433.76953125 249.759765625 433.76953125 c 0
 295.120117188 433.76953125 397.690429688 408.290039062 397.690429688 275.240234375 c 2
 397.690429688 74.26953125 l 2
 397.690429688 25.990234375 422.740234375 13.76953125 443.740234375 13.76953125 c 0
 455.620117188 13.76953125 459.150390625 13.76953125 459.150390625 13.76953125 c 2
 463.1796875 13.76953125 466.620117188 10.41015625 466.620117188 6.1103515625 c 0xb8
EndSplineSet
Validated: 1
EndChar

StartChar: o
Encoding: 59 111 57
Width: 465
VWidth: 0
Flags: W
HStem: -16 19.8496<154.455 223.914> 420.18 13.6006<153.49 220.774>
VStem: 1.15039 64.3994<101.543 322.603> 310.96 63.9004<101.579 328.778>
LayerCount: 2
Fore
SplineSet
188.26953125 433.780273438 m 0
 304.349609375 433.780273438 374.849609375 346.219726562 374.860351562 217.469726562 c 0
 374.860351562 120.51953125 331.26953125 -16 183.23046875 -16 c 0
 54.6796875 -16 1.150390625 108.33984375 1.150390625 217.469726562 c 0
 1.150390625 311.309570312 54.4599609375 433.780273438 188.26953125 433.780273438 c 0
65.5498046875 215.6796875 m 0
 65.5498046875 111.080078125 110.370117188 3.849609375 194.169921875 3.849609375 c 0
 257.3203125 3.849609375 310.959960938 109.889648438 310.959960938 215.6796875 c 0
 310.959960938 324.690429688 267.450195312 420.1796875 186.790039062 420.1796875 c 0
 103.25 420.1796875 65.5498046875 311.48046875 65.5498046875 215.6796875 c 0
EndSplineSet
Validated: 1
EndChar

StartChar: p
Encoding: 60 112 58
Width: 520
VWidth: 0
Flags: W
HStem: -200 13.7695<1.25457 47.5733 156.944 203.59> -16.0098 32.8701<171.584 303.21> 397.1 36.6807<175.18 302.141> 407.25 13.7695<1.24481 47.5892>
VStem: 70.1904 64.5098<-179.207 32.5596 42.785 373.481 382.83 400.21> 365.75 65.0596<93.6287 323.11>
LayerCount: 2
Fore
SplineSet
430.809570312 193.830078125 m 0xec
 430.809570312 56.3203125 330.830078125 -16.009765625 243.740234375 -16.009765625 c 0
 191.190429688 -16.009765625 158.51953125 0.599609375 134.709960938 32.5595703125 c 1
 134.719726562 -125.73046875 l 2
 134.719726562 -173.98046875 159.73046875 -186.23046875 180.73046875 -186.23046875 c 0
 192.610351562 -186.23046875 196.139648438 -186.23046875 196.139648438 -186.23046875 c 2
 200.190429688 -186.23046875 203.629882812 -189.58984375 203.629882812 -193.889648438 c 0
 203.629882812 -197.0703125 203.629882812 -200 203.629882812 -200 c 1
 1.2001953125 -200 l 1
 1.2001953125 -200 1.2001953125 -196.129882812 1.2001953125 -193.889648438 c 0
 1.2001953125 -189.759765625 4.2099609375 -186.23046875 8.6904296875 -186.23046875 c 2
 24.009765625 -186.23046875 l 2
 44.3798828125 -186.23046875 70.1904296875 -173.98046875 70.1904296875 -125.73046875 c 2
 70.2197265625 346.740234375 l 2
 70.2197265625 394.940429688 44.400390625 407.25 24 407.25 c 2
 8.6796875 407.25 l 2
 4.2001953125 407.25 1.1904296875 410.780273438 1.1904296875 414.91015625 c 0
 1.1904296875 417.150390625 1.1904296875 421.01953125 1.1904296875 421.01953125 c 1
 134.6796875 421.01953125 l 1xdc
 134.6796875 382.830078125 l 1
 165.639648438 420.16015625 208.110351562 433.780273438 246.709960938 433.780273438 c 0
 338.889648438 433.780273438 430.809570312 371.76953125 430.809570312 193.830078125 c 0xec
365.75 193.830078125 m 0
 365.75 287.580078125 342.110351562 397.08984375 245.860351562 397.099609375 c 0xec
 185.719726562 397.099609375 162.5 382.580078125 134.6796875 353.219726562 c 1
 134.700195312 65.1298828125 l 1
 158.809570312 32.7001953125 193.73046875 16.8603515625 242.280273438 16.8603515625 c 0
 295.780273438 16.8603515625 365.75 42.6796875 365.75 193.830078125 c 0
EndSplineSet
Validated: 1
EndChar

StartChar: q
Encoding: 61 113 59
Width: 490
VWidth: 0
Flags: W
HStem: -200 13.7695<228.41 275.061 384.437 430.745> -16.0098 32.8594<128.79 260.416> 397.09 36.6904<129.857 256.822> 407.25 13.7695<384.421 430.766>
VStem: 1.19043 65.0596<93.6237 323.108> 297.3 64.5205<-179.207 32.5596 42.7793 373.471 382.83 400.21>
LayerCount: 2
Fore
SplineSet
188.259765625 -16.009765625 m 0xdc
 101.169921875 -16.009765625 1.1904296875 56.3203125 1.1904296875 193.830078125 c 0
 1.1904296875 371.76953125 93.099609375 433.780273438 185.290039062 433.780273438 c 0xec
 223.900390625 433.780273438 266.360351562 420.150390625 297.3203125 382.830078125 c 1
 297.3203125 421.01953125 l 1
 430.8203125 421.01953125 l 1
 430.8203125 421.01953125 430.8203125 417.150390625 430.8203125 414.91015625 c 0
 430.8203125 410.780273438 427.809570312 407.25 423.330078125 407.25 c 2
 408.009765625 407.25 l 2
 387.610351562 407.25 361.790039062 394.940429688 361.790039062 346.740234375 c 2
 361.8203125 -125.73046875 l 2
 361.8203125 -173.98046875 387.629882812 -186.23046875 408 -186.23046875 c 2
 423.309570312 -186.23046875 l 2
 427.790039062 -186.23046875 430.799804688 -189.759765625 430.799804688 -193.889648438 c 0
 430.799804688 -196.129882812 430.799804688 -200 430.799804688 -200 c 1
 228.370117188 -200 l 1
 228.370117188 -200 228.370117188 -197.0703125 228.370117188 -193.889648438 c 0
 228.370117188 -189.58984375 231.8203125 -186.23046875 235.860351562 -186.23046875 c 2
 235.860351562 -186.23046875 239.389648438 -186.23046875 251.26953125 -186.23046875 c 0
 272.280273438 -186.23046875 297.280273438 -173.98046875 297.280273438 -125.73046875 c 2
 297.290039062 32.5595703125 l 1
 273.48046875 0.599609375 240.809570312 -16.009765625 188.259765625 -16.009765625 c 0xdc
186.139648438 397.08984375 m 0
 89.8896484375 397.08984375 66.25 287.580078125 66.25 193.8203125 c 0
 66.25 42.669921875 136.219726562 16.849609375 189.719726562 16.849609375 c 0
 238.26953125 16.849609375 273.190429688 32.7001953125 297.299804688 65.1201171875 c 1
 297.3203125 353.209960938 l 1
 269.5 382.5703125 246.280273438 397.08984375 186.139648438 397.08984375 c 0
EndSplineSet
Validated: 1
EndChar

StartChar: r
Encoding: 62 114 60
Width: 419
VWidth: 0
Flags: W
HStem: 0.00976562 13.7705<0.924494 47.2432 156.62 203.27> 359.91 73.8701<264.656 311.316> 407.26 13.7705<0.914893 47.2591>
VStem: 69.8604 64.54<20.8035 400.219>
LayerCount: 2
Fore
SplineSet
134.379882812 268.780273438 m 1xd0
 134.400390625 74.2802734375 l 2
 134.400390625 26.0302734375 159.400390625 13.7802734375 180.41015625 13.7802734375 c 0
 192.290039062 13.7802734375 195.8203125 13.7802734375 195.8203125 13.7802734375 c 2
 199.860351562 13.7802734375 203.309570312 10.419921875 203.309570312 6.1201171875 c 0
 203.309570312 2.9404296875 203.309570312 0.009765625 203.309570312 0.009765625 c 1
 0.8701171875 0.009765625 l 1
 0.8701171875 0.009765625 0.8701171875 3.8798828125 0.8701171875 6.1201171875 c 0
 0.8701171875 10.25 3.8798828125 13.7802734375 8.3603515625 13.7802734375 c 2
 23.6796875 13.7802734375 l 2
 44.0498046875 13.7802734375 69.8603515625 26.0302734375 69.8603515625 74.2802734375 c 2
 69.8896484375 346.75 l 2
 69.8896484375 394.950195312 44.0703125 407.259765625 23.669921875 407.259765625 c 2
 8.349609375 407.259765625 l 2
 3.8798828125 407.259765625 0.8603515625 410.790039062 0.8603515625 414.919921875 c 0
 0.8603515625 417.16015625 0.8603515625 421.030273438 0.8603515625 421.030273438 c 1
 134.349609375 421.030273438 l 1xb0
 134.360351562 313.3203125 l 1
 156.280273438 364.23046875 202.509765625 433.780273438 282.870117188 433.780273438 c 0
 290.8203125 433.780273438 303.370117188 431.129882812 311.709960938 426.330078125 c 1
 311.6796875 426.290039062 311.639648438 426.259765625 311.610351562 426.219726562 c 1
 323.129882812 420.48046875 331.110351562 408.700195312 331.110351562 394.959960938 c 0
 331.110351562 375.599609375 315.419921875 359.91015625 296.059570312 359.91015625 c 0
 278.030273438 359.91015625 263.349609375 373.580078125 261.400390625 391.08984375 c 1
 261.349609375 391.01953125 261.290039062 390.98046875 261.240234375 390.91015625 c 0
 216.129882812 399.610351562 167.669921875 357.080078125 134.379882812 268.780273438 c 1xd0
EndSplineSet
Validated: 33
EndChar

StartChar: s
Encoding: 63 115 61
Width: 333
VWidth: 0
Flags: W
HStem: -15.9902 19.8506<107.97 188.733> 413.93 19.8506<99.8059 191.129>
VStem: 16.3496 46.2207<282.78 390.267> 237.64 42.8408<36.2195 150.478>
LayerCount: 2
Fore
SplineSet
238.610351562 343.969726562 m 0
 229.0703125 394.25 186.790039062 413.919921875 140.98046875 413.9296875 c 0
 94.240234375 413.9296875 62.5703125 383.709960938 62.5703125 338.799804688 c 0
 62.5703125 295.110351562 82.080078125 268.709960938 150.91015625 248.129882812 c 0
 252.5703125 217.740234375 280.48046875 180.259765625 280.48046875 101.299804688 c 0
 280.48046875 22.6103515625 216.4296875 -15.990234375 147.610351562 -15.990234375 c 0
 84.16015625 -15.990234375 38.1796875 19.6904296875 11.25 66.3798828125 c 1
 2.8603515625 106.040039062 1.48046875 139.73046875 1.48046875 139.73046875 c 1
 1.48046875 139.73046875 15.740234375 140.740234375 17.9697265625 140.9296875 c 0
 22.080078125 141.26953125 25.8896484375 138.5703125 26.23046875 134.110351562 c 0
 26.51953125 130.290039062 27.01953125 122.639648438 27.51953125 118.83984375 c 0
 34.4296875 66.6796875 84.830078125 3.8603515625 151.030273438 3.8603515625 c 0
 191.400390625 3.8603515625 237.639648438 36.509765625 237.639648438 97.1796875 c 0
 237.639648438 149.950195312 204.120117188 166.280273438 131.370117188 189.830078125 c 0
 41.23046875 219 16.349609375 269.66015625 16.349609375 334.91015625 c 0
 16.349609375 388.76953125 70.900390625 433.780273438 144.25 433.780273438 c 0
 197.490234375 433.780273438 218.0703125 422.219726562 248.129882812 396.469726562 c 1
 258.419921875 371.809570312 257.849609375 322.889648438 257.849609375 322.889648438 c 1
 257.849609375 322.889648438 249.900390625 321.940429688 247.6796875 321.690429688 c 0
 243.450195312 321.209960938 239.759765625 324.209960938 239.5703125 328.6796875 c 0
 239.41015625 332.509765625 239.3203125 340.209960938 238.610351562 343.969726562 c 0
EndSplineSet
Validated: 33
EndChar

StartChar: t
Encoding: 64 116 62
Width: 307
VWidth: 0
Flags: W
HStem: -15.9297 26.6992<165.204 234.688> 413.99 19.8799<2.82081 75.7235 141.33 241.17>
VStem: 76.5898 64.71<28.5185 413.98> 127.56 13.7705<481.535 538.295> 256.12 26.0996<34.3726 77.9697>
LayerCount: 2
Fore
SplineSet
141.299804688 132.040039062 m 2xe8
 141.299804688 53.830078125 158.799804688 10.76953125 192.16015625 10.76953125 c 0
 234.139648438 10.76953125 247.830078125 32.9599609375 254.639648438 62.1298828125 c 0
 255.370117188 65.240234375 255.669921875 67.080078125 256.120117188 69.4404296875 c 0
 256.969726562 74.3896484375 261.25 77.9697265625 266.26953125 77.9697265625 c 2
 282.219726562 77.9697265625 l 1
 282.219726562 28.73046875 257.780273438 -15.9296875 193.83984375 -15.9296875 c 0
 148.759765625 -15.9296875 120.990234375 -4.7099609375 97.4404296875 29.6103515625 c 0
 73.23046875 64.8896484375 76.58984375 111.309570312 76.58984375 181.650390625 c 2xe8
 76.7099609375 413.98046875 l 1
 1.8095703125 413.98046875 l 1
 1.8095703125 413.98046875 1.8095703125 416.91015625 1.8095703125 420.08984375 c 0
 1.8095703125 424.389648438 5.25 427.75 9.2998046875 427.75 c 2
 9.2998046875 427.75 12.830078125 427.75 24.7099609375 427.75 c 0
 71.51953125 427.75 127.559570312 451.940429688 127.559570312 515.540039062 c 2
 127.559570312 530.860351562 l 2
 127.559570312 535.33984375 131.08984375 538.349609375 135.219726562 538.349609375 c 0
 137.459960938 538.349609375 141.330078125 538.349609375 141.330078125 538.349609375 c 1
 141.330078125 433.870117188 l 1
 241.169921875 433.870117188 l 1
 241.169921875 413.990234375 l 1
 141.330078125 413.990234375 l 1xd8
 141.299804688 132.040039062 l 2xe8
EndSplineSet
Validated: 33
EndChar

StartChar: u
Encoding: 65 117 63
Width: 537
VWidth: 0
Flags: W
HStem: -12.7197 22.1699<185.172 269.942> 0.0195312 13.7705<420.231 466.576> 407.28 13.7695<1.41951 48.0688 264.24 310.889>
VStem: 70.3203 64.5498<57.2452 400.265> 333.14 64.46<20.8271 46.2305 48.7573 400.243>
LayerCount: 2
Fore
SplineSet
466.629882812 6.1298828125 m 0x78
 466.629882812 3.8896484375 466.629882812 0.01953125 466.629882812 0.01953125 c 1
 333.139648438 0.01953125 l 1x78
 333.139648438 46.23046875 l 1
 294.3203125 4.919921875 261.459960938 -12.7197265625 218.25 -12.7197265625 c 0
 172.889648438 -12.7197265625 70.3203125 12.75 70.3203125 145.809570312 c 2
 70.3203125 346.780273438 l 2
 70.3203125 395.059570312 45.26953125 407.280273438 24.26953125 407.280273438 c 0
 12.3896484375 407.280273438 8.8701171875 407.280273438 8.8701171875 407.280273438 c 2
 4.8203125 407.280273438 1.3798828125 410.639648438 1.3798828125 414.940429688 c 0
 1.3798828125 418.129882812 1.3798828125 421.049804688 1.3798828125 421.049804688 c 1
 134.870117188 421.049804688 l 1
 134.870117188 126.01953125 l 2
 134.870117188 55.3603515625 166.530273438 9.4501953125 234 9.4501953125 c 0xb8
 286.6796875 9.4501953125 333.139648438 55.099609375 333.139648438 112.940429688 c 2
 333.139648438 346.780273438 l 2
 333.139648438 394.98046875 308.08984375 407.280273438 287.08984375 407.280273438 c 0
 275.219726562 407.280273438 271.690429688 407.280273438 271.690429688 407.280273438 c 2
 267.639648438 407.280273438 264.200195312 410.639648438 264.200195312 414.940429688 c 0
 264.200195312 418.129882812 264.200195312 421.049804688 264.200195312 421.049804688 c 1
 397.599609375 421.049804688 l 1
 397.599609375 74.2900390625 l 2
 397.599609375 26.08984375 423.419921875 13.7900390625 443.8203125 13.7900390625 c 2
 459.139648438 13.7900390625 l 2
 463.620117188 13.7900390625 466.629882812 10.259765625 466.629882812 6.1298828125 c 0x78
EndSplineSet
Validated: 1
EndChar

StartChar: v
Encoding: 66 118 64
Width: 524
VWidth: 0
Flags: W
HStem: 407.23 13.7695<0.670516 44.8033 163.007 203.005 280.996 342.584 423.659 483.33>
LayerCount: 2
Fore
SplineSet
223.58984375 -16.0400390625 m 1
 83.7197265625 343.16015625 l 2
 75.650390625 363.26953125 57.3203125 407.23046875 23.51953125 407.23046875 c 0
 11.6396484375 407.23046875 8.2001953125 407.23046875 8.2001953125 407.23046875 c 2
 4.16015625 407.23046875 0.6298828125 410.58984375 0.6298828125 414.889648438 c 0
 0.6298828125 418.0703125 0.6298828125 421 0.6298828125 421 c 1
 203.059570312 421 l 1
 203.059570312 421 203.059570312 417.129882812 203.059570312 414.889648438 c 0
 203.059570312 410.759765625 200.049804688 407.23046875 195.5703125 407.23046875 c 2
 187.8203125 407.23046875 l 2
 147.450195312 407.23046875 143.650390625 371.299804688 155.91015625 340.3203125 c 2
 271.139648438 52.849609375 l 1
 357.049804688 342.690429688 l 2
 366.58984375 374.580078125 358.830078125 407.23046875 314.849609375 407.23046875 c 0
 298.9296875 407.23046875 288.4296875 407.23046875 288.4296875 407.23046875 c 2
 284.040039062 407.23046875 280.940429688 410.759765625 280.940429688 414.889648438 c 0
 280.940429688 417.129882812 280.940429688 421 280.940429688 421 c 1
 483.370117188 421 l 1
 483.370117188 421 483.370117188 418.0703125 483.370117188 414.889648438 c 0
 483.370117188 410.58984375 479.9296875 407.23046875 475.879882812 407.23046875 c 2
 475.879882812 407.23046875 472.349609375 407.23046875 460.469726562 407.23046875 c 0
 401.290039062 407.23046875 385.309570312 367.620117188 378.870117188 346.900390625 c 2
 272.040039062 -16.0400390625 l 1
 223.58984375 -16.0400390625 l 1
EndSplineSet
Validated: 33
EndChar

StartChar: w
Encoding: 67 119 65
Width: 721
VWidth: 0
Flags: W
HStem: 407.27 13.7705<1.45079 45.5959 163.804 203.795 484.196 545.816 626.904 686.55>
LayerCount: 2
Fore
SplineSet
271.919921875 52.83984375 m 1
 357.990234375 343.490234375 l 1
 474.440429688 52.83984375 l 1
 560.330078125 342.709960938 l 2
 569.879882812 374.549804688 562.049804688 407.259765625 518.0703125 407.259765625 c 0
 502.150390625 407.259765625 491.650390625 407.259765625 491.650390625 407.259765625 c 2
 487.259765625 407.259765625 484.16015625 410.790039062 484.16015625 414.919921875 c 0
 484.16015625 417.16015625 484.16015625 421.030273438 484.16015625 421.030273438 c 1
 686.58984375 421.030273438 l 1
 686.58984375 421.030273438 686.58984375 418.110351562 686.58984375 414.919921875 c 0
 686.58984375 410.620117188 683.150390625 407.259765625 679.099609375 407.259765625 c 2
 679.099609375 407.259765625 675.5703125 407.259765625 663.690429688 407.259765625 c 0
 604.559570312 407.259765625 588.559570312 367.669921875 582.099609375 346.9296875 c 2
 475.299804688 -16.009765625 l 1
 426.83984375 -16.009765625 l 1
 339.139648438 209.23046875 l 1
 272.870117188 -16.009765625 l 1
 224.41015625 -16.009765625 l 1
 84.5498046875 343.150390625 l 2
 76.4599609375 363.290039062 58.1201171875 407.26953125 24.2998046875 407.26953125 c 0
 12.419921875 407.26953125 8.98046875 407.26953125 8.98046875 407.26953125 c 2
 4.9404296875 407.26953125 1.41015625 410.629882812 1.41015625 414.9296875 c 0
 1.41015625 418.110351562 1.41015625 421.040039062 1.41015625 421.040039062 c 1
 203.849609375 421.040039062 l 1
 203.849609375 421.040039062 203.849609375 417.169921875 203.849609375 414.9296875 c 0
 203.849609375 410.799804688 200.83984375 407.26953125 196.360351562 407.26953125 c 2
 188.610351562 407.26953125 l 2
 148.25 407.26953125 144.459960938 371.290039062 156.6796875 340.309570312 c 2
 271.919921875 52.83984375 l 1
EndSplineSet
Validated: 33
EndChar

StartChar: x
Encoding: 68 120 66
Width: 596
VWidth: 0
Flags: W
HStem: 0 13.7695<1.21942 56.2129 141.725 203.554 324.434 360.25 479.054 526.769> 407.27 13.7705<32.2106 79.9565 198.755 234.556 293.876 355.706 441.217 496.21>
LayerCount: 2
Fore
SplineSet
519.240234375 13.76953125 m 2
 523.280273438 13.76953125 526.809570312 10.41015625 526.809570312 6.099609375 c 0
 526.809570312 2.919921875 526.809570312 -0.009765625 526.809570312 -0.009765625 c 1
 324.379882812 -0.009765625 l 1
 324.379882812 -0.009765625 324.379882812 3.8603515625 324.379882812 6.099609375 c 0
 324.379882812 10.23046875 327.389648438 13.759765625 331.870117188 13.759765625 c 2
 339.620117188 13.759765625 l 2
 379.98046875 13.759765625 357.610351562 45.9501953125 338.240234375 73.0595703125 c 2
 248.629882812 197.450195312 l 1
 154.639648438 79.9501953125 l 2
 133.809570312 53.9599609375 115.91015625 13.76953125 169.700195312 13.76953125 c 0
 185.620117188 13.76953125 196.120117188 13.76953125 196.120117188 13.76953125 c 2
 200.509765625 13.76953125 203.610351562 10.240234375 203.610351562 6.1103515625 c 0
 203.610351562 3.8701171875 203.610351562 0 203.610351562 0 c 1
 1.1796875 0 l 1
 1.1796875 0 1.1796875 2.9296875 1.1796875 6.1103515625 c 0
 1.1796875 10.41015625 4.6298828125 13.76953125 8.669921875 13.76953125 c 2
 8.669921875 13.76953125 12.2001953125 13.76953125 24.080078125 13.76953125 c 0
 75.1201171875 13.76953125 118.240234375 65.330078125 131.919921875 82.1103515625 c 2
 235.129882812 212.620117188 l 1
 149.990234375 333.419921875 l 2
 137.33984375 350.98046875 96.3701171875 407.26953125 55.0595703125 407.26953125 c 0
 43.1796875 407.26953125 39.740234375 407.26953125 39.740234375 407.26953125 c 2
 35.7001953125 407.26953125 32.169921875 410.629882812 32.169921875 414.9296875 c 0
 32.169921875 418.110351562 32.169921875 421.040039062 32.169921875 421.040039062 c 1
 234.610351562 421.040039062 l 1
 234.610351562 421.040039062 234.610351562 417.169921875 234.610351562 414.9296875 c 0
 234.610351562 410.799804688 231.599609375 407.26953125 227.120117188 407.26953125 c 2
 219.370117188 407.26953125 l 2
 179.009765625 407.26953125 201.469726562 375.080078125 220.75 347.969726562 c 2
 281.209960938 264.040039062 l 1
 342.879882812 341.080078125 l 2
 363.620117188 367.080078125 381.51953125 407.26953125 327.73046875 407.26953125 c 0
 311.809570312 407.26953125 301.309570312 407.26953125 301.309570312 407.26953125 c 2
 296.919921875 407.26953125 293.8203125 410.799804688 293.8203125 414.9296875 c 0
 293.8203125 417.169921875 293.8203125 421.040039062 293.8203125 421.040039062 c 1
 496.25 421.040039062 l 1
 496.25 421.040039062 496.25 418.120117188 496.25 414.9296875 c 0
 496.25 410.629882812 492.799804688 407.26953125 488.759765625 407.26953125 c 2
 488.759765625 407.26953125 485.23046875 407.26953125 473.349609375 407.26953125 c 0
 422.309570312 407.26953125 379.190429688 355.709960938 365.509765625 338.9296875 c 2
 293.16015625 247.469726562 l 1
 408.990234375 87.7001953125 l 2
 421.639648438 70.0595703125 462.690429688 13.76953125 503.919921875 13.76953125 c 0
 515.799804688 13.76953125 519.240234375 13.76953125 519.240234375 13.76953125 c 2
EndSplineSet
Validated: 33
EndChar

StartChar: y
Encoding: 69 121 67
Width: 564
VWidth: 0
Flags: W
HStem: -198.48 78.8105<13.963 72.5343> 407.27 13.7705<1.12071 46.4176 164.949 203.475 302.546 364.277 447.103 504.89>
VStem: 5.95996 69.4502<-161.14 -122.424>
LayerCount: 2
Fore
SplineSet
53.080078125 -198.48046875 m 0
 26.4599609375 -194.540039062 5.9697265625 -176.150390625 5.9599609375 -154.719726562 c 0
 5.9599609375 -135.360351562 21.650390625 -119.669921875 41.009765625 -119.669921875 c 0
 60.3701171875 -119.669921875 79.330078125 -135.540039062 75.41015625 -161.139648438 c 1
 75.4501953125 -161.129882812 l 1
 102.1796875 -180.419921875 140.16015625 -171.099609375 165.299804688 -149.889648438 c 0
 186.349609375 -132.129882812 212.08984375 -66.6298828125 246.879882812 20.5703125 c 1
 92.740234375 343.23046875 l 2
 84.650390625 363.280273438 57.7099609375 407.259765625 23.9697265625 407.259765625 c 0
 12.08984375 407.259765625 8.650390625 407.259765625 8.650390625 407.259765625 c 2
 4.6103515625 407.259765625 1.080078125 410.620117188 1.080078125 414.919921875 c 0
 1.080078125 418.099609375 1.080078125 421.030273438 1.080078125 421.030273438 c 1
 203.509765625 421.030273438 l 1
 203.509765625 421.030273438 203.509765625 417.16015625 203.509765625 414.919921875 c 0
 203.509765625 410.790039062 200.490234375 407.259765625 196.01953125 407.259765625 c 2
 188.26953125 407.259765625 l 2
 147.91015625 407.259765625 152.639648438 371.370117188 164.950195312 340.389648438 c 2
 280.110351562 119.290039062 l 1
 375.559570312 344.26953125 l 2
 389.419921875 374.559570312 380.379882812 407.26953125 336.400390625 407.26953125 c 0
 320.48046875 407.26953125 309.98046875 407.26953125 309.98046875 407.26953125 c 2
 305.58984375 407.26953125 302.490234375 410.799804688 302.490234375 414.9296875 c 0
 302.490234375 417.169921875 302.490234375 421.040039062 302.490234375 421.040039062 c 1
 504.9296875 421.040039062 l 1
 504.9296875 421.040039062 504.9296875 418.120117188 504.9296875 414.9296875 c 0
 504.9296875 410.629882812 501.490234375 407.26953125 497.440429688 407.26953125 c 2
 497.440429688 407.26953125 493.91015625 407.26953125 482.030273438 407.26953125 c 0
 422.900390625 407.26953125 406.969726562 365.009765625 397.6796875 345.389648438 c 2
 397.6796875 345.389648438 281.889648438 53.6396484375 238.639648438 -55.1796875 c 0
 228.469726562 -80.759765625 212.490234375 -124.700195312 194.66015625 -150.280273438 c 0
 170.08984375 -185.530273438 103.16015625 -205.900390625 53.080078125 -198.48046875 c 0
EndSplineSet
Validated: 33
EndChar

StartChar: z
Encoding: 70 122 68
Width: 402
VWidth: 0
Flags: W
HStem: 0 19.8799<87.6299 291.4> 401.18 19.8604<51.8104 236.86>
VStem: 10.25 13.7695<309.969 363.685> 319.19 13.7695<57.3518 111.071>
LayerCount: 2
Fore
SplineSet
332.959960938 0 m 1
 1.0400390625 0 l 1
 236.860351562 401.169921875 l 1
 84.51953125 401.1796875 l 2
 36.240234375 401.1796875 24.01953125 353.830078125 24.01953125 332.830078125 c 0
 24.01953125 320.950195312 24.01953125 317.419921875 24.01953125 317.419921875 c 2
 24.01953125 313.370117188 20.66015625 309.9296875 16.3603515625 309.9296875 c 0
 13.1796875 309.9296875 10.25 309.9296875 10.25 309.9296875 c 1
 10.25 421.040039062 l 1
 325.4296875 421.040039062 l 1
 87.6298828125 19.8798828125 l 1
 258.690429688 19.849609375 l 2
 306.969726562 19.849609375 319.190429688 67.2099609375 319.190429688 88.2099609375 c 0
 319.190429688 100.08984375 319.190429688 103.620117188 319.190429688 103.620117188 c 2
 319.190429688 107.669921875 322.549804688 111.110351562 326.849609375 111.110351562 c 0
 330.030273438 111.110351562 332.959960938 111.110351562 332.959960938 111.110351562 c 1
 332.959960938 0 l 1
EndSplineSet
Validated: 1
EndChar

StartChar: exclam
Encoding: 1 33 69
Width: 174
VWidth: 0
Flags: W
HStem: -16.04 88.6396<-0.903937 74.9039> 613.63 20G<10.1748 63.9453>
VStem: -7.32031 88.6406<-9.62366 66.1833> 4.70996 64.5996<399.798 633.63>
LayerCount: 2
Fore
SplineSet
46.9296875 144.740234375 m 1xd0
 27.08984375 144.740234375 l 1
 27.08984375 144.740234375 4.7099609375 412.639648438 4.7099609375 626.080078125 c 0
 4.7099609375 630.25 8.08984375 633.629882812 12.259765625 633.629882812 c 2
 61.900390625 633.629882812 l 2
 65.990234375 633.629882812 69.3095703125 630.309570312 69.3095703125 626.219726562 c 0
 69.3095703125 412.639648438 46.9296875 144.740234375 46.9296875 144.740234375 c 1xd0
-7.3203125 28.2802734375 m 0xe0
 -7.3203125 52.7568359375 12.5224609375 72.599609375 37 72.599609375 c 0
 61.4775390625 72.599609375 81.3203125 52.7568359375 81.3203125 28.2802734375 c 0
 81.3203125 3.802734375 61.4775390625 -16.0400390625 37 -16.0400390625 c 0
 12.5224609375 -16.0400390625 -7.3203125 3.802734375 -7.3203125 28.2802734375 c 0xe0
EndSplineSet
Validated: 1
EndChar

StartChar: emdash
Encoding: 73 8212 71
Width: 855
VWidth: 0
Flags: W
HStem: 183.72 64.6104<2 698.6>
LayerCount: 2
Fore
SplineSet
698.599609375 183.719726562 m 1
 111.889648438 183.719726562 l 2
 111.399414062 183.719726562 2 184.120117188 2 184.610351562 c 2
 2 248.330078125 l 1
 697.709960938 248.330078125 l 2
 698.200195312 248.330078125 698.599609375 247.9296875 698.599609375 247.440429688 c 2
 698.599609375 183.719726562 l 1
EndSplineSet
Validated: 1
EndChar

StartChar: quotedblleft
Encoding: 71 8220 72
Width: 290
VWidth: 0
Flags: W
HStem: 494.95 90.3096<26.8799 84.7771 180.56 238.462> 613.44 20G<52.4702 67.6401 206.15 221.32>
VStem: 1 90.3203<501.488 578.298> 154.68 90.3203<501.488 578.298>
LayerCount: 2
Fore
SplineSet
46.16015625 585.259765625 m 0
 71.099609375 585.469726562 91.3095703125 565.040039062 91.3203125 540.110351562 c 0
 91.3203125 515.169921875 71.099609375 494.950195312 46.16015625 494.950195312 c 0
 21.2197265625 494.950195312 1 515.169921875 1 540.110351562 c 0
 1 556.799804688 1.3603515625 565.610351562 6.919921875 582.009765625 c 0
 14.9404296875 605.559570312 38.7099609375 617.98046875 66.23046875 633.440429688 c 1
 69.0498046875 628.08984375 67.669921875 630.48046875 68.830078125 628.240234375 c 0
 69.990234375 626.0703125 73.4501953125 618.120117188 64.9296875 613.860351562 c 0
 63.5595703125 613.139648438 61.3203125 612.049804688 59.2998046875 610.969726562 c 0
 49.1796875 605.700195312 34.25 594.099609375 26.8798828125 580.950195312 c 1
 26.8798828125 580.950195312 33.58984375 585.150390625 46.16015625 585.259765625 c 0
199.83984375 585.259765625 m 0
 224.780273438 585.469726562 245 565.040039062 245 540.110351562 c 0
 245 515.169921875 224.780273438 494.950195312 199.83984375 494.950195312 c 0
 174.900390625 494.950195312 154.6796875 515.169921875 154.6796875 540.110351562 c 0
 154.6796875 556.799804688 155.040039062 565.610351562 160.599609375 582.009765625 c 0
 168.620117188 605.559570312 192.389648438 617.98046875 219.91015625 633.440429688 c 1
 222.73046875 628.08984375 221.349609375 630.48046875 222.509765625 628.240234375 c 0
 223.669921875 626.0703125 227.129882812 618.120117188 218.610351562 613.860351562 c 0
 217.240234375 613.139648438 215 612.049804688 212.98046875 610.969726562 c 0
 202.860351562 605.700195312 187.9296875 594.099609375 180.559570312 580.950195312 c 1
 180.559570312 580.950195312 187.26953125 585.150390625 199.83984375 585.259765625 c 0
EndSplineSet
Validated: 33
EndChar

StartChar: quotedblright
Encoding: 72 8221 73
Width: 308
VWidth: 0
Flags: W
HStem: 543.12 90.3096<11.7628 69.6601 165.443 223.34>
VStem: 5.22461 90.3203<550.082 626.892> 158.904 90.3203<550.082 626.892>
LayerCount: 2
Fore
SplineSet
204.064453125 543.120117188 m 0
 179.125 542.900390625 158.904296875 563.330078125 158.904296875 588.26953125 c 0
 158.904296875 613.209960938 179.125 633.4296875 204.064453125 633.4296875 c 0
 229.004882812 633.4296875 249.224609375 613.209960938 249.224609375 588.26953125 c 0
 249.224609375 571.580078125 248.864257812 562.76953125 243.3046875 546.370117188 c 0
 235.284179688 522.8203125 211.514648438 510.400390625 183.994140625 494.940429688 c 1
 181.174804688 500.290039062 182.5546875 497.900390625 181.39453125 500.139648438 c 0
 180.234375 502.309570312 176.774414062 510.259765625 185.294921875 514.51953125 c 0
 186.665039062 515.240234375 188.904296875 516.330078125 190.924804688 517.41015625 c 0
 201.044921875 522.6796875 215.974609375 534.280273438 223.344726562 547.4296875 c 1
 223.344726562 547.4296875 216.634765625 543.23046875 204.064453125 543.120117188 c 0
50.384765625 543.120117188 m 0
 25.4443359375 542.900390625 5.224609375 563.330078125 5.224609375 588.26953125 c 0
 5.224609375 613.209960938 25.4443359375 633.4296875 50.384765625 633.4296875 c 0
 75.32421875 633.4296875 95.544921875 613.209960938 95.544921875 588.26953125 c 0
 95.544921875 571.580078125 95.1845703125 562.76953125 89.625 546.370117188 c 0
 81.6044921875 522.8203125 57.8349609375 510.400390625 30.314453125 494.940429688 c 1
 27.494140625 500.290039062 28.875 497.900390625 27.71484375 500.139648438 c 0
 26.5546875 502.309570312 23.0947265625 510.259765625 31.6142578125 514.51953125 c 0
 32.984375 515.240234375 35.224609375 516.330078125 37.244140625 517.41015625 c 0
 47.3642578125 522.6796875 62.294921875 534.280273438 69.6650390625 547.4296875 c 1
 69.6650390625 547.4296875 62.955078125 543.23046875 50.384765625 543.120117188 c 0
EndSplineSet
Validated: 33
EndChar

StartChar: quoteleft
Encoding: 74 8216 74
Width: 150
VWidth: 0
Flags: W
HStem: 494.94 90.3096<26.7246 84.622> 613.43 20G<52.3101 67.48>
VStem: 0.839844 90.3203<501.479 578.288>
LayerCount: 2
Fore
SplineSet
46 585.25 m 0
 70.9404296875 585.469726562 91.16015625 565.040039062 91.16015625 540.099609375 c 0
 91.16015625 515.16015625 70.9404296875 494.940429688 46 494.940429688 c 0
 21.0595703125 494.940429688 0.83984375 515.16015625 0.83984375 540.099609375 c 0
 0.83984375 556.790039062 1.2001953125 565.599609375 6.759765625 582 c 0
 14.7802734375 605.549804688 38.5498046875 617.969726562 66.0703125 633.4296875 c 1
 68.8896484375 628.080078125 67.509765625 630.469726562 68.669921875 628.23046875 c 0
 69.830078125 626.059570312 73.2900390625 618.110351562 64.76953125 613.849609375 c 0
 63.400390625 613.129882812 61.16015625 612.040039062 59.1396484375 610.959960938 c 0
 49.01953125 605.690429688 34.08984375 594.08984375 26.7197265625 580.940429688 c 1
 26.7197265625 580.940429688 33.4296875 585.139648438 46 585.25 c 0
EndSplineSet
Validated: 33
EndChar

StartChar: quoteright
Encoding: 75 8217 75
Width: 129
VWidth: 0
Flags: W
HStem: 543.12 90.3096<7.73642 65.6338>
VStem: 1.19824 90.3203<550.082 626.892>
LayerCount: 2
Fore
SplineSet
46.3583984375 543.120117188 m 0
 21.41796875 542.900390625 1.1982421875 563.330078125 1.1982421875 588.26953125 c 0
 1.1982421875 613.209960938 21.41796875 633.4296875 46.3583984375 633.4296875 c 0
 71.298828125 633.4296875 91.5185546875 613.209960938 91.5185546875 588.26953125 c 0
 91.5185546875 571.580078125 91.158203125 562.76953125 85.5986328125 546.370117188 c 0
 77.578125 522.8203125 53.80859375 510.400390625 26.2880859375 494.940429688 c 1
 23.46875 500.290039062 24.8486328125 497.900390625 23.6884765625 500.139648438 c 0
 22.5283203125 502.309570312 19.068359375 510.259765625 27.5888671875 514.51953125 c 0
 28.9580078125 515.240234375 31.1982421875 516.330078125 33.21875 517.41015625 c 0
 43.3388671875 522.6796875 58.2685546875 534.280273438 65.638671875 547.4296875 c 1
 65.638671875 547.4296875 58.9287109375 543.23046875 46.3583984375 543.120117188 c 0
EndSplineSet
Validated: 33
EndChar

StartChar: endash
Encoding: 78 8211 76
Width: 441
VWidth: 0
Flags: W
HStem: 183.72 64.6104<1.15039 342.84>
LayerCount: 2
Fore
SplineSet
342.83984375 183.719726562 m 1
 2.0400390625 183.719726562 l 2
 1.5498046875 183.719726562 1.150390625 184.120117188 1.150390625 184.610351562 c 2
 1.150390625 248.330078125 l 1
 341.950195312 248.330078125 l 2
 342.440429688 248.330078125 342.83984375 247.9296875 342.83984375 247.440429688 c 2
 342.83984375 183.719726562 l 1
EndSplineSet
Validated: 1
EndChar

StartChar: f_i
Encoding: 79 64257 77
Width: 478
VWidth: 0
Flags: W
HStem: 0.0302734 13.7695<0.664728 47.0091 156.334 202.991 233.024 279.344 388.707 435.35> 413.9 19.8799<0.610352 69.5498 134.09 283.933> 613.91 20.1396<198.867 279.011>
VStem: 69.6396 64.4502<20.8146 413.9 433.78 566.206> 288.35 76.1201<527.603 586.813> 301.96 64.5303<20.823 406.863>
LayerCount: 2
Fore
SplineSet
364.469726562 561.91015625 m 0xf8
 364.469726562 540.889648438 347.4296875 523.849609375 326.41015625 523.849609375 c 0
 305.389648438 523.849609375 288.349609375 540.889648438 288.349609375 561.91015625 c 0xf8
 288.349609375 571.629882812 292.110351562 580.41015625 298.099609375 587.129882812 c 1
 292.120117188 595.290039062 275.48046875 613.91015625 239.620117188 613.91015625 c 0
 183.900390625 613.91015625 134.080078125 562.540039062 134.080078125 503.5 c 2
 134.080078125 433.780273438 l 1
 232.870117188 433.780273438 l 1
 342.98046875 433.780273438 l 1
 366.450195312 433.780273438 l 1
 366.490234375 74.2998046875 l 2
 366.490234375 26.0498046875 391.490234375 13.7998046875 412.490234375 13.7998046875 c 0
 424.370117188 13.7998046875 427.900390625 13.7998046875 427.900390625 13.7998046875 c 2
 431.940429688 13.7998046875 435.389648438 10.4404296875 435.389648438 6.1396484375 c 0
 435.389648438 2.9599609375 435.389648438 0.0302734375 435.389648438 0.0302734375 c 1
 232.969726562 0.0302734375 l 1
 232.969726562 0.0302734375 232.969726562 3.900390625 232.969726562 6.1396484375 c 0
 232.969726562 10.26953125 235.98046875 13.7998046875 240.459960938 13.7998046875 c 2
 255.780273438 13.7998046875 l 2
 276.150390625 13.7998046875 301.959960938 26.0498046875 301.959960938 74.2998046875 c 2xf4
 301.990234375 353.400390625 l 2
 301.990234375 401.599609375 276.169921875 413.900390625 255.76953125 413.900390625 c 2
 240.370117188 413.900390625 l 1
 134.08984375 413.900390625 l 1
 134.08984375 74.2998046875 l 2
 134.08984375 26.01953125 159.129882812 13.7998046875 180.129882812 13.7998046875 c 0
 192.009765625 13.7998046875 195.540039062 13.7998046875 195.540039062 13.7998046875 c 2
 199.580078125 13.7998046875 203.030273438 10.4404296875 203.030273438 6.1396484375 c 0
 203.030273438 2.9599609375 203.030273438 0.0302734375 203.030273438 0.0302734375 c 1
 0.6103515625 0.0302734375 l 1
 0.6103515625 0.0302734375 0.6103515625 3.900390625 0.6103515625 6.1396484375 c 0
 0.6103515625 10.26953125 3.6201171875 13.7998046875 8.099609375 13.7998046875 c 2
 23.419921875 13.7998046875 l 2
 43.8203125 13.7998046875 69.6396484375 26.01953125 69.6396484375 74.2998046875 c 2
 69.5498046875 413.900390625 l 1
 0.6103515625 413.900390625 l 1
 0.6103515625 433.780273438 l 1
 69.5498046875 433.780273438 l 1
 69.5498046875 497.26953125 l 2
 69.5498046875 594.919921875 158.01953125 634.049804688 238.309570312 634.049804688 c 0
 334.98046875 634.040039062 364.469726562 585.219726562 364.469726562 561.91015625 c 0xf8
EndSplineSet
Validated: 1
Ligature2: "'liga' Standard Ligatures in Latin lookup 0-1" f i
EndChar

StartChar: f_f
Encoding: 80 64256 78
Width: 587
VWidth: 0
Flags: W
HStem: 0.0302734 13.7695<1.1325 47.4701 156.803 203.458 222.563 268.908 378.232 424.889> 413.9 19.8799<1.06836 70.0088 134.568 291.448 355.988 438.868> 613.91 20.1396<199.336 280.4 379.352 446.518>
VStem: 70.0986 64.46<20.8146 413.9 433.78 566.206> 291.538 64.4502<20.8146 413.9 433.78 580.464> 461.418 70.1406<530.681 582.832>
LayerCount: 2
Fore
SplineSet
529.578125 574.490234375 m 0
 530.877929688 570.870117188 531.55859375 567 531.55859375 562.959960938 c 0
 531.55859375 543.58984375 515.888671875 527.9296875 496.528320312 527.9296875 c 0
 477.16796875 527.9296875 461.41796875 543.599609375 461.41796875 562.959960938 c 0
 461.41796875 570.450195312 463.828125 577.419921875 467.788085938 583.099609375 c 1
 467.788085938 583.099609375 454.618164062 613.91015625 408.05859375 613.91015625 c 0
 361.837890625 613.91015625 355.98828125 565.01953125 355.98828125 509.599609375 c 2
 355.98828125 433.780273438 l 1
 438.868164062 433.780273438 l 1
 438.868164062 413.900390625 l 1
 355.98828125 413.900390625 l 1
 355.98828125 74.2998046875 l 2
 355.98828125 26.01953125 381.028320312 13.7998046875 402.028320312 13.7998046875 c 0
 413.908203125 13.7998046875 417.438476562 13.7998046875 417.438476562 13.7998046875 c 2
 421.48828125 13.7998046875 424.928710938 10.4404296875 424.928710938 6.1396484375 c 0
 424.928710938 2.9599609375 424.928710938 0.0302734375 424.928710938 0.0302734375 c 1
 222.508789062 0.0302734375 l 1
 222.508789062 0.0302734375 222.508789062 3.900390625 222.508789062 6.1396484375 c 0
 222.508789062 10.26953125 225.518554688 13.7998046875 229.998046875 13.7998046875 c 2
 245.318359375 13.7998046875 l 2
 265.71875 13.7998046875 291.538085938 26.01953125 291.538085938 74.2998046875 c 2
 291.448242188 413.900390625 l 1
 222.508789062 413.900390625 l 1
 134.55859375 413.900390625 l 1
 134.55859375 74.2998046875 l 2
 134.55859375 26.01953125 159.598632812 13.7998046875 180.598632812 13.7998046875 c 0
 192.478515625 13.7998046875 196.008789062 13.7998046875 196.008789062 13.7998046875 c 2
 200.05859375 13.7998046875 203.498046875 10.4404296875 203.498046875 6.1396484375 c 0
 203.498046875 2.9599609375 203.498046875 0.0302734375 203.498046875 0.0302734375 c 1
 1.078125 0.0302734375 l 1
 1.078125 0.0302734375 1.078125 3.900390625 1.078125 6.1396484375 c 0
 1.078125 10.26953125 4.087890625 13.7998046875 8.568359375 13.7998046875 c 2
 23.888671875 13.7998046875 l 2
 44.2783203125 13.7998046875 70.0986328125 26.01953125 70.0986328125 74.2998046875 c 2
 70.0087890625 413.900390625 l 1
 1.068359375 413.900390625 l 1
 1.068359375 433.780273438 l 1
 70.0087890625 433.780273438 l 1
 70.0087890625 497.26953125 l 2
 70.0087890625 594.919921875 158.46875 634.049804688 238.768554688 634.049804688 c 0
 280.638671875 634.049804688 309.877929688 624.889648438 329.608398438 612.610351562 c 1
 347.728515625 626.690429688 372.608398438 634.049804688 405.388671875 634.049804688 c 0
 484.568359375 634.049804688 522.178710938 598.58984375 529.578125 574.490234375 c 0
291.448242188 509.599609375 m 2
 291.448242188 538.379882812 295.788085938 562.3203125 304.888671875 581.360351562 c 1
 295.528320312 596.330078125 275.138671875 613.91015625 240.108398438 613.91015625 c 0
 184.377929688 613.91015625 134.568359375 562.540039062 134.568359375 503.5 c 2
 134.568359375 433.780273438 l 1
 222.518554688 433.780273438 l 1
 229.91796875 433.780273438 l 1
 291.448242188 433.780273438 l 1
 291.448242188 509.599609375 l 2
EndSplineSet
Validated: 1
Ligature2: "'liga' Standard Ligatures in Latin lookup 0-1" f f
EndChar

StartChar: f_f_i
Encoding: 81 64259 79
Width: 712
VWidth: 0
Flags: W
HStem: 0.0195312 13.7705<0.514338 46.8591 156.185 202.84 232.814 279.159 388.484 435.14 465.184 511.503 620.867 667.51> 413.89 19.8799<0.459961 69.4004 133.94 301.7 366.25 516.093> 613.9 20.1396<198.713 281.829 429.493 511.178>
VStem: 69.4902 64.4502<20.8048 413.89 433.77 566.196> 301.79 64.4502<20.8048 413.89 433.77 565.611> 520.52 76.1201<527.593 586.803> 534.12 64.5303<20.8133 406.85>
LayerCount: 2
Fore
SplineSet
660.059570312 13.7900390625 m 2xfa
 664.110351562 13.7900390625 667.549804688 10.4296875 667.549804688 6.1298828125 c 0
 667.549804688 2.9501953125 667.549804688 0.01953125 667.549804688 0.01953125 c 1
 465.129882812 0.01953125 l 1
 465.129882812 0.01953125 465.129882812 3.8896484375 465.129882812 6.1298828125 c 0
 465.129882812 10.259765625 468.150390625 13.7900390625 472.620117188 13.7900390625 c 2
 487.940429688 13.7900390625 l 2
 508.309570312 13.7900390625 534.120117188 26.0400390625 534.120117188 74.2900390625 c 2xfa
 534.150390625 353.389648438 l 2
 534.150390625 401.580078125 508.330078125 413.889648438 487.9296875 413.889648438 c 2
 472.530273438 413.889648438 l 1
 366.240234375 413.889648438 l 1
 366.240234375 74.2900390625 l 2
 366.240234375 26.009765625 391.280273438 13.7900390625 412.280273438 13.7900390625 c 0
 424.16015625 13.7900390625 427.690429688 13.7900390625 427.690429688 13.7900390625 c 2
 431.740234375 13.7900390625 435.1796875 10.4296875 435.1796875 6.1298828125 c 0
 435.1796875 2.9501953125 435.1796875 0.01953125 435.1796875 0.01953125 c 1
 232.759765625 0.01953125 l 1
 232.759765625 0.01953125 232.759765625 3.8896484375 232.759765625 6.1298828125 c 0
 232.759765625 10.259765625 235.76953125 13.7900390625 240.25 13.7900390625 c 2
 255.5703125 13.7900390625 l 2
 275.969726562 13.7900390625 301.790039062 26.009765625 301.790039062 74.2900390625 c 2
 301.700195312 413.889648438 l 1
 133.940429688 413.889648438 l 1
 133.940429688 74.2900390625 l 2
 133.940429688 26.009765625 158.98046875 13.7900390625 179.98046875 13.7900390625 c 0
 191.860351562 13.7900390625 195.389648438 13.7900390625 195.389648438 13.7900390625 c 2
 199.440429688 13.7900390625 202.879882812 10.4296875 202.879882812 6.1298828125 c 0
 202.879882812 2.9501953125 202.879882812 0.01953125 202.879882812 0.01953125 c 1
 0.4599609375 0.01953125 l 1
 0.4599609375 0.01953125 0.4599609375 3.8896484375 0.4599609375 6.1298828125 c 0
 0.4599609375 10.259765625 3.4697265625 13.7900390625 7.9501953125 13.7900390625 c 2
 23.26953125 13.7900390625 l 2
 43.669921875 13.7900390625 69.490234375 26.009765625 69.490234375 74.2900390625 c 2
 69.400390625 413.889648438 l 1
 0.4599609375 413.889648438 l 1
 0.4599609375 433.76953125 l 1
 69.400390625 433.76953125 l 1
 69.400390625 497.259765625 l 2
 69.400390625 594.91015625 157.860351562 634.040039062 238.16015625 634.040039062 c 0
 296.919921875 634.040039062 330.759765625 615.990234375 348.33984375 596.610351562 c 1
 381.259765625 622.5703125 427.040039062 634.040039062 470.469726562 634.040039062 c 0
 567.150390625 634.040039062 596.639648438 585.209960938 596.639648438 561.900390625 c 0
 596.639648438 540.879882812 579.599609375 523.83984375 558.580078125 523.83984375 c 0
 537.559570312 523.83984375 520.51953125 540.879882812 520.51953125 561.900390625 c 0xfc
 520.51953125 571.620117188 524.26953125 580.389648438 530.26953125 587.120117188 c 1
 524.290039062 595.280273438 507.650390625 613.900390625 471.790039062 613.900390625 c 0
 416.059570312 613.900390625 366.25 562.530273438 366.25 503.490234375 c 2
 366.25 433.76953125 l 1
 465.040039062 433.76953125 l 1
 575.139648438 433.76953125 l 1
 598.610351562 433.76953125 l 1
 598.650390625 74.2900390625 l 2
 598.650390625 26.0400390625 623.650390625 13.7900390625 644.650390625 13.7900390625 c 0
 656.530273438 13.7900390625 660.059570312 13.7900390625 660.059570312 13.7900390625 c 2xfa
133.9296875 433.76953125 m 1
 301.700195312 433.76953125 l 1
 301.700195312 497.259765625 l 2
 301.700195312 524.870117188 308.780273438 547.799804688 320.740234375 566.490234375 c 1
 300.25 598.08984375 274.240234375 613.900390625 239.469726562 613.900390625 c 0
 183.740234375 613.900390625 133.9296875 562.530273438 133.9296875 503.490234375 c 2
 133.9296875 433.76953125 l 1
EndSplineSet
Validated: 1
Ligature2: "'liga' Standard Ligatures in Latin lookup 0-1" f f i
EndChar

StartChar: f_l
Encoding: 82 64258 80
Width: 469
VWidth: 0
Flags: W
HStem: 0.0195312 13.7705<0.783869 47.1288 156.454 203.11 232.675 279.039 388.364 435.018> 413.43 19.8799<0.729492 69.6699 134.22 134.22> 613.44 20.1396<198.993 279.764>
VStem: 69.7598 64.4502<20.8048 413.43 433.31 565.737> 301.67 64.4502<20.8146 603.427>
LayerCount: 2
Fore
SplineSet
427.569335938 13.7900390625 m 2
 431.609375 13.7900390625 435.049804688 10.4296875 435.059570312 6.1396484375 c 0
 435.059570312 2.9599609375 435.059570312 0.0302734375 435.059570312 0.0302734375 c 1
 232.639648438 0.0302734375 l 1
 232.639648438 0.0302734375 232.639648438 3.900390625 232.639648438 6.1396484375 c 0
 232.639648438 10.26953125 235.649414062 13.7998046875 240.129882812 13.7998046875 c 2
 255.44921875 13.7998046875 l 2
 275.849609375 13.7998046875 301.669921875 26.01953125 301.669921875 74.2998046875 c 2
 301.669921875 584.280273438 l 1
 294 594.98046875 275.159179688 613.440429688 239.759765625 613.440429688 c 0
 184.029296875 613.440429688 134.219726562 562.0703125 134.219726562 503.030273438 c 2
 134.219726562 433.309570312 l 1
 217.219726562 433.309570312 l 1
 216.149414062 426.620117188 217 419.639648438 219.559570312 413.4296875 c 1
 134.209960938 413.4296875 l 1
 134.209960938 74.2900390625 l 2
 134.209960938 26.009765625 159.25 13.7900390625 180.25 13.7900390625 c 0
 192.129882812 13.7900390625 195.659179688 13.7900390625 195.659179688 13.7900390625 c 2
 199.709960938 13.7900390625 203.149414062 10.4296875 203.149414062 6.1298828125 c 0
 203.149414062 2.9501953125 203.149414062 0.01953125 203.149414062 0.01953125 c 1
 0.7294921875 0.01953125 l 1
 0.7294921875 0.01953125 0.7294921875 3.8896484375 0.7294921875 6.1298828125 c 0
 0.7294921875 10.259765625 3.7392578125 13.7900390625 8.2197265625 13.7900390625 c 2
 23.5400390625 13.7900390625 l 2
 43.939453125 13.7900390625 69.759765625 26.009765625 69.759765625 74.2900390625 c 2
 69.669921875 413.4296875 l 1
 0.7294921875 413.4296875 l 1
 0.7294921875 433.309570312 l 1
 69.669921875 433.309570312 l 1
 69.669921875 496.799804688 l 2
 69.669921875 594.450195312 158.129882812 633.580078125 238.4296875 633.580078125 c 0
 271.080078125 633.580078125 295.909179688 627.940429688 314.689453125 619.669921875 c 1
 366.120117188 619.669921875 l 1
 366.120117188 74.2900390625 l 2
 366.120117188 26.009765625 391.159179688 13.7900390625 412.159179688 13.7900390625 c 0
 424.040039062 13.7900390625 427.569335938 13.7900390625 427.569335938 13.7900390625 c 2
EndSplineSet
Validated: 1
Ligature2: "'liga' Standard Ligatures in Latin lookup 0-1" f l
EndChar

StartChar: f_f_l
Encoding: 83 64260 81
Width: 706
VWidth: 0
Flags: W
HStem: 0.0302734 13.7695<1.11396 47.4589 156.784 203.441 233.394 279.739 389.064 435.72 464.574 510.891 620.254 666.901> 413.9 19.8799<1.05957 70 134.54 302.28 366.82 366.82> 613.91 20.1299<199.321 282.443 430.103 511.609>
VStem: 70.0898 64.4502<20.8146 413.9 433.78 566.195> 302.37 64.4502<20.8146 413.9 433.78 565.611> 533.46 64.5498<20.8048 603.854>
LayerCount: 2
Fore
SplineSet
659.459960938 13.7900390625 m 2
 663.5 13.7900390625 666.940429688 10.4296875 666.940429688 6.1298828125 c 0
 666.940429688 2.9501953125 666.940429688 0.01953125 666.940429688 0.01953125 c 1
 464.51953125 0.01953125 l 1
 464.51953125 0.01953125 464.51953125 3.8896484375 464.51953125 6.1298828125 c 0
 464.51953125 10.259765625 467.530273438 13.7900390625 472.009765625 13.7900390625 c 2
 487.330078125 13.7900390625 l 2
 507.73046875 13.7900390625 533.459960938 26.009765625 533.459960938 74.2900390625 c 2
 533.540039062 584.169921875 l 1
 526.700195312 593.940429688 507.780273438 613.91015625 472.419921875 613.91015625 c 0
 416.650390625 613.91015625 366.8203125 562.530273438 366.8203125 503.490234375 c 2
 366.8203125 433.780273438 l 1
 450.389648438 433.780273438 l 1
 447.799804688 427.580078125 446.860351562 420.610351562 447.889648438 413.900390625 c 1
 366.8203125 413.900390625 l 1
 366.8203125 74.2998046875 l 2
 366.8203125 26.01953125 391.860351562 13.7998046875 412.860351562 13.7998046875 c 0
 424.740234375 13.7998046875 428.26953125 13.7998046875 428.26953125 13.7998046875 c 2
 432.3203125 13.7998046875 435.759765625 10.4404296875 435.759765625 6.1396484375 c 0
 435.759765625 2.9599609375 435.759765625 0.0302734375 435.759765625 0.0302734375 c 1
 233.33984375 0.0302734375 l 1
 233.33984375 0.0302734375 233.33984375 3.900390625 233.33984375 6.1396484375 c 0
 233.33984375 10.26953125 236.360351562 13.7998046875 240.830078125 13.7998046875 c 2
 256.150390625 13.7998046875 l 2
 276.549804688 13.7998046875 302.370117188 26.01953125 302.370117188 74.2998046875 c 2
 302.280273438 413.900390625 l 1
 134.540039062 413.900390625 l 1
 134.540039062 74.2998046875 l 2
 134.540039062 26.01953125 159.580078125 13.7998046875 180.580078125 13.7998046875 c 0
 192.459960938 13.7998046875 195.990234375 13.7998046875 195.990234375 13.7998046875 c 2
 200.040039062 13.7998046875 203.48046875 10.4404296875 203.48046875 6.1396484375 c 0
 203.48046875 2.9599609375 203.48046875 0.0302734375 203.48046875 0.0302734375 c 1
 1.0595703125 0.0302734375 l 1
 1.0595703125 0.0302734375 1.0595703125 3.900390625 1.0595703125 6.1396484375 c 0
 1.0595703125 10.26953125 4.0703125 13.7998046875 8.5498046875 13.7998046875 c 2
 23.8701171875 13.7998046875 l 2
 44.26953125 13.7998046875 70.08984375 26.01953125 70.08984375 74.2998046875 c 2
 70 413.900390625 l 1
 1.0595703125 413.900390625 l 1
 1.0595703125 433.780273438 l 1
 70 433.780273438 l 1
 70 497.290039062 l 2
 70 594.879882812 158.469726562 634.040039062 238.76953125 634.040039062 c 0
 297.549804688 634.040039062 331.370117188 615.959960938 348.9296875 596.599609375 c 1
 381.889648438 622.58984375 427.6796875 634.040039062 471.049804688 634.040039062 c 0
 504.330078125 634.040039062 529.490234375 628.200195312 548.379882812 619.669921875 c 1
 598.009765625 619.669921875 l 1
 598.009765625 74.2900390625 l 2
 598.009765625 26.009765625 623.049804688 13.7900390625 644.049804688 13.7900390625 c 0
 655.9296875 13.7900390625 659.459960938 13.7900390625 659.459960938 13.7900390625 c 2
302.280273438 497.290039062 m 2
 302.280273438 524.91015625 309.419921875 547.809570312 321.379882812 566.490234375 c 1
 300.900390625 598.0703125 274.8203125 613.91015625 240.049804688 613.91015625 c 0
 184.370117188 613.91015625 134.540039062 562.530273438 134.540039062 503.490234375 c 2
 134.540039062 433.780273438 l 1
 302.280273438 433.780273438 l 1
 302.280273438 497.290039062 l 2
EndSplineSet
Validated: 1
Ligature2: "'liga' Standard Ligatures in Latin lookup 0-1" f f l
EndChar

StartChar: T_h
Encoding: 84 -1 82
Width: 972
VWidth: 0
Flags: W
HStem: 0.0195312 13.7705<151.465 197.799 307.145 353.79 421.955 468.273 577.637 624.281 723.094 769.413 878.776 925.42> 411.71 22.0596<635.826 741.064> 599.88 19.79<42.1396 220.43 284.9 463.095>
VStem: 0.540039 13.7695<508.614 562.012> 220.43 64.4707<20.8048 599.88> 490.92 64.4697<20.8133 357.077 375.61 584.759> 792.03 64.5293<20.8035 370.187>
LayerCount: 2
Fore
SplineSet
0.5400390625 619.669921875 m 1
 555.370117188 619.669921875 l 1
 555.389648438 375.610351562 l 1
 588.0703125 423.790039062 664.75 433.76953125 692.76953125 433.76953125 c 0
 763.58984375 433.76953125 856.530273438 397.580078125 856.530273438 297.780273438 c 2
 856.559570312 74.2802734375 l 2
 856.559570312 26.0302734375 881.559570312 13.7802734375 902.559570312 13.7802734375 c 0
 914.440429688 13.7802734375 917.969726562 13.7802734375 917.969726562 13.7802734375 c 2
 922.01953125 13.7802734375 925.459960938 10.419921875 925.459960938 6.1201171875 c 0
 925.459960938 2.9404296875 925.459960938 0.009765625 925.459960938 0.009765625 c 1
 723.040039062 0.009765625 l 1
 723.040039062 0.009765625 723.040039062 3.8798828125 723.040039062 6.1201171875 c 0
 723.040039062 10.25 726.049804688 13.7802734375 730.530273438 13.7802734375 c 2
 745.849609375 13.7802734375 l 2
 766.219726562 13.7802734375 792.030273438 26.0302734375 792.030273438 74.2802734375 c 2
 791.98046875 289.799804688 l 2
 791.98046875 358.620117188 768.6796875 411.709960938 688.3203125 411.709960938 c 0
 620.080078125 411.709960938 555.400390625 360.790039062 555.400390625 298.419921875 c 2
 555.419921875 74.2900390625 l 2
 555.419921875 26.0400390625 580.419921875 13.7900390625 601.419921875 13.7900390625 c 0
 613.299804688 13.7900390625 616.830078125 13.7900390625 616.830078125 13.7900390625 c 2
 620.879882812 13.7900390625 624.3203125 10.4296875 624.3203125 6.1298828125 c 0
 624.3203125 2.9501953125 624.3203125 0.01953125 624.3203125 0.01953125 c 1
 421.900390625 0.01953125 l 1
 421.900390625 0.01953125 421.900390625 3.8896484375 421.900390625 6.1298828125 c 0
 421.900390625 10.259765625 424.919921875 13.7900390625 429.389648438 13.7900390625 c 2
 444.709960938 13.7900390625 l 2
 465.080078125 13.7900390625 490.889648438 26.0400390625 490.889648438 74.2900390625 c 2
 490.919921875 531.370117188 l 2
 490.919921875 551.76953125 478.620117188 599.879882812 430.419921875 599.879882812 c 2
 284.900390625 599.879882812 l 1
 284.900390625 74.2900390625 l 2
 284.900390625 26.009765625 309.940429688 13.7900390625 330.940429688 13.7900390625 c 0
 342.809570312 13.7900390625 346.33984375 13.7900390625 346.33984375 13.7900390625 c 2
 350.389648438 13.7900390625 353.830078125 10.4296875 353.830078125 6.1298828125 c 0
 353.830078125 2.9501953125 353.830078125 0.01953125 353.830078125 0.01953125 c 1
 151.41015625 0.01953125 l 1
 151.41015625 0.01953125 151.41015625 3.8896484375 151.41015625 6.1298828125 c 0
 151.41015625 10.259765625 154.419921875 13.7900390625 158.900390625 13.7900390625 c 2
 174.209960938 13.7900390625 l 2
 194.610351562 13.7900390625 220.4296875 26.009765625 220.4296875 74.2900390625 c 2
 220.4296875 599.879882812 l 1
 74.8095703125 599.879882812 l 2
 26.6201171875 599.879882812 14.3095703125 551.76953125 14.3095703125 531.370117188 c 2
 14.3095703125 516.049804688 l 2
 14.3095703125 511.5703125 10.7802734375 508.559570312 6.650390625 508.559570312 c 0
 4.41015625 508.559570312 0.5400390625 508.559570312 0.5400390625 508.559570312 c 1
 0.5400390625 619.669921875 l 1
EndSplineSet
Validated: 1
Ligature2: "'liga' Standard Ligatures in Latin lookup 0-1" T h
EndChar
